<?xml version="1.0" encoding="UTF-8"?>
<!DOCTYPE svg PUBLIC "-//W3C//DTD SVG 1.1//EN" "http://www.w3.org/Graphics/SVG/1.1/DTD/svg11.dtd">
<!-- Creator: CorelDRAW 2018 (64 Bit Versão de avaliação) -->
<svg xmlns="http://www.w3.org/2000/svg" xml:space="preserve" width="100mm" height="100mm" version="1.1" style="shape-rendering:geometricPrecision; text-rendering:geometricPrecision; image-rendering:optimizeQuality; fill-rule:evenodd; clip-rule:evenodd"
viewBox="0 0 10000 10000"
 xmlns:xlink="http://www.w3.org/1999/xlink">
 <defs>
  <style type="text/css">
   <![CDATA[
    .str0 {stroke:#8D3135;stroke-width:200;stroke-miterlimit:22.9256}
    .str1 {stroke:#8D3135;stroke-width:7.62;stroke-miterlimit:22.9256}
    .fil0 {fill:none}
    .fil1 {fill:#8D3135}
   ]]>
  </style>
 </defs>
 <g id="Camada_x0020_1">
  <metadata id="CorelCorpID_0Corel-Layer"/>
  <ellipse class="fil0 str0" cx="5011.43" cy="5005.44" rx="4552.56" ry="4319.58"/>
  <path class="fil1 str1" d="M2520.67 8418.03c806.89,134.35 1110.11,361.64 2033.2,98.04 606.59,-173.21 1170.86,-426.07 1591.78,-750.42 929.91,-716.61 646.48,-896.32 1316.21,-1071.53 581.61,-152.23 1212.59,-478.26 1778.7,-595.81 -111.69,657.86 -547.09,1212.32 -967.96,1683.16 -903.47,1010.83 -2397.38,1510.28 -3834.93,1347.48 -577.97,-65.47 -1648.85,-388.52 -1917,-710.92zm4221.49 -1940.09c-3621.72,387.11 -4788.03,-2211.11 -1529.73,-4737.8 233.79,-181.27 505.68,-342.88 761.64,-522.32 380.01,-266.36 413.94,-213.09 874.37,-5.47 589.63,265.82 1156.06,674.71 1468.87,1055.26 217.16,264.2 365,396.11 553,730.21 663.98,1179.81 553.15,1863.3 411,3043.05 -508.17,92.56 -1387.8,385.59 -1920.41,364.72 109.25,-402.39 667.94,-1165.87 755.35,-2628.35 81.45,-1362.71 -525.19,-1726.46 -1527.35,-783.43 277.69,-69.53 1469.58,-1140.56 1211.78,691.57 -136.3,968.77 -540.48,2031.95 -1058.52,2792.56zm-348.36 399.09c-86.87,209.08 -122.74,177.59 -309.06,370.2 -144.05,148.87 -189.74,187.45 -338.88,302.67 -1030.71,796.32 -2151.93,951.81 -3457.25,653.63 -319.15,-72.89 -801.42,-656.83 -992.07,-933.76 -1193.73,-1734.26 -845.64,-4058.37 822.77,-5411.54 469.86,-381.14 977.44,-691.13 1694.05,-873.93 450.13,-114.84 1862.54,-252.27 2232.25,-7.15 -316.55,227.77 -611.53,406.89 -915.99,634.34 -808.57,604.15 -1834.35,1512.88 -2125.21,2554.16 -281.87,1009.31 277.52,1806.72 814.86,2186.35 587.19,414.85 1704.88,583.29 2574.53,525.03zm-5972.82 -2401.18l0 1000.43c202.63,448.67 41.62,1044.37 986.6,2232.73 74.68,93.92 432.96,443.85 531.32,522.59 1874.57,1501.01 4294.54,1479.99 6178,-53.7 335.08,-272.81 681.22,-699.97 949.91,-1161.54 207.51,-356.43 473.33,-1179.1 515.88,-1571.68 2.33,-21.51 9.1,-26.77 15.06,-39.62l0 -732.1c-107.25,-245.01 -114.35,-628.76 -203.39,-913.17 -570.77,-1823.63 -2310.77,-3046.13 -4291.35,-3090.03 -1400.86,-31.05 -2361.28,466.66 -3164.6,1100.14 -1299.35,1024.53 -1357.45,2356.19 -1517.43,2705.95z"/>
 </g>
</svg>
