<?xml version="1.0" encoding="UTF-8"?>
<!DOCTYPE svg PUBLIC "-//W3C//DTD SVG 1.1//EN" "http://www.w3.org/Graphics/SVG/1.1/DTD/svg11.dtd">
<!-- Creator: CorelDRAW 2018 (64 Bit Versão de avaliação) -->
<svg xmlns="http://www.w3.org/2000/svg" xml:space="preserve" width="100mm" height="100mm" version="1.1" style="shape-rendering:geometricPrecision; text-rendering:geometricPrecision; image-rendering:optimizeQuality; fill-rule:evenodd; clip-rule:evenodd"
viewBox="0 0 10000 10000"
 xmlns:xlink="http://www.w3.org/1999/xlink">
 <defs>
  <style type="text/css">
   <![CDATA[
    .str1 {stroke:#6682C1;stroke-width:20;stroke-miterlimit:22.9256}
    .str0 {stroke:black;stroke-width:7.62;stroke-miterlimit:22.9256}
    .fil0 {fill:black}
    .fil2 {fill:#6682C1}
    .fil1 {fill:#C19F9E}
    .fil3 {fill:white}
   ]]>
  </style>
   <mask id="id0">
  <radialGradient id="id1" gradientUnits="userSpaceOnUse" cx="3825.86" cy="3249.67" r="0" fx="3825.86" fy="3249.67">
   <stop offset="0" style="stop-opacity:1; stop-color:white"/>
   <stop offset="1" style="stop-opacity:0; stop-color:white"/>
  </radialGradient>
    <rect style="fill:url(#id1)" x="3815.86" y="3239.67" width="3995.56" height="4054.85"/>
   </mask>
 </defs>
 <g id="Camada_x0020_1">
  <metadata id="CorelCorpID_0Corel-Layer"/>
  <path class="fil0 str0" d="M7724.51 7458.3c0,36.77 -33.07,91.25 -97.23,158.56 -57.04,61.07 -115.3,119.3 -174.8,175.03l-4586.46 0c-46.1,-45.97 -91.45,-93.53 -135.46,-143.02 -570.6,-639.03 -855.04,-1435.15 -855.04,-2392.9 0,-956.16 289.6,-1757.05 870.65,-2400.96 617.56,-693.51 1432.78,-1041.06 2447.5,-1041.06 1028.61,0 1823.05,320.31 2386.77,961.04 53.84,65.61 81.62,121.68 81.62,164.93 0,52.89 -90.22,209.87 -270.67,470.93 -180.33,261.06 -289.6,392.38 -327.83,392.38 -43.39,0 -147.39,-76.84 -310.5,-230.64 -199.51,-187.4 -388.56,-328.37 -565.44,-422.8 -291.45,-153.8 -614,-230.65 -966.17,-230.65 -671.28,0 -1193.33,235.41 -1566.27,707.93 -333.12,422.8 -499.56,954.57 -499.56,1596.89 0,640.62 164.72,1177.16 494.27,1609.61 372.95,485.34 893.4,727.22 1561.11,727.22 333.12,0 653.95,-76.84 962.73,-229.05 202.94,-99.32 411.05,-241.88 621,-426.1 176.88,-152.09 272.27,-228.93 289.72,-228.93 20.78,0 131.78,123.26 334.72,371.5 202.94,248.34 305.34,384.43 305.34,410.09zm-465.88 502.59c-24.46,19.75 -49.16,39.05 -73.87,58l-4063.19 0c-23.97,-18.84 -47.57,-38.25 -71.04,-58l4208.1 0zm-317.01 227.01c-31.72,19.98 -63.8,39.28 -96.13,58l-3392.15 0c-31.96,-18.72 -63.43,-38.02 -94.65,-58l3582.93 0zm-433.18 227.01c-48.18,20.55 -96.86,39.96 -146.03,58l-2425.25 0c-49.9,-18.16 -99.07,-37.45 -147.5,-58l2718.78 0zm-829.84 227.01c-164.1,22.47 -333.25,33.6 -507.43,33.6 -183.64,0 -360.77,-11.24 -531.14,-33.6l1038.57 0z"/>
  <g id="_2357508215568">
   <rect class="fil1" x="6070.94" y="376.42" width="215.66" height="9347.31"/>
   <rect class="fil1" x="304.74" y="4758.26" width="9347.08" height="215.66"/>
  </g>
  <ellipse class="fil2 str1" cx="5813.64" cy="5267.1" rx="1987.78" ry="2017.43"/>
  <path class="fil3 str1" style="mask:url(#id0)" d="M5813.64 3249.67c1097.81,0 1987.78,903.19 1987.78,2017.43 0,1114.23 -889.97,2017.42 -1987.78,2017.42 -1097.81,0 -1987.78,-903.19 -1987.78,-2017.42 0,-1114.24 889.97,-2017.43 1987.78,-2017.43z"/>
 </g>
</svg>
