<?xml version="1.0" encoding="UTF-8"?>
<!DOCTYPE svg PUBLIC "-//W3C//DTD SVG 1.1//EN" "http://www.w3.org/Graphics/SVG/1.1/DTD/svg11.dtd">
<!-- Creator: CorelDRAW 2018 (64 Bit Versão de avaliação) -->
<svg xmlns="http://www.w3.org/2000/svg" xml:space="preserve" width="100mm" height="100mm" version="1.1" style="shape-rendering:geometricPrecision; text-rendering:geometricPrecision; image-rendering:optimizeQuality; fill-rule:evenodd; clip-rule:evenodd"
viewBox="0 0 10000 10000"
 xmlns:xlink="http://www.w3.org/1999/xlink">
 <defs>
  <style type="text/css">
   <![CDATA[
    .str2 {stroke:#110239;stroke-width:20;stroke-miterlimit:22.9256}
    .str1 {stroke:#571845;stroke-width:20;stroke-miterlimit:22.9256}
    .str0 {stroke:#900C3E;stroke-width:20;stroke-miterlimit:22.9256}
    .fil8 {fill:none}
    .fil5 {fill:#110239}
    .fil6 {fill:#110239}
    .fil1 {fill:#571845}
    .fil0 {fill:#900C3E}
    .fil7 {fill:#C70039}
    .fil3 {fill:#E45940}
    .fil4 {fill:#FDFDFD}
    .fil2 {fill:#FFA58C}
   ]]>
  </style>
   <clipPath id="id0">
    <path d="M5029.98 -59.44c2738.65,0 4958.75,2220.1 4958.75,4958.74 0,2738.65 -2220.1,4958.75 -4958.75,4958.75 -2738.64,0 -4958.74,-2220.1 -4958.74,-4958.75 0,-2738.64 2220.1,-4958.74 4958.74,-4958.74z"/>
   </clipPath>
 </defs>
 <g id="Camada_x0020_1">
  <metadata id="CorelCorpID_0Corel-Layer"/>
  <g>
  </g>
  <g style="clip-path:url(#id0)">
   <g>
    <path class="fil0 str0" d="M-4325.92 6198.97l-793.89 304.22c-164.62,91.69 -140.85,36.58 -255.4,172.77l96.16 274.75 12.62 106.44 342.75 1470.95 178.18 635.23 178.01 688.06 194.53 637.96 216.71 686.58 233.6 654.9 321.16 661.83c143.97,355.69 290.17,576.5 758.33,578.67 336.13,1.56 853.13,-25.22 1110.52,-142.67l-111.53 -26.21c1645.78,-484.63 3165.75,-1329.27 4113.7,-2185.26 226.91,615.53 718.87,1163.13 1044.89,1677.53 185.46,292.64 271.18,640.98 342.89,1046.02 66.47,375.5 225.24,716.44 325.89,1066.92 231.82,807.08 134.84,1640.39 356.09,2431.67 290.7,1039.63 421.22,1134.88 882.69,1899.29l3588.09 -7.07c88.17,-1053.84 68.45,-2231.12 77.04,-3297.42 4.52,-562.03 -7.94,-1120.23 -16.99,-1682 -7.41,-460.77 -104.1,-1290.52 -46.57,-1685.85l-124.69 -856.36c-34.49,-266.37 -103.14,-544.36 -102.37,-812.45 440.72,286.8 1855.69,1817.9 2249.29,2257.18 596.33,665.61 1710.37,1301.74 1912.98,1530.29 382.42,-153.93 557.26,-803.59 800.33,-1172.28 54.22,-171.59 418.54,-1071.68 474.75,-1130.41l331.21 -930.64 424.61 -1153.44 286.18 -923.58 161.88 -497.32 -178.55 -130.67 -809.5 -400.14 -143.28 -73.59 -418.11 1049.77c-74.19,299.1 -222.5,780.46 -426.96,973.7 -14.71,281.49 -385.62,992.98 -540.16,1160.18 -86.53,200.82 -217.18,389.72 -364.62,478.95 -220.41,-32.39 -694.64,-335.49 -783.46,-505.38 -234.38,-35.45 -633.13,-387.27 -843.89,-538.72 -150.46,-108.13 -670.46,-477.65 -751.02,-592.14 -467.35,-247.92 -871.45,-598.03 -1408.43,-901.88 -412.36,-233.33 -1131.63,-498.66 -1608.94,-634.41 -603.2,277.32 -848.01,354.24 -1603.52,317.94l-774.52 -296.2 -1155.56 257.83 -1259.29 347.93 -453 184.2 -1812.36 678.49c-258.04,169.13 -1775.54,691.11 -2104.83,592.16 -150.26,-103.48 -323.84,-369.24 -402.84,-611.82l-341.84 -656.56 -253.47 -674.52 -569.26 -1441.46c-81.23,-182.59 -90.37,-149.84 -92.97,-350.48 -142.67,-151.27 -193.39,-370.12 -247.89,-602.14l-215.37 90.66z"/>
    <path class="fil1 str1" d="M-1732.64 12928.66l96.54 1.25c677.69,-88.65 3762.17,-938.26 3979.71,-900.9 98.46,926.59 37.57,1670.69 -13.07,2576.82l-301.34 4228.96 3192.78 3.83c-461.47,-764.41 -591.99,-859.66 -882.69,-1899.29 -221.25,-791.28 -124.27,-1624.59 -356.09,-2431.67 -100.65,-350.48 -259.42,-691.42 -325.89,-1066.92 -71.71,-405.04 -157.43,-753.38 -342.89,-1046.02 -326.02,-514.4 -817.98,-1062 -1044.89,-1677.53 -947.95,855.99 -2467.92,1700.63 -4113.7,2185.26l111.53 26.21z"/>
    <path class="fil2" d="M-5119.81 6503.19l793.89 -304.22c1.83,-109.26 -6.66,-146.27 19.68,-258.47 54.5,-232.11 20.11,-105.27 94.73,-199.18 -7.28,-353.32 59.66,-843.88 277.41,-1092.4 81.88,-224.79 630.22,-623.15 358.7,-732.19 -192.48,-77.3 -337.72,-81.53 -518.81,97.84 -122.68,121.51 -209.38,332.84 -281.44,472.76 -415.3,806.39 -963.48,184.59 -1420.35,-90.27 -424.41,-255.34 -448.89,-211.44 -909.82,-598.67 -158.7,-133.31 -259.56,-222.07 -534.66,-200.44 4.9,236.27 94.34,332 233.51,443.83l322.87 273.95c5.08,-10.16 20.8,23.19 30.19,35.59 -211.89,-92.97 -1201.73,-952.89 -1031.2,-333.91 31.45,114.13 293.32,315.86 369.67,360.41l-501.21 -83.89c-17.18,270.39 150.57,368.16 395.12,466.66 -233.61,116.79 -129.49,-49.36 -226.93,159.9 122.79,224.09 350.07,268.34 646.39,390.29 269.67,111.01 429.26,237.48 671.08,376.14 565.33,324.17 813.72,215.52 1119.9,676.49l91.28 139.78z"/>
    <path class="fil1 str1" d="M8823.55 12166.28c157.69,86.48 692.27,449.98 799.22,577.8 151.63,70.52 335.97,176.16 434.14,292.48 516.23,225.28 2025.01,1416.4 2701.85,1248.38 -202.61,-228.55 -1316.65,-864.68 -1912.98,-1530.29 -393.6,-439.28 -1808.57,-1970.38 -2249.29,-2257.18 -0.77,268.09 67.88,546.08 102.37,812.45l124.69 856.36z"/>
    <path class="fil3" d="M4776.89 6814.44c-0.74,653.57 -69.41,979.43 -194.13,1570.24l774.52 296.2c225.99,-300.25 292.74,-409.87 618.21,-630.8 183.12,-124.3 709.93,-270.59 796.18,-398.12l-18.87 -286.93c-792.71,-236.4 -944.62,-375.57 -1531.89,-696.06 -81.07,176.95 -189.23,173.73 -444.02,145.47z"/>
    <path class="fil2" d="M5357.28 8680.88c755.51,36.3 1000.32,-40.62 1603.52,-317.94l-189.13 -710.98c-86.25,127.53 -613.06,273.82 -796.18,398.12 -325.47,220.93 -392.22,330.55 -618.21,630.8z"/>
    <path class="fil4" d="M10056.91 13036.56c-98.17,-116.32 -282.51,-221.96 -434.14,-292.48l-2.24 380.29c50.18,0 212.49,9.97 247.95,6.69 335.95,-31.19 94.29,43.17 188.43,-94.5z"/>
    <path class="fil5" d="M6113.95 616.32c276.15,23.72 422.75,-212.41 763.32,-27.98 159.14,86.2 336.04,324.88 327.98,599.48 232.85,84.75 354.16,190.02 466.96,436.36 70.58,154.17 134.48,378.66 76,558.32 -22.59,69.39 -57.98,102.8 -77.81,156.38 15.93,31.44 62.52,79.93 104.38,161.5 67.39,131.27 123.96,292.59 63.53,442.74 -54.96,136.48 -46.07,50.57 14.27,181.96 94.38,205.6 84.25,447.87 -59.37,634.88 -91.49,119.11 -59.73,32.45 -65.48,207.56 -4.32,132.31 -61.34,159.62 -70.55,202.89l27.77 529.02c18.76,100.7 527.57,556.21 174.8,691.56 -71.6,27.49 -180.88,23.05 -232.88,43.51 -29.81,53.06 -42.78,164.3 -60.98,226.68 -62.9,215.53 -163.47,423.66 -290.72,592.8 -202.49,269.18 -421.61,358.13 -726.3,443.7 -34.39,236.38 80.54,680.91 -172.18,945.86 -87.17,91.41 -149.13,67.01 -285.18,97.36 -56.52,329.54 -190.59,486.31 -375.54,646.57 -308.97,267.75 -473.55,206.89 -795.85,171.52 -39.92,160.5 -193.08,309.66 -340.38,384.37 -378.45,191.95 -1226.72,-4.79 -1316.16,-740.46 -217.44,9.04 -400.26,78.01 -611.02,-165.18 -101.03,-116.51 -146.37,-323.63 -112.88,-485.75 12.71,-61.65 44.21,-102.19 56.24,-159.7 -394.52,-153.7 -531.8,-491.26 -382.96,-879.56 34.65,-90.39 112.55,-244.06 118.8,-344.63 -134.83,-44.88 -250.13,-192.2 -275.96,-362.71 -36.26,-239.38 52.68,-367.26 77.75,-560.14 -112.55,-80.37 -271.43,-283.86 -269.39,-469.37 1.12,-103.41 34.75,-121.91 57.46,-192.3 -106.55,-90.48 -319.31,-370.34 -349.28,-585.1 -48.38,-346.68 246.11,-548.32 217.33,-722.94 -7.57,-45.88 -63.12,-105.35 -86.99,-151.72 -28.47,-55.26 -40.53,-116.11 -48.05,-186.26 -15.06,-140.23 -6.88,-297.34 21.75,-429.78 54.25,-250.88 196.24,-447.99 451.02,-486.24 6,-160.91 -1.31,-234.21 72.8,-363.68 112.09,-195.86 347.8,-303.49 574.26,-320.57 177.99,-13.45 261.31,13.85 415.47,31.31 86.99,-111.18 132.95,-340.49 473.45,-578.29 103.59,-72.33 224.44,-132.13 368.35,-164.45 208.48,-46.84 280.32,-10.9 467.2,19.7 36.45,-39.71 57.77,-106.92 135.54,-171.99 56.09,-46.98 105.26,-86.47 181.7,-127.03 257.29,-136.44 768.17,-210.33 1024.5,-83.82 158.7,78.31 212.67,172.37 273.28,353.62z"/>
    <path class="fil2" d="M5220.91 6668.97c587.27,320.49 739.18,459.66 1531.89,696.06 1006.63,107.55 812.46,-742.37 1097.66,-1378.75 75.7,-168.9 241.75,-288.36 375.38,-485.81 -183.67,-580.43 -719.55,-372.42 -759.05,-1645.91 -502.87,355.57 -988.75,423.3 -1704.02,330.38 -81.71,366.2 -187.12,367.3 13.89,757.76 84.67,164.43 349.38,637.28 94.6,753.44 -355.7,43.23 -238.93,-709.93 -964.1,-561.62 -128.58,350.74 -113.7,483.19 151.98,701.66 243.86,200.53 221.47,407.91 161.77,832.79z"/>
    <circle class="fil6 str2" transform="matrix(3.85802 -0 1.25784 3.06517 7010.03 4907.92)" r="46.3"/>
    <g id="_2357635232528">
     <path class="fil7" d="M7610.28 6397.83c-424.57,69.26 -430.99,-164.54 -559.81,-199.93 91.31,240.64 291.98,319.59 585.62,292.97 31.84,-5.76 51.86,-31.25 44.73,-56.94 -7.12,-25.7 -38.71,-41.86 -70.54,-36.1z"/>
    </g>
    <path class="fil8" d="M7623.19 6444.35c-258.8,46.76 -420.53,-37.85 -548.41,-224.5 -4.15,-6.07 -17.52,-16.11 -24.31,-21.95"/>
   </g>
  </g>
  <path class="fil8" d="M5029.98 -59.44c2738.65,0 4958.75,2220.1 4958.75,4958.74 0,2738.65 -2220.1,4958.75 -4958.75,4958.75 -2738.64,0 -4958.74,-2220.1 -4958.74,-4958.75 0,-2738.64 2220.1,-4958.74 4958.74,-4958.74z"/>
 </g>
</svg>
