<?xml version="1.0" encoding="UTF-8"?>
<!DOCTYPE svg PUBLIC "-//W3C//DTD SVG 1.1//EN" "http://www.w3.org/Graphics/SVG/1.1/DTD/svg11.dtd">
<!-- Creator: CorelDRAW 2018 (64 Bit Versão de avaliação) -->
<svg xmlns="http://www.w3.org/2000/svg" xml:space="preserve" width="100mm" height="100mm" version="1.1" style="shape-rendering:geometricPrecision; text-rendering:geometricPrecision; image-rendering:optimizeQuality; fill-rule:evenodd; clip-rule:evenodd"
viewBox="0 0 10000 10000"
 xmlns:xlink="http://www.w3.org/1999/xlink">
 <defs>
  <style type="text/css">
   <![CDATA[
    .fil0 {fill:#6FC832}
    .fil1 {fill:#D70000}
   ]]>
  </style>
 </defs>
 <g id="Camada_x0020_1">
  <metadata id="CorelCorpID_0Corel-Layer"/>
  <g id="_2357407122832">
   <path class="fil0" d="M4272.82 386.24c-344.92,92.25 -363.12,352.45 -362.88,754.37 0.35,586.34 -122.64,1216.83 263.66,1422.38 161.9,86.15 1494.56,63.81 1620.59,34.64 322.71,-74.69 351.58,-381.75 351.39,-754.17 -0.61,-1206.31 153.32,-1476.02 -768.62,-1475.81 -232.44,0.04 -933.23,-27.13 -1104.14,18.59z"/>
   <path class="fil0" d="M6652.19 5040.29c-353.37,67.32 -385.68,367.13 -385.32,753.68 0.52,558.68 -126.02,1229.51 250.9,1427.76 164.04,86.29 1512.2,65.08 1632.39,35.08 124.41,-31.05 249.7,-148.18 297.7,-257.86 65.04,-148.65 51.44,-329.75 51.32,-502.14 -0.77,-1156.55 155.1,-1468.12 -747.07,-1467.75 -266.16,0.1 -878.98,-30.86 -1099.92,11.23z"/>
   <path class="fil0" d="M6624.93 386.79c-354.6,98.09 -358.22,367.84 -358.04,778.06 0.1,238.46 -28.49,911 23.64,1100.4 96.12,349.25 363.24,344.45 758.72,344.42 1147.32,-0.09 1450.38,179.81 1449.93,-790.45 -0.11,-246.66 29.04,-892.07 -21.11,-1088.96 -35.89,-140.95 -132.3,-260.57 -243.76,-315.08 -178.34,-87.22 -1483.67,-63.17 -1609.38,-28.39z"/>
   <path class="fil0" d="M4267.21 2734.72c-354.8,102.9 -357.47,366.1 -357.27,756.8 0.6,1174.86 -156.41,1461.55 764.17,1461.44 1162.86,-0.16 1471.77,189.04 1471.47,-782.82 -0.07,-225.06 26.68,-923.46 -18.97,-1089.33 -117.31,-426.22 -459.12,-364.83 -749.65,-364.79 -219.39,0.03 -958.1,-25.28 -1109.75,18.7z"/>
   <path class="fil0" d="M1898.06 2737.7c-353.05,99.07 -350.46,378.93 -350.38,778.06 0.29,1242.7 -131.15,1437.22 799.75,1437.19 222.95,-0.01 940.04,27.92 1108.01,-14.81 375.83,-95.59 323.13,-588.01 323.11,-792.24 -0.12,-1214.26 142.07,-1429.92 -800.98,-1429.88 -232.28,0.01 -907.24,-26.66 -1079.51,21.68z"/>
   <path class="fil0" d="M4245.5 5087.05c-326.58,92.97 -335.65,410.6 -335.56,779.62 0.14,555.85 -120.44,1197.16 269.57,1391.65 118.89,59.29 369.48,39.34 518.83,39.33 1172.81,-0.04 1447.41,180.14 1447.24,-800.84 -0.21,-1208.51 137.29,-1429.91 -792.86,-1429.88 -226.79,0.01 -943.99,-26.35 -1107.22,20.12z"/>
   <path class="fil0" d="M1895.71 9647.52l1536.16 0c124.59,-82.67 188.24,-92.47 260.92,-206.45 144.17,-226.06 85.37,-926.26 85.77,-1296.19 0.34,-316.56 -18.45,-544.31 -241.45,-680.24 -156.58,-95.45 -651.79,-52.33 -874.61,-52.33 -1176.39,0 -1124.82,-137.49 -1115.42,1654.26 2.28,434.23 173.64,463.25 348.63,580.95z"/>
   <path class="fil0" d="M4264.73 9647.52l1535.96 0c119.4,-78.26 193.47,-90.15 270.85,-226.5 63.49,-111.87 74.47,-233.49 74.42,-378.85 -0.58,-1752.55 84.69,-1629.86 -1132.55,-1629.86 -1150.61,0 -1121.8,-134.23 -1103.83,1678.48 3.92,395.76 176.61,443.3 355.15,556.73z"/>
   <path class="fil0" d="M1888.32 5083.21c-339.49,92.08 -340.71,394.42 -340.64,783.46 0.25,1235.72 -130.18,1431.01 799.75,1430.98 1182.34,-0.02 1431.25,178.67 1431.12,-800.84 -0.18,-1247.08 139.05,-1429.9 -800.98,-1429.88 -218.55,0.01 -934.52,-25.69 -1089.25,16.28z"/>
   <path class="fil1" d="M2767.57 316.58l-293.25 0c-228.25,118.19 -336.44,33.24 -659.11,388.96 -574.14,632.95 -143.29,1821.45 848.02,1796.12 1093.15,-27.93 1435.55,-1509.29 491.83,-2047.6 -141.51,-80.73 -276.24,-83.01 -387.49,-137.48z"/>
  </g>
 </g>
</svg>
