<?xml version="1.0" encoding="UTF-8"?>
<!DOCTYPE svg PUBLIC "-//W3C//DTD SVG 1.1//EN" "http://www.w3.org/Graphics/SVG/1.1/DTD/svg11.dtd">
<!-- Creator: CorelDRAW 2018 (64 Bit Versão de avaliação) -->
<svg xmlns="http://www.w3.org/2000/svg" xml:space="preserve" width="100mm" height="100mm" version="1.1" style="shape-rendering:geometricPrecision; text-rendering:geometricPrecision; image-rendering:optimizeQuality; fill-rule:evenodd; clip-rule:evenodd"
viewBox="0 0 10000 10000"
 xmlns:xlink="http://www.w3.org/1999/xlink">
 <defs>
  <style type="text/css">
   <![CDATA[
    .fil0 {fill:#263238}
    .fil2 {fill:#D02F2F}
    .fil1 {fill:#F24236}
   ]]>
  </style>
 </defs>
 <g id="Camada_x0020_1">
  <metadata id="CorelCorpID_0Corel-Layer"/>
  <g id="_2357309515456">
   <path class="fil0" d="M1802.17 6148.81c0,748.54 101.83,1157.76 438.01,1764.99 128.69,232.43 319.8,458.08 506.85,645.19 520.41,520.53 1341.9,944.86 2127.22,944.86 793.01,0 894.36,-40.81 1553.58,-305.84 130.45,-52.45 369.05,-206.19 483.95,-284.07 246.86,-167.33 600.69,-521.16 768.02,-768.02 336.74,-496.79 589.91,-1104.65 589.91,-1714.15l0 -282.96c0,-477.46 -365.04,-1339.36 -539,-1684.22 -35.96,-71.29 -49.56,-105.22 -81.62,-181.12l-497.36 -917.41 -1537.78 -2362.96c-81.87,-118.6 -153.61,-216.86 -237.33,-328.58 -85.82,-114.5 -143.32,-225.23 -340.68,-225.23 -184.96,0 -253.08,99.96 -331.5,214.19 -464.6,676.74 -917.28,1261.84 -1357.46,1997.58 -305.21,510.13 -534.86,861.51 -810.47,1412.75 -256.18,512.35 -734.34,1473.9 -734.34,2075z"/>
   <path class="fil1" d="M5037.93 8857.32l6.45 -626.77c-437.5,0 -427.82,-617.59 -5.92,-626.54 -31.37,-491.35 9.03,-1054.06 -0.9,-1556.25 -19.13,-967.66 1.16,-2142.13 1.05,-3132.72 -0.02,-234.15 16.45,-1453.21 -15.92,-1580.63l-636.95 930.62c-588.32,895.05 -1320.47,2055.38 -1708.29,3061.54 -164.89,427.79 -277.18,808.65 -200.28,1322.98 120.15,803.6 608.31,1493.31 1293.91,1875.74 385.24,214.89 757.21,315.53 1266.85,332.03z"/>
   <path class="fil2" d="M5038.46 7604.01c600.07,0 1218.48,-350.1 1486.55,-855.41 47.56,-89.63 112.02,-252.65 164.02,-321.04 149.85,-197.07 544.32,-112.42 551.51,206.63 4.22,186.91 -223.35,516.99 -308.41,642.79 -114.55,169.4 -304.39,355.85 -469.57,480.35 -346.02,260.77 -819.35,473.22 -1418.18,473.22l-6.45 626.77c472.28,-11.65 900.54,-123.11 1249.42,-324.89 700.52,-405.14 1173.79,-1032.31 1304.2,-1865.82 82.06,-524.46 -27.47,-901.87 -197.16,-1339.93 -289.73,-747.99 -707.13,-1465.06 -1086.01,-2087.29 -318.7,-523.39 -736.79,-1166.36 -1095.74,-1673.52 -55.16,-77.94 -123.97,-189.26 -189.95,-231.46 32.37,127.42 15.9,1346.48 15.92,1580.63 0.11,990.59 -20.18,2165.06 -1.05,3132.72 9.93,502.19 -30.47,1064.9 0.9,1556.25z"/>
  </g>
 </g>
</svg>
