<?xml version="1.0" encoding="UTF-8"?>
<!DOCTYPE svg PUBLIC "-//W3C//DTD SVG 1.1//EN" "http://www.w3.org/Graphics/SVG/1.1/DTD/svg11.dtd">
<!-- Creator: CorelDRAW 2018 (64 Bit Versão de avaliação) -->
<svg xmlns="http://www.w3.org/2000/svg" xml:space="preserve" width="100mm" height="100mm" version="1.1" style="shape-rendering:geometricPrecision; text-rendering:geometricPrecision; image-rendering:optimizeQuality; fill-rule:evenodd; clip-rule:evenodd"
viewBox="0 0 10000 10000"
 xmlns:xlink="http://www.w3.org/1999/xlink">
 <defs>
  <style type="text/css">
   <![CDATA[
    .fil1 {fill:#014E86}
    .fil0 {fill:#01568D}
   ]]>
  </style>
 </defs>
 <g id="Camada_x0020_1">
  <metadata id="CorelCorpID_0Corel-Layer"/>
  <g id="_2357409370336">
   <path class="fil0" d="M584.12 6796.29c99.56,-40.47 6499.93,-5038.78 6502.95,-5042.78 12.8,180.47 -716.82,3494.62 -814.78,3980.06 -133.91,663.83 -266.41,1342.73 -419.92,2005.99l-405.64 2005.41c1257.11,-72.08 2370.08,-791.61 3096.84,-1610.51 1217.13,-1371.44 1492.58,-3322.25 765.69,-5010.07 -393.48,-913.63 -1021.72,-1550.03 -1701.3,-2025.32 -1760.11,-1230.97 -4148.41,-971.65 -5641.29,276.29 -1137.72,950.99 -1797.58,2280.45 -1728.64,3907.34 15.82,373.59 173.55,1266.09 346.09,1513.59z"/>
   <path class="fil1" d="M790.47 7210.82c17.67,177.98 218.58,373.91 279.89,528.81 130.34,-54.88 446.84,-333.81 573.52,-433.03 194.32,-152.25 383.14,-299.61 567.98,-448.32 378.12,-304.17 737.01,-592.05 1116.3,-889.94 385.39,-302.72 736.64,-581.47 1117.19,-889.48l1136 -888.24 -1231.37 5544.13 611.34 37.98c49.34,-93.68 1144.83,-5338.11 1285.27,-6020.86 56.17,-273.05 150.77,-624.28 178.16,-895.42l-2817.54 2165.35c-482.94,377.97 -937.98,725.13 -1409.94,1092.33l-1406.8 1096.69z"/>
   <path class="fil1" d="M1389.73 8096.76c73.74,220.51 807.51,786 1047.11,935.98 400.74,250.86 869.13,476.08 1405.26,600.14l1160.22 -4426.91c-112.12,37.33 -532.65,410.5 -685.21,525.91l-2022.46 1626.02c-307.3,252.03 -604.42,478.18 -904.92,738.86z"/>
  </g>
 </g>
</svg>
