<?xml version="1.0" encoding="UTF-8"?>
<!DOCTYPE svg PUBLIC "-//W3C//DTD SVG 1.1//EN" "http://www.w3.org/Graphics/SVG/1.1/DTD/svg11.dtd">
<!-- Creator: CorelDRAW 2018 (64 Bit Versão de avaliação) -->
<svg xmlns="http://www.w3.org/2000/svg" xml:space="preserve" width="100mm" height="100mm" version="1.1" style="shape-rendering:geometricPrecision; text-rendering:geometricPrecision; image-rendering:optimizeQuality; fill-rule:evenodd; clip-rule:evenodd"
viewBox="0 0 10000 10000"
 xmlns:xlink="http://www.w3.org/1999/xlink">
 <defs>
  <style type="text/css">
   <![CDATA[
    .str0 {stroke:#FEFEFE;stroke-width:20;stroke-miterlimit:22.9256}
    .fil1 {fill:#25091E}
    .fil0 {fill:#C70039}
   ]]>
  </style>
 </defs>
 <g id="Camada_x0020_1">
  <metadata id="CorelCorpID_0Corel-Layer"/>
  <ellipse class="fil0 str0" cx="5194.7" cy="5115.74" rx="4201.58" ry="4265.08"/>
  <path class="fil1" d="M4994.3 87.52c2698.82,0 4886.65,2187.83 4886.65,4886.65 0,2698.82 -2187.83,4886.65 -4886.65,4886.65 -2698.82,0 -4886.65,-2187.83 -4886.65,-4886.65 0,-2698.82 2187.83,-4886.65 4886.65,-4886.65zm-2921 2972.72l0 263.11c124.77,264.52 180.66,2204.08 2158.57,3649.98 1295.18,946.81 2250.28,902.34 2497.79,1015.5l260.54 0c106.57,-49.91 295.66,-48.39 467.27,-250.71 110.46,-130.19 188.66,-296.11 197.84,-527.14 68.5,-1723.8 -357.61,-1347.42 -1285.59,-1675.04 -209.58,-74 -382.12,-88.15 -595.27,-0.71 -245.33,100.66 -258.32,234.6 -429.64,336.78 -194.83,-93.84 -524.67,-379.43 -649.98,-504.7 -153.72,-153.69 -383.42,-435.36 -511.43,-649.99 97.38,-139.73 224.77,-200.32 320.15,-400.97 90.31,-190.01 90.8,-415.36 18.73,-619.56 -135.53,-383.99 -129.7,-845.83 -375.71,-1078.89 -303.35,-287.42 -743.38,-219.8 -1242.92,-215.68 -253.74,2.07 -396.47,56.47 -552.67,177.6 -196.69,152.51 -169.51,255.48 -277.68,480.42zm5842 1416.5l0 -116.45c-106.14,-230.95 -24.97,-530.8 -473.37,-1168.89 -295.17,-420.06 -773.89,-774.02 -1296.34,-937.33 -101.47,-31.72 -397.48,-82.14 -453.62,-107.24l-134.07 0c-132.63,90.7 -276.96,230.45 -119.69,424.37 145.02,178.78 703.15,6.68 1371.17,655.64 781.37,759.08 398.44,1568.46 919.19,1438.49 104.12,-25.97 139.72,-108.03 186.73,-188.59zm-2405.88 -1267.39c-29.78,16.14 -143.98,42.04 -129.72,231.12 29.66,393.45 704.19,120.24 968.64,896.57 19.28,56.61 84.77,477.22 408.63,313.99 550.76,-277.59 -669.08,-1755.38 -1247.55,-1441.68z"/>
 </g>
</svg>
