<?xml version="1.0" encoding="UTF-8"?>
<!DOCTYPE svg PUBLIC "-//W3C//DTD SVG 1.1//EN" "http://www.w3.org/Graphics/SVG/1.1/DTD/svg11.dtd">
<!-- Creator: CorelDRAW 2018 (64 Bit Versão de avaliação) -->
<svg xmlns="http://www.w3.org/2000/svg" xml:space="preserve" width="100mm" height="100mm" version="1.1" style="shape-rendering:geometricPrecision; text-rendering:geometricPrecision; image-rendering:optimizeQuality; fill-rule:evenodd; clip-rule:evenodd"
viewBox="0 0 10000 10000"
 xmlns:xlink="http://www.w3.org/1999/xlink">
 <defs>
  <style type="text/css">
   <![CDATA[
    .str0 {stroke:#FEFEFE;stroke-width:20;stroke-miterlimit:22.9256}
    .str1 {stroke:#FEFEFE;stroke-width:20;stroke-miterlimit:22.9256}
    .fil2 {fill:#25091E}
    .fil0 {fill:#C70039}
    .fil1 {fill:#FEFEFE}
   ]]>
  </style>
 </defs>
 <g id="Camada_x0020_1">
  <metadata id="CorelCorpID_0Corel-Layer"/>
  <ellipse class="fil0 str0" cx="5194.7" cy="5115.74" rx="4201.58" ry="4265.08"/>
  <ellipse class="fil1 str1" cx="-10285.62" cy="4728.7" rx="4201.58" ry="4265.08"/>
  <path class="fil2" d="M4998.98 158.47c2698.82,0 4886.65,2187.83 4886.65,4886.65 0,2698.82 -2187.83,4886.65 -4886.65,4886.65 -2698.82,0 -4886.65,-2187.83 -4886.65,-4886.65 0,-2698.82 2187.83,-4886.65 4886.65,-4886.65zm-2148.66 2910.16c-14.26,18.72 -3.81,7.21 -21.47,23.57l-45.92 33.41c-222.67,154.84 -305.3,337.47 -355.27,371.4 -5.57,34.14 -94.17,190.68 -134.49,336.93 -73.49,266.64 -50.46,1068.74 -46.16,1365.53 4.14,285.19 93.44,531.56 224.59,722.86 95.01,138.6 314.71,373.12 506.05,433.08 -13.14,56.68 -564.4,987.19 -643.14,1116.9 -56.54,93.14 -218.39,327.64 -180.23,395.76 66.33,76.6 142.3,10.36 213.22,-27.49l2290.07 -1190.21c270.26,-138.11 237.58,-156.49 470.19,-156.4 210.58,0.07 421.13,0 631.7,0 356.56,0 902.8,38.01 1209.88,-71.53 317.77,-113.37 556.82,-324.62 695.54,-568.07 207.55,-364.23 182.41,-616.76 182.41,-1080.34 0,-208.4 5.54,-424.52 -1.16,-631.97 -10.04,-310.03 -108.21,-429.4 -110.25,-513.51 -19.93,-18.52 -5.72,-1.24 -26.03,-31.36 -29.91,-44.32 -35.5,-77.19 -101.69,-168.95 -444.84,-616.63 -992.46,-553.43 -1668.21,-553.43 -425.43,0 -850.85,0 -1276.29,0 -413.4,0 -867.85,-17.97 -1276.22,8.9 -108.5,23.63 -176.62,33.09 -285.45,70.89 -69.38,24.11 -220.94,109.93 -251.67,114.03z"/>
  <path class="fil2" d="M5037.52 5691.23c82.73,-55.27 795.37,-713.2 916.5,-812.81 627.33,-515.87 92.06,-1348.22 -558.97,-1164.5 -169.41,47.8 -252.31,143.11 -357.53,229.1 -59.66,-25.73 -381.4,-422.82 -846.03,-182.42 -223.43,115.6 -438.02,410.6 -323.93,778.52 58.32,188.05 140.19,233.41 242.56,337.11l765.06 679.03c59.26,48.12 93.33,97.82 162.34,135.97z"/>
 </g>
</svg>
