<?xml version="1.0" encoding="UTF-8"?>
<!DOCTYPE svg PUBLIC "-//W3C//DTD SVG 1.1//EN" "http://www.w3.org/Graphics/SVG/1.1/DTD/svg11.dtd">
<!-- Creator: CorelDRAW 2018 (64 Bit Versão de avaliação) -->
<svg xmlns="http://www.w3.org/2000/svg" xml:space="preserve" width="100mm" height="100mm" version="1.1" style="shape-rendering:geometricPrecision; text-rendering:geometricPrecision; image-rendering:optimizeQuality; fill-rule:evenodd; clip-rule:evenodd"
viewBox="0 0 10000 10000"
 xmlns:xlink="http://www.w3.org/1999/xlink">
 <defs>
  <style type="text/css">
   <![CDATA[
    .fil2 {fill:#571845}
    .fil1 {fill:#C70039}
    .fil0 {fill:white}
   ]]>
  </style>
 </defs>
 <g id="Camada_x0020_1">
  <metadata id="CorelCorpID_0Corel-Layer"/>
  <g id="_1353426471248">
   <path class="fil0" d="M5793.01 613c-114.09,299.72 -51.86,1862.75 -51.86,2314.89 0,801.78 0,1603.56 0,2405.34l-54.46 4.69 735.32 0 0 -4290.17c194.91,-52.92 602.59,-2.22 829.17,-17.53 309.97,-20.92 338.47,-362.98 138.6,-464.73 -129.32,-65.86 -603.17,-36.14 -812.37,-36.14 -220.57,0 -665.07,-71.97 -784.4,83.65zm-1623.08 4724.92l-323.09 -12.11 -2.61 2.87 -4.44 7.71c-58.32,63.27 -151.49,231.93 -180.17,336.69l0.1 0.03 -2.5 9.87 201.7 0 0 -345.06 311.01 0zm1571.22 380.22l-0.47 3410.76 -526.7 -1c-248.66,3.11 -568.52,-40.54 -561.19,262.02 7.17,296.58 364.44,239.93 626.58,239.86 269.92,-0.1 551.38,8 819.72,1 373.93,-9.74 321.41,-211.73 323.11,-551.3 5.56,-1100.43 -1.76,-2259.17 -1.95,-3361.34l-679.1 0z"/>
   <rect class="fil1" x="3604.71" y="5715.69" width="2150.73" height="102.3"/>
   <rect class="fil2" x="3675.47" y="5682.97" width="213.43" height="46.22"/>
   <rect class="fil1" transform="matrix(1.31805 0.333849 -0.333849 1.31805 3671.9 5669.23)" width="11.57" height="37.21"/>
   <path class="fil1" d="M5241.43 9127.9l526.71 1 0.47 -3414.18c-338.21,0 -1778.83,20.04 -2090.21,8.43 2.09,-89.55 119.86,-311.92 188.84,-386.76l1380.23 -2389.57 0.06 2384.87 521.08 1.54c0,-801.78 0,-1603.56 0,-2405.34 0,-452.14 -62.23,-2015.17 51.86,-2314.89 -91.69,59.69 -114.83,125.65 -182.34,247.23l-2457.22 4259.16c-225.01,377.79 -426.05,745.48 -651.65,1125.75l-649.39 1129c-117.18,251.69 48.39,487.77 295.32,497.5 290.72,11.46 343.63,-232.88 467.34,-440.89 116.02,-195.12 222.01,-375.89 331.55,-570.98 102.74,-183 249.62,-398.81 323.28,-578.36l1950.03 -2.22 -5.96 2848.71z"/>
   <rect class="fil0" x="3558.38" y="5287.88" width="4615.88" height="461.43"/>
   <rect class="fil1" transform="matrix(1.20276 0.661794 -0.661794 1.20276 3834.38 4573.15)" width="277.82" height="892.97"/>
  </g>
 </g>
</svg>
