<?xml version="1.0" encoding="UTF-8"?>
<!DOCTYPE svg PUBLIC "-//W3C//DTD SVG 1.1//EN" "http://www.w3.org/Graphics/SVG/1.1/DTD/svg11.dtd">
<!-- Creator: CorelDRAW 2018 (64 Bit Versão de avaliação) -->
<svg xmlns="http://www.w3.org/2000/svg" xml:space="preserve" width="100mm" height="100mm" version="1.1" style="shape-rendering:geometricPrecision; text-rendering:geometricPrecision; image-rendering:optimizeQuality; fill-rule:evenodd; clip-rule:evenodd"
viewBox="0 0 10000 10000"
 xmlns:xlink="http://www.w3.org/1999/xlink">
 <defs>
  <style type="text/css">
   <![CDATA[
    .str0 {stroke:#FEFEFE;stroke-width:20;stroke-miterlimit:22.9256}
    .str1 {stroke:#FEFEFE;stroke-width:20;stroke-miterlimit:22.9256}
    .fil2 {fill:#25091E}
    .fil0 {fill:#C70039}
    .fil1 {fill:#FEFEFE}
   ]]>
  </style>
 </defs>
 <g id="Camada_x0020_1">
  <metadata id="CorelCorpID_0Corel-Layer"/>
  <ellipse class="fil0 str0" cx="5194.7" cy="5115.74" rx="4201.58" ry="4265.08"/>
  <ellipse class="fil1 str1" cx="-10285.62" cy="4728.7" rx="4201.58" ry="4265.08"/>
  <g id="_2782605499664">
   <path class="fil2" d="M5034.64 157.8c2698.83,0 4886.65,2187.82 4886.65,4886.65 0,2698.83 -2187.82,4886.65 -4886.65,4886.65 -2698.83,0 -4886.65,-2187.82 -4886.65,-4886.65 0,-2698.83 2187.82,-4886.65 4886.65,-4886.65zm-648.36 1908.33c54.86,45.15 181.6,108.31 259.45,154.65 -10.73,60.45 -243.38,465.02 -283.28,503.82 -139.55,60.31 -1909.41,-72.16 -2126.96,50.08 -187.85,105.54 -186.85,264.37 -186.85,534.66l-0.29 3406.8c0.1,292.76 74.1,515.64 419.21,515.64l1805.46 -0.24c4.48,65.4 -146.26,293.33 -205.73,434.47l-754.83 -1.31c-78.05,5.67 -134.81,-14.33 -112.19,261.69 9.52,116.62 73.81,84.12 194.57,84.12l3285.85 0.02c123.98,-0.57 171.33,32.22 184.09,-82.5 8.58,-77 5.46,-192.95 -22.83,-251.45 -246.57,-25.4 -574.97,-11.57 -830.97,-11.07 -35.52,-98.55 -204.85,-365.66 -206.78,-433.68l1743.32 -0.05c164.42,0.02 296.59,-35.19 373.61,-121.79 134.48,-151.21 95.6,-543.87 95.64,-756.7l0.22 -346c58.57,28.21 394.69,400.97 487.59,478.04 134.86,111.93 219.43,-11.57 295.73,-88.9 341.05,-345.71 163.07,-248.55 -332.16,-782.21l-363.23 -362.9c-71.05,-63.17 -87.36,-56.33 -88,-168.02l0.12 -1955.39c0.04,-298.97 -174.84,-401.14 -469.52,-401.14l-2720.88 -0.78c31.64,-92.84 121.9,-245.81 180.9,-300.24 79.38,39.33 170.57,111.43 262.04,128.38l314.22 -534.95c-63.53,-73.9 -328.57,-216.28 -423.4,-275.38 -85.5,-53.28 -371.79,-234.83 -458.55,-246.18 -85.38,150.92 -301.33,456.13 -315.57,568.51z"/>
   <path class="fil2" d="M2471.73 6121.24l284.14 -1.1c32.69,-165.61 4.17,-1827.22 5.9,-2287.59l8.29 -97.07c1.64,-6 4.26,-11.46 6.05,-16.65l671.16 -41.31 4.69 2447.27 4131.68 -3.41c19.88,-76.33 26.73,-455.92 4.61,-531.52 -22.09,-75.52 -440.4,-462.92 -538.21,-553.4 -101.07,-93.49 -185.3,-182.54 -282.25,-282.21 -182.91,-188.09 -352.91,-365.8 -539.83,-548.75 -126.62,-123.91 -135.48,-117.12 -210.91,-333.93 -30.16,-86.69 -144.47,-340.62 -124.9,-398.02 4.31,-3.36 12.07,-12.31 14.6,-7.48l519.78 157.17c114.42,42.14 318.64,253.04 405.95,340.76 123.61,124.19 671.06,689.75 763.89,750.21l-1.14 -1566.09 -3026.78 1.77c-120.29,215.3 -251.07,437.4 -363.4,645.9 -105.6,3.23 -265.57,-98.24 -329.79,-163.91 14.29,-116.47 194.91,-349.97 246.31,-480.8l-1649.77 -1.27 -0.07 2971.43z"/>
   <path class="fil2" d="M2861.54 4005.78c119.71,37.26 139.02,-27.71 151.18,96.48l-152.26 21.36 0.43 182.4 259.86 14.86c-9.36,95.07 10.07,86.26 -86.67,93.35 -39.33,2.88 -126.59,-2.57 -171.52,-2.74l-2.67 214.84c119.36,0.61 141.81,-23.29 151.17,79.71l-150.24 25.19 0.05 180.66 259.47 16.81c-13.14,185.36 -49.24,40.84 -258.83,103.17l1.48 196.26c101.21,12.81 109.66,-23.86 151.78,56.74 -45.38,76.35 -54.43,35.59 -150.33,54.35l-3.5 178.95c74.21,20.88 80.95,8.93 152.81,10.65 106.97,2.57 97.5,-8.1 105.64,86.95l-258.69 15.76 1.6 203.09c97.04,13.65 108.9,-20.95 152.83,55 -43.83,77.26 -54.38,42.22 -149.62,55.98l-2.55 170.47 484.43 5.84 8.88 -2347.86 -495.54 0.47 0.81 231.26z"/>
   <path class="fil2" d="M6582.81 4075.35c106.26,138.43 624.5,625.21 785.26,784.45l705.47 685.21c43.64,40.12 76.11,53.83 50.02,133.92 -88.81,7.46 -87.21,-30.02 -215.69,-149.52 -34.17,-31.78 -15.86,-15.78 -48.05,-52.57 -207.19,-236.76 -700.75,-695.09 -951.3,-943.87 -88.5,-87.88 -326.26,-338.26 -409.26,-389.85 -22.16,22.4 -60.35,53.73 -89.38,93.52 175.48,203.73 651.47,639.42 848.64,853.47 67.83,73.64 136.09,140.42 210.12,213.19 83.33,81.9 125.97,131.87 212.71,210.71 37.69,34.24 67.97,57.9 102.31,98.76 126.92,150.9 149.14,145.62 260.95,262.9l67.33 63.71 262.14 -249.37c-32.29,-81.62 -767.42,-789.78 -846.04,-869.54 -144.76,-146.91 -278.02,-277.57 -423.19,-423.26 -80.26,-80.55 -372.92,-394.4 -444.33,-428.4 -42.07,45.85 -60.83,50.33 -77.71,106.54z"/>
   <path class="fil2" d="M3993.45 3591.55l156.53 91.95 751.25 -1301.46 -153.81 -103.5c-86.92,95.35 -294.38,500.85 -378.97,652.63 -123.57,221.76 -262.97,432.79 -375,660.38z"/>
   <path class="fil2" d="M6329.12 4162.4c80.55,-87.12 155.64,-166.14 260.69,-268.47 -128.45,-201.95 -307.4,-196.17 -567.37,-314.29 5.42,80.24 79.14,241.48 107.28,319.86 37.98,105.66 112.43,186.14 199.4,262.9z"/>
   <path class="fil2" d="M8329.22 6171.86c40.77,52.5 188.98,193.33 266.53,257.38 77.61,-28.48 215.21,-193.64 279.56,-257.38 -29.69,-65.55 -200.23,-218.26 -259.4,-277.78 -69.07,27 -240.73,205.61 -286.69,277.78z"/>
   <path class="fil2" d="M4647.09 1773.16l723.3 426.12c46.91,-39.72 77.69,-103.43 91.15,-159.93l-716.07 -420.71 -98.38 154.52z"/>
   <path class="fil2" d="M4509.33 2019.18l735.06 417.07c25.65,-39.52 59,-105.02 76.29,-145.83l-716.33 -420.83c-49.83,41.74 -70.73,89.16 -95.02,149.59z"/>
   <path class="fil2" d="M4960.04 6682.64c-179.02,78.28 -82.21,407.97 145.4,313.54 212.69,-88.23 81.96,-412.97 -145.4,-313.54z"/>
  </g>
 </g>
</svg>
