<?xml version="1.0" encoding="UTF-8"?>
<!DOCTYPE svg PUBLIC "-//W3C//DTD SVG 1.1//EN" "http://www.w3.org/Graphics/SVG/1.1/DTD/svg11.dtd">
<!-- Creator: CorelDRAW 2018 (64 Bit Versão de avaliação) -->
<svg xmlns="http://www.w3.org/2000/svg" xml:space="preserve" width="100mm" height="100mm" version="1.1" style="shape-rendering:geometricPrecision; text-rendering:geometricPrecision; image-rendering:optimizeQuality; fill-rule:evenodd; clip-rule:evenodd"
viewBox="0 0 10000 10000"
 xmlns:xlink="http://www.w3.org/1999/xlink">
 <defs>
  <style type="text/css">
   <![CDATA[
    .str0 {stroke:#FEFEFE;stroke-width:20;stroke-miterlimit:22.9256}
    .str1 {stroke:#FEFEFE;stroke-width:20;stroke-miterlimit:22.9256}
    .fil2 {fill:#25091E}
    .fil0 {fill:#C70039}
    .fil1 {fill:#FEFEFE}
   ]]>
  </style>
 </defs>
 <g id="Camada_x0020_1">
  <metadata id="CorelCorpID_0Corel-Layer"/>
  <ellipse class="fil0 str0" cx="4665.54" cy="4734.73" rx="4201.58" ry="4265.08"/>
  <ellipse class="fil1 str1" cx="-10285.62" cy="4728.7" rx="4201.58" ry="4265.08"/>
  <path class="fil2" d="M-9880.87 3290.44c0,0 0,0 0,0z"/>
  <path class="fil2" d="M5007.82 117.81c2698.82,0 4886.64,2187.82 4886.64,4886.64 0,2698.82 -2187.82,4886.64 -4886.64,4886.64 -2698.82,0 -4886.64,-2187.82 -4886.64,-4886.64 0,-2698.82 2187.82,-4886.64 4886.64,-4886.64zm30.3 5545.25c-468.56,0 -716.37,-143.93 -1036.01,-414.19 -146.34,-123.74 -53.35,-120.34 -279.44,-35.94 -55.81,20.82 -108.47,41.47 -164.64,63.38 -111.5,43.54 -217.79,88.51 -321.82,133.83 -273.07,118.91 -651.64,313.52 -866.81,507.86 -139.67,126.18 -220.89,454.77 -269.92,649.13 -38.5,152.69 -49.22,244.87 25.84,374.66 350.84,606.61 1914.98,839.04 2839.3,839.04 738.13,0 1405.44,-68.53 2065.58,-289.46 281.33,-94.14 543.95,-223.74 724.34,-385.59 269.32,-241.65 211.37,-436.95 88.01,-815.98 -106.26,-326.53 -196.25,-419.54 -511.52,-598.76 -400.57,-227.73 -723.15,-363.47 -1152.47,-523.54 -68.69,-25.6 -45.02,-36.47 -158.39,78.81 -38.14,38.79 -101.72,87.2 -152.9,126.41 -204.78,156.92 -489.13,290.34 -829.15,290.34zm-155.31 -3659.31c-807.69,89.38 -1423.65,837.9 -1281.12,1771.77 31.74,208.01 98.92,421.93 180.27,590.87 43.87,91.12 84.24,165.93 134.8,247.43 142.89,230.4 334.63,433.97 579.04,582.45 196.91,119.6 365.87,150.1 638.2,130.66 402.16,-28.71 764.34,-403.11 916.51,-630.94 332.94,-498.4 529.77,-1204 265.04,-1812.03 -73.02,-167.69 -187.98,-337.04 -311.55,-460.24 -36.56,-36.42 -56.85,-56.55 -99.02,-92.02 -261.57,-220.01 -667.13,-367.26 -1022.17,-327.95z"/>
 </g>
</svg>
