<?xml version="1.0" encoding="UTF-8"?>
<!DOCTYPE svg PUBLIC "-//W3C//DTD SVG 1.1//EN" "http://www.w3.org/Graphics/SVG/1.1/DTD/svg11.dtd">
<!-- Creator: CorelDRAW 2018 (64 Bit Versão de avaliação) -->
<svg xmlns="http://www.w3.org/2000/svg" xml:space="preserve" width="100mm" height="100mm" version="1.1" style="shape-rendering:geometricPrecision; text-rendering:geometricPrecision; image-rendering:optimizeQuality; fill-rule:evenodd; clip-rule:evenodd"
viewBox="0 0 10000 10000"
 xmlns:xlink="http://www.w3.org/1999/xlink">
 <defs>
  <style type="text/css">
   <![CDATA[
    .str0 {stroke:#FEFEFE;stroke-width:20;stroke-miterlimit:22.9256}
    .str1 {stroke:#25091E;stroke-width:20;stroke-miterlimit:22.9256}
    .fil3 {fill:none}
    .fil0 {fill:#FEFEFE}
    .fil2 {fill:#25091E}
    .fil1 {fill:#C70039}
   ]]>
  </style>
   <clipPath id="id0">
    <path d="M4972.31 63.15c2698.83,0 4886.65,2187.82 4886.65,4886.65 0,2698.83 -2187.82,4886.65 -4886.65,4886.65 -2698.83,0 -4886.65,-2187.82 -4886.65,-4886.65 0,-2698.83 2187.82,-4886.65 4886.65,-4886.65z"/>
   </clipPath>
 </defs>
 <g id="Camada_x0020_1">
  <metadata id="CorelCorpID_0Corel-Layer"/>
  <g>
  </g>
  <g style="clip-path:url(#id0)">
   <g>
    <rect class="fil0 str0" x="-1085.35" y="-1109.7" width="13970" height="12361.34"/>
    <ellipse class="fil1" cx="2263.21" cy="4001.32" rx="4413.63" ry="4480.33"/>
    <path class="fil2" d="M2018.8 3791.95c0,0 0,0 0,0z"/>
    <path class="fil2" d="M4963.28 3316.26c0,0 0,0 0,0z"/>
    <path class="fil2" d="M4972.31 63.15c2698.82,0 4886.65,2187.83 4886.65,4886.65 0,2698.82 -2187.83,4886.65 -4886.65,4886.65 -2698.82,0 -4886.65,-2187.83 -4886.65,-4886.65 0,-2698.82 2187.83,-4886.65 4886.65,-4886.65zm-2783.41 2799.39l0 4248.19c0,233.43 119.77,387.84 357.98,387.84l4844.88 0c225.61,0 363.97,-146.22 363.97,-387.84l0 -4272.06c0,-260.92 -140.58,-393.76 -411.7,-393.76l-4785.21 0c-243.42,0 -369.92,159.45 -369.92,417.63z"/>
    <polygon class="fil2" points="2594.63,7098.72 7344.02,7098.72 7355.87,3644.15 7296.29,3644.15 2666.22,3644.15 2594.63,3644.15 "/>
    <path class="fil0" d="M5179.35 4269.95c-102.32,58.69 -77.28,60.65 -137.88,250.36l-477.5 1479.64c-31.91,96.71 -88.16,212.22 -55.05,315.65 35.44,110.76 189.52,139.73 281.66,79.34 93.59,-61.34 343.48,-958.43 404.78,-1146.54 46.81,-143.63 281.93,-770.18 245.37,-889.38 -31,-101.07 -143.19,-156.85 -261.38,-89.07z"/>
    <path class="fil0" d="M3903.72 5346.53c4.62,-4.15 12.16,-16.15 14.59,-11.59l502.05 -241.42c223.03,-118.86 100.8,-433.07 -149.17,-340.69 -175.9,65 -351.67,166.43 -524.45,241.93 -149.18,65.2 -454.92,165.75 -465.81,326.34 -13.88,204.66 271.05,266.09 428.17,339.82 179.54,84.24 340.74,164.57 519.7,245.21 286.12,128.91 408.25,-183.8 214.41,-309.2 -107.9,-69.8 -414.59,-196.64 -539.49,-250.4z"/>
    <path class="fil0" d="M6045.11 5336.44c-124.22,84.16 -372.14,170.19 -516.97,246.41 -221.1,116.36 -111.7,439.73 165.83,330.86 170.67,-66.95 365.75,-167.95 540.02,-247.83 92.82,-42.54 171.65,-82.16 261.11,-121.36 102.16,-44.78 181.34,-85.63 172.49,-220.35 -11.81,-179.58 -285.64,-246.5 -440.9,-317.65 -168.03,-77.02 -364.59,-180.64 -539.58,-249.18 -257.05,-100.68 -375.2,213.31 -164.04,331.32 169.69,94.83 357.3,149.48 522.04,247.78z"/>
    <path class="fil2" d="M6986.03 3077.33c0,210.07 109.02,247.89 340.1,167.07 83.18,-243.17 35.44,-358 -196.91,-358 -135.02,0 -143.19,57.08 -143.19,190.93z"/>
    <path class="fil2" d="M6437.1 3220.51c82.77,79.22 203.72,63.25 316.24,23.89 158.98,-464.77 -290.16,-404.51 -330.69,-278.64 -24.61,76.46 -16.71,186 14.45,254.75z"/>
    <path class="fil2" d="M5864.31 3220.51c67.81,64.91 192.53,74.07 286.4,29.81 102.44,-107.35 107.88,-349.11 -95.79,-365.33 -233.68,-18.62 -272.09,155.77 -190.61,335.52z"/>
   </g>
  </g>
  <path class="fil3 str1" d="M4972.31 63.15c2698.83,0 4886.65,2187.82 4886.65,4886.65 0,2698.83 -2187.82,4886.65 -4886.65,4886.65 -2698.83,0 -4886.65,-2187.82 -4886.65,-4886.65 0,-2698.83 2187.82,-4886.65 4886.65,-4886.65z"/>
 </g>
</svg>
