<?xml version="1.0" encoding="UTF-8"?>
<!DOCTYPE svg PUBLIC "-//W3C//DTD SVG 1.1//EN" "http://www.w3.org/Graphics/SVG/1.1/DTD/svg11.dtd">
<!-- Creator: CorelDRAW 2018 (64 Bit Versão de avaliação) -->
<svg xmlns="http://www.w3.org/2000/svg" xml:space="preserve" width="100mm" height="100mm" version="1.1" style="shape-rendering:geometricPrecision; text-rendering:geometricPrecision; image-rendering:optimizeQuality; fill-rule:evenodd; clip-rule:evenodd"
viewBox="0 0 10000 10000"
 xmlns:xlink="http://www.w3.org/1999/xlink">
 <defs>
  <style type="text/css">
   <![CDATA[
    .str1 {stroke:#25091E;stroke-width:75;stroke-miterlimit:22.9256}
    .str0 {stroke:#FEFEFE;stroke-width:20;stroke-miterlimit:22.9256}
    .str2 {stroke:#25091E;stroke-width:20;stroke-miterlimit:22.9256}
    .fil3 {fill:none}
    .fil0 {fill:#FEFEFE}
    .fil2 {fill:#25091E}
    .fil1 {fill:#C70039}
   ]]>
  </style>
   <clipPath id="id0">
    <path d="M4972.31 63.15c2698.83,0 4886.65,2187.82 4886.65,4886.65 0,2698.83 -2187.82,4886.65 -4886.65,4886.65 -2698.83,0 -4886.65,-2187.82 -4886.65,-4886.65 0,-2698.83 2187.82,-4886.65 4886.65,-4886.65z"/>
   </clipPath>
 </defs>
 <g id="Camada_x0020_1">
  <metadata id="CorelCorpID_0Corel-Layer"/>
  <g>
  </g>
  <g style="clip-path:url(#id0)">
   <g>
    <rect class="fil0 str0" x="-1085.35" y="-1109.7" width="13970" height="12361.34"/>
    <ellipse class="fil1 str0" cx="2263.21" cy="4001.32" rx="4413.63" ry="4480.33"/>
    <path class="fil2 str1" d="M4978.5 31.47c2729.85,0 4942.83,2204.69 4942.83,4924.3 0,2719.62 -2212.98,4924.31 -4942.83,4924.31 -2729.85,0 -4942.84,-2204.69 -4942.84,-4924.31 0,-2719.61 2212.99,-4924.3 4942.84,-4924.3zm-651.74 4065.41c0,-417.43 47.91,-571.84 307.07,-897.47 41.08,-51.6 84.7,-79.24 136.22,-121.92 292.93,-242.63 858.67,-301.19 1203.14,-128 301.05,151.42 642.22,509.85 642.22,889.3 0,474.12 4.61,662.91 -348.11,1011.3 -512.81,506.57 -1449.17,394.76 -1822.76,-320.31 -56.2,-107.53 -117.78,-275.15 -117.78,-432.9zm1080.16 -2529.54l126.79 0c335.63,8.26 667.31,81.58 950.03,217.71 532.02,256.22 878.49,605.55 1141.23,1130.22 199.05,397.54 229.44,605.73 229.44,1078.37 0,821.07 -632.64,1643.68 -1165.74,2241.48l-171.19 207.38c-62.6,74.4 -107.27,134.77 -173.05,205.5 -36.17,38.89 -49.17,62.08 -85.94,103.34 -116.25,130.58 -708.44,860.47 -778.78,907.61l-1632.52 -1826.31c-59.02,-73.99 -105.16,-135.36 -164.5,-214.03 -107.28,-142.26 -210.18,-299.8 -296.71,-460.47 -181.29,-336.69 -298.19,-723.3 -298.19,-1233.32 0,-482.93 147.07,-945.95 427.51,-1327.73 121.28,-165.07 199.66,-248.62 342.71,-380 182.68,-167.69 348.13,-305.71 577.57,-420.49 290.69,-145.39 630.16,-221.05 971.34,-229.26zm-2803.56 4576.27c47.5,-73.11 80.78,-242.48 -32.09,-333.94 -104.95,-85.07 -304.83,-163.49 -410.04,-200.64 -274.33,-96.85 -315.38,-103.82 -429.35,71.47 -76.47,117.59 -13.07,264.97 55.47,320.51 71.2,57.7 532.18,229.56 627.76,243.27 65.45,9.4 139.65,-25.94 188.25,-100.67zm-1230.75 -447.72c108.5,-141.65 113.59,-273.99 -19.04,-399.55 -74.91,-70.95 -391.11,-115.7 -495.39,-129.26 -73.99,-9.6 -173.06,-15.51 -242.37,13.9 -139.72,59.36 -232.97,337.5 14.89,460.7 66.77,33.22 394.86,83.26 493.56,102.13 69.7,13.33 191.78,25.97 248.35,-47.92zm3269.88 2080.53c282.97,-307.51 -107.63,-503.28 -312.26,-651.1 -240.76,-173.87 -291.64,-162.56 -435.16,-6.61 -53.31,57.92 -52.59,226.02 -6.08,278.8 130.98,148.63 244.73,220.95 403.02,327.88 83.43,56.36 239.06,172.07 350.48,51.03zm1325.38 219.62c29.98,-199.56 -53.5,-274.05 -189.62,-309.33 -123.07,-31.93 -353.7,-21.32 -459.79,-18 -150.55,4.71 -309.17,8.35 -338.18,201.37 -15.78,105.09 68.27,251.85 157.5,274.99 183.12,47.48 325.72,39.89 509.02,32.52 142.8,-5.71 294.48,-4.62 321.07,-181.55zm-2379.5 -1015.87c53.55,-58.2 84.58,-89.29 92,-195.4 10.81,-154.26 -139.05,-244.54 -239.82,-319.93 -101.24,-75.74 -271.47,-207.43 -379.76,-242.7 -125.34,-40.83 -276.4,116.49 -269.1,249.17 12.02,218.32 253.24,337.31 429.32,465 99.72,72.33 266.7,153.25 367.36,43.86zm5508.32 -1116.45c-160.33,-52.39 -782.56,238.7 -856.95,405.16 -50.55,113.06 1.94,220.78 110.61,272.02 170.04,80.18 275.19,-33.2 463.38,-113.59 58.85,-25.13 94.29,-38.3 151.41,-71.1 97.36,-55.9 380.09,-141.23 266.28,-368.25 -20.91,-41.69 -73.17,-104.15 -134.73,-124.24zm-960.32 733.47c-177.08,-84.93 -311.82,28.11 -439.47,120.09 -67.57,48.68 -122.56,87.63 -189.54,142.09 -127.99,104.07 -351.65,262.64 -123.19,454.96 92.72,78.08 223.17,45.44 310.26,-6.63 121.94,-72.91 456.62,-301.91 537.35,-433.08 50.53,-82.1 -9.15,-236.07 -95.41,-277.43zm-921.34 901.09c-123.05,-399.36 -488.97,-160.59 -719.74,-58.29 -271.49,120.35 -287.35,170.01 -224.95,372.55 23.17,75.23 168.75,159.29 237.76,145.7 194.37,-38.25 314.16,-100.06 486.28,-182.94 90.7,-43.66 269.09,-119.78 220.65,-277.02z"/>
   </g>
  </g>
  <path class="fil3 str2" d="M4972.31 63.15c2698.83,0 4886.65,2187.82 4886.65,4886.65 0,2698.83 -2187.82,4886.65 -4886.65,4886.65 -2698.83,0 -4886.65,-2187.82 -4886.65,-4886.65 0,-2698.83 2187.82,-4886.65 4886.65,-4886.65z"/>
 </g>
</svg>
