<?xml version="1.0" encoding="UTF-8"?>
<!DOCTYPE svg PUBLIC "-//W3C//DTD SVG 1.1//EN" "http://www.w3.org/Graphics/SVG/1.1/DTD/svg11.dtd">
<!-- Creator: CorelDRAW 2018 (64 Bit Versão de avaliação) -->
<svg xmlns="http://www.w3.org/2000/svg" xml:space="preserve" width="100mm" height="100mm" version="1.1" style="shape-rendering:geometricPrecision; text-rendering:geometricPrecision; image-rendering:optimizeQuality; fill-rule:evenodd; clip-rule:evenodd"
viewBox="0 0 10000 10000"
 xmlns:xlink="http://www.w3.org/1999/xlink">
 <defs>
  <style type="text/css">
   <![CDATA[
    .str0 {stroke:#FEFEFE;stroke-width:20;stroke-miterlimit:22.9256}
    .fil1 {fill:#25091E}
    .fil0 {fill:#C70039}
   ]]>
  </style>
 </defs>
 <g id="Camada_x0020_1">
  <metadata id="CorelCorpID_0Corel-Layer"/>
  <ellipse class="fil0 str0" cx="4944.26" cy="4920.97" rx="4455.33" ry="4522.67"/>
  <path class="fil1" d="M-5643.38 -568.9c0,0 0,0 0,0z"/>
  <g id="_2782665254784">
   <path class="fil1" d="M4999.98 51.31c2698.82,0 4886.65,2187.83 4886.65,4886.65 0,2698.82 -2187.83,4886.65 -4886.65,4886.65 -2698.82,0 -4886.65,-2187.83 -4886.65,-4886.65 0,-2698.82 2187.83,-4886.65 4886.65,-4886.65zm-1536.98 7768.04l2699.77 -0.05c5.42,-59.22 -121.83,-597.97 -139.07,-728.14 447.12,-38.75 672.4,99.09 927.12,-173.58 202.95,-217.26 60.78,-738.44 114.99,-992.99 125.51,-7 372.19,28.87 456.08,-39.96 119.35,-97.94 54,-236.09 16.16,-381.36 -69.48,-266.85 -134.26,-526.49 -205.86,-793.35 -139.14,-518.6 -245.73,-1074.2 -485.67,-1511.53 -153.81,-280.35 -185.26,-307.64 -352.96,-517.95 -20.53,-25.75 -41.75,-39.66 -63.92,-63.85 -623.87,-680.89 -1787.4,-819.71 -2609.15,-356.82 -241.67,136.13 -438.65,294.74 -616.41,501.65 -92.84,108.07 -81.26,101.94 -165.21,218.66 -247.15,343.67 -481.85,1069.97 -310.55,1588.18 49.29,149.09 227.32,533.25 299.94,698.3 314.59,715.02 431.16,1272.13 443.32,2060.85 1.27,82.49 1.24,165.02 -0.5,247.51 -1.46,69.66 -14.13,181.5 -8.08,244.43z"/>
   <path class="fil1" d="M4962.03 5545.98c32.85,-23.22 836.02,-1000.9 924.42,-1101.26 68.46,-77.71 157.24,-183.52 200.47,-276.69 169.06,-364.31 -24.51,-724.93 -263.36,-859.7 -230.49,-130.05 -502.94,-86.88 -690.04,93.72 -38.79,37.44 -42.32,38.18 -72.5,81.03 -117.11,166.25 -183.98,-0.22 -264.5,-78.31 -48.76,-47.3 -107.29,-92.61 -188.9,-126.98 -505.3,-212.8 -1002.38,339.53 -769.87,889.54 34.42,81.42 78.98,127.13 123.38,183.67l924.06 1107.24c25.91,28.69 48.74,63.34 76.84,87.74z"/>
  </g>
  <path class="fil1" d="M-7176.97 3452.88c0,0 0,0 0,0z"/>
 </g>
</svg>
