<?xml version="1.0" encoding="UTF-8"?>
<!DOCTYPE svg PUBLIC "-//W3C//DTD SVG 1.1//EN" "http://www.w3.org/Graphics/SVG/1.1/DTD/svg11.dtd">
<!-- Creator: CorelDRAW 2018 (64 Bit Versão de avaliação) -->
<svg xmlns="http://www.w3.org/2000/svg" xml:space="preserve" width="100mm" height="100mm" version="1.1" style="shape-rendering:geometricPrecision; text-rendering:geometricPrecision; image-rendering:optimizeQuality; fill-rule:evenodd; clip-rule:evenodd"
viewBox="0 0 10000 10000"
 xmlns:xlink="http://www.w3.org/1999/xlink">
 <defs>
  <style type="text/css">
   <![CDATA[
    .str0 {stroke:white;stroke-width:100;stroke-miterlimit:22.9256}
    .fil9 {fill:#36D39A}
    .fil11 {fill:#423E4F}
    .fil3 {fill:#60D8A7}
    .fil10 {fill:#81DDFD}
    .fil5 {fill:#A4E5FE}
    .fil4 {fill:#B493DB}
    .fil7 {fill:#F9D888}
    .fil6 {fill:#F9E0BD}
    .fil12 {fill:#F9ED96}
    .fil0 {fill:#FBF0CE}
    .fil1 {fill:#FD5F7E}
    .fil2 {fill:#FF758E}
    .fil8 {fill:#FF9DB0}
   ]]>
  </style>
 </defs>
 <g id="Camada_x0020_1">
  <metadata id="CorelCorpID_0Corel-Layer"/>
  <path class="fil0 str0" d="M3380.47 5165.74c-270.56,162.79 -482.39,317.73 -658.59,535.27 -132.91,164.07 -354.48,497.16 -412.87,769.76 -250.67,-19.46 -342.06,-14.32 -588.9,2.2 -23.4,-7.79 -17.44,-12.32 -19.02,11.91 -7.83,255.38 -14.83,464.61 11.94,721.48 11.25,107.94 24.98,205.21 45.03,311.15 24.17,127.7 27.78,241.09 92.18,276.65 218.76,-128.29 387.13,-137.37 659.04,-80.51 -5.86,-146.85 -33.17,-533.98 206.5,-404.09 79.54,43.1 67.9,136.92 67.83,246.41 -0.07,138.01 -1.74,191.46 -61.31,261.59 71.64,103.97 118.32,98.13 171.27,243.26 43.13,118.21 28.2,237.79 -23.82,341.71 -81.15,162.11 -270.63,284.39 -512.12,317.06 -63.35,31.17 -70.34,25.39 -151.24,24.45 86.73,136.6 155.41,255.05 247.1,381.77l288.53 358.6 56.84 0 56.85 0 56.84 0 56.84 0 56.85 0 56.85 0 56.84 0 56.84 0 56.85 0 56.85 0 56.84 0 56.84 0 56.85 0 56.85 0 56.84 0 56.85 0 56.84 0 56.84 0 56.85 0 56.85 0 56.84 0 56.84 0 56.85 0 56.85 0 56.84 0 56.84 0 56.85 0 56.84 0 56.85 0 56.85 0 56.84 0 56.84 0 56.85 0 56.85 0 56.84 0 56.84 0 56.85 0 56.84 0 56.85 0 56.84 0 56.85 0 56.84 0 56.85 0 56.85 0 56.84 0 56.84 0 56.85 0 56.84 0 56.85 0 56.85 0 56.84 0 56.84 0 56.85 0 56.85 0 56.84 0 56.84 0 56.85 0 56.84 0 56.85 0 56.85 0 56.84 0 56.84 0 56.85 0 56.85 0c384.22,0 498.08,-12.76 755.76,-154.8 574.98,-316.96 757.11,-1154.83 318.51,-1705.07 -38.92,-48.83 -75.1,-69.81 -110.14,-121.76 -101.05,-36.1 -176.65,-231.24 -712.72,-305.19 -2.03,-310.26 -36.92,-451.09 -93.92,-734.1 -44.59,-89 -77.27,-204.02 -122.48,-298.99 -111.01,-233.2 -180.94,-314.96 -334.57,-504.68 -71.48,-88.28 -140.18,-136.49 -203.72,-212.59 -58.09,-29.19 -151.7,-116.32 -222.44,-164.56 -73.84,-50.35 -163.09,-101.25 -249.11,-143.78 -170.77,-84.44 -366.3,-151.48 -573.97,-194.1 -562.54,-75.46 -1007.18,-9.12 -1450.83,220.95z"/>
  <path class="fil1 str0" d="M1720.11 6542.97c246.84,-16.52 338.23,-21.66 588.9,-2.2 58.39,-272.6 279.96,-605.69 412.87,-769.76 176.2,-217.54 388.03,-372.48 658.59,-535.27 143.51,-361.46 535.03,-918.25 770.92,-1213.38 202.05,-252.79 721.36,-807.13 995.9,-991.72l-4.08 -10.48c-3.53,-224.09 -47.09,-450.59 -45.83,-696.83 1.21,-236.25 53.36,-488.61 51.82,-696.25 -504.72,258.06 -1142.89,887.25 -1550.07,1289.82 -54.98,54.36 -73.82,89.45 -124.82,143.01 -296.62,311.45 -664.51,866.35 -873.71,1215.25 -250.21,417.28 -493.07,965.36 -650.65,1438.3l-229.84 829.51z"/>
  <path class="fil2 str0" d="M5149.2 1637.08c1.54,207.64 -50.61,460 -51.82,696.25 -1.26,246.24 42.3,472.74 45.83,696.83l415.95 -303.4c140.64,-91.47 278.86,-186.34 437.12,-277.24 1038.28,-596.37 2179.65,-905.18 3436.9,-889.05l0 -1137.48c-1094.84,0 -2177.72,176.81 -3154.13,613.13 -213.72,95.5 -959.63,446.4 -1129.85,600.96z"/>
  <path class="fil3 str0" d="M5507.58 4143.98l-5.27 16.69c62.14,30.9 78.55,119.58 152.27,246.49 51.55,88.72 91.09,162.43 148.1,244.67 119.55,172.43 224.66,314.67 342.79,463.88l24.32 0c47.62,-63.7 84.1,-92.86 140.97,-146.72 174.75,-165.52 257.33,-245.97 463.53,-393.35 217.11,-155.19 456.79,-305.9 732.56,-428.19 618.97,-274.48 1162.83,-394.19 1926.33,-393.87l0 -1136.78c-1332.11,5.07 -2563.56,390.75 -3552.28,1208.68l-373.32 318.5z"/>
  <path class="fil4 str0" d="M7008.77 5787.77c-80.7,82.37 -170.83,184.9 -248.47,283.11 -53.89,68.19 -177.52,276.41 -222.71,312.61 57,283.01 91.89,423.84 93.92,734.1 536.07,73.95 611.67,269.09 712.72,305.19 12.17,-146.99 206.64,-488.9 282.88,-592.18 255.88,-346.59 595.93,-627.44 1017.95,-767.48 266.96,-88.6 428.43,-104.59 788.12,-104.59l0 -1145.4c-803.46,-8.01 -1359.67,179.2 -1968.68,587.47 -92.88,62.26 -158.25,125.6 -239.64,188.59 -85.01,65.8 -135.75,142.96 -216.09,198.58z"/>
  <path class="fil5 str0" d="M6169.79 5115.71c39.25,117.54 475.67,495.3 588.71,580.11 63.98,48 172.42,140.72 250.27,171.95 80.34,-55.62 131.08,-132.78 216.09,-198.58 81.39,-62.99 146.76,-126.33 239.64,-188.59 609.01,-408.27 1165.22,-595.48 1968.68,-587.47l0 -1139.55c-763.5,-0.32 -1307.36,119.39 -1926.33,393.87 -275.77,122.29 -515.45,273 -732.56,428.19 -206.2,147.38 -288.78,227.83 -463.53,393.35 -56.87,53.86 -93.35,83.02 -140.97,146.72z"/>
  <path class="fil6 str0" d="M2742.02 9484.41l-288.53 -358.6c-91.69,-126.72 -160.37,-245.17 -247.1,-381.77 80.9,0.94 87.89,6.72 151.24,-24.45 -319.45,11.61 -566.53,-88.98 -681.99,-279.75 -168.67,-278.69 -2.97,-523.62 174.6,-645.68 -64.4,-35.56 -68.01,-148.95 -92.18,-276.65 -20.05,-105.94 -33.78,-203.21 -45.03,-311.15 -26.77,-256.87 -19.77,-466.1 -11.94,-721.48 -175.09,4 -448.6,157.23 -562.68,239.6 -532.6,384.59 -775.29,1076.66 -563.38,1708.93 132.75,396.1 366.39,675.38 728.68,878.21 201.47,112.79 420.96,157.15 651.93,172.79l786.38 0z"/>
  <path class="fil7 str0" d="M3380.47 5165.74c443.65,-230.07 888.29,-296.41 1450.83,-220.95 82.91,-141.39 210.26,-278.55 316.25,-405.93 109.7,-131.84 234.8,-268.72 354.76,-378.19l5.27 -16.69c-46.26,-166.12 -150.94,-364.67 -211.3,-557.82 -68.49,-219.16 -98.87,-399.17 -148.99,-625.52 -274.54,184.59 -793.85,738.93 -995.9,991.72 -235.89,295.13 -627.41,851.92 -770.92,1213.38z"/>
  <path class="fil8 str0" d="M5361.36 7806.46c-27.35,87.97 -403,340.86 -34.03,730.87 179.68,189.91 556.93,251.2 841.85,111.52 607.88,-297.99 304.49,-1105.37 -579.44,-938.21 0,-76.99 18.46,-248.54 -13.61,-304.65 19.72,187.06 35.62,536.8 -214.77,400.47z"/>
  <path class="fil8 str0" d="M1850.24 7794.16c-177.57,122.06 -343.27,366.99 -174.6,645.68 115.46,190.77 362.54,291.36 681.99,279.75 241.49,-32.67 430.97,-154.95 512.12,-317.06 52.02,-103.92 66.95,-223.5 23.82,-341.71 -52.95,-145.13 -99.63,-139.29 -171.27,-243.26 -139.14,36.26 -177.97,12.17 -213.02,-103.91 -271.91,-56.86 -440.28,-47.78 -659.04,80.51z"/>
  <path class="fil9 str0" d="M4831.3 4944.79c207.67,42.62 403.2,109.66 573.97,194.1 86.02,42.53 175.27,93.43 249.11,143.78 70.74,48.24 164.35,135.37 222.44,164.56 49.42,-77.14 77.28,-104.14 132.62,-172.02 43.26,-53.07 110.81,-109.67 136.03,-159.5 -118.13,-149.21 -223.24,-291.45 -342.79,-463.88 -57.01,-82.24 -96.55,-155.95 -148.1,-244.67 -73.72,-126.91 -90.13,-215.59 -152.27,-246.49 -119.96,109.47 -245.06,246.35 -354.76,378.19 -105.99,127.38 -233.34,264.54 -316.25,405.93z"/>
  <path class="fil10 str0" d="M5876.82 5447.23c63.54,76.1 132.24,124.31 203.72,212.59 153.63,189.72 223.56,271.48 334.57,504.68 45.21,94.97 77.89,209.99 122.48,298.99 45.19,-36.2 168.82,-244.42 222.71,-312.61 77.64,-98.21 167.77,-200.74 248.47,-283.11 -77.85,-31.23 -186.29,-123.95 -250.27,-171.95 -113.04,-84.81 -549.46,-462.57 -588.71,-580.11l-24.32 0c-25.22,49.83 -92.77,106.43 -136.03,159.5 -55.34,67.88 -83.2,94.88 -132.62,172.02z"/>
  <path class="fil11 str0" d="M3618.21 7572.98c-322.36,155.21 382.23,692.2 861.84,243.82 125.89,-117.7 58,-230 -18.54,-254.64 -174.07,-56.05 -260.07,278.99 -578.61,117.11 -85.18,-43.28 -50.42,-42.61 -107.84,-89.04 -49.47,-40 -92.51,-48.23 -156.85,-17.25z"/>
  <path class="fil11 str0" d="M2509.28 7713.65c35.05,116.08 73.88,140.17 213.02,103.91 59.57,-70.13 61.24,-123.58 61.31,-261.59 0.07,-109.49 11.71,-203.31 -67.83,-246.41 -239.67,-129.89 -212.36,257.24 -206.5,404.09z"/>
  <path class="fil11 str0" d="M5361.36 7806.46c250.39,136.33 234.49,-213.41 214.77,-400.47 -50.05,-157.77 -221.11,-141.23 -260.1,-21.4 -15.35,47.18 -9.89,169.84 -9.94,225.68 -0.1,112.06 -2.48,125.63 55.27,196.19z"/>
  <path class="fil12 str0" d="M5143.21 2960.16l4.08 10.48c50.12,226.35 80.5,406.36 148.99,625.52 60.36,193.15 165.04,391.7 211.3,557.82l373.32 -318.5c988.72,-817.93 2220.17,-1203.61 3552.28,-1208.68l0 -1136.33c-1257.25,-16.13 -2398.62,292.68 -3436.9,889.05 -158.26,90.9 -296.48,185.77 -437.12,277.24l-415.95 303.4z"/>
 </g>
</svg>
