<?xml version="1.0" encoding="UTF-8"?>
<!DOCTYPE svg PUBLIC "-//W3C//DTD SVG 1.1//EN" "http://www.w3.org/Graphics/SVG/1.1/DTD/svg11.dtd">
<!-- Creator: CorelDRAW 2018 (64 Bit Versão de avaliação) -->
<svg xmlns="http://www.w3.org/2000/svg" xml:space="preserve" width="100mm" height="100mm" version="1.1" style="shape-rendering:geometricPrecision; text-rendering:geometricPrecision; image-rendering:optimizeQuality; fill-rule:evenodd; clip-rule:evenodd"
viewBox="0 0 10000 10000"
 xmlns:xlink="http://www.w3.org/1999/xlink">
 <defs>
  <style type="text/css">
   <![CDATA[
    .fil1 {fill:#571845}
    .fil0 {fill:#C60038}
   ]]>
  </style>
 </defs>
 <g id="Camada_x0020_1">
  <metadata id="CorelCorpID_0Corel-Layer"/>
  <path class="fil0" d="M5440.89 5957.09c-107.72,-24.59 -461.78,-320.73 -576.84,-423.27 -149.6,-133.31 -542.68,-604.47 -584.52,-729.45 113.93,-175.3 493.21,-387.81 361.11,-927.19 -21.17,-86.46 -52.98,-163.9 -75.93,-254.27 -186.35,-733.95 -116.58,-1165.81 -1239.88,-1138.95 -194.33,4.65 -450.97,-5.83 -627.53,46.89 -160.96,48.07 -329.39,179.08 -394.03,287.93 -42.48,71.53 -63.61,152.08 -96.34,233.34 -106.63,264.76 2.59,528.07 72.1,847.4 78.09,358.7 186.77,712.53 324.08,1026.77 536.56,1227.92 1495.84,2154 2686.77,2709.35 308.12,143.68 661.22,257.25 1021.93,331.58l562.88 111.54c186.5,3.9 398.03,-29.42 550.06,-138.44 309.37,-221.85 333.44,-532.24 329.1,-1019.89 -3.72,-418.13 -37.95,-851.47 -331.54,-1017.49 -146.7,-82.95 -333.7,-114.12 -515.64,-154.65 -468.85,-104.44 -683.76,-290.56 -1091.88,-99.79 -177.78,83.1 -213.69,210.17 -373.9,308.59z"/>
  <path class="fil1" d="M8006.99 4522.23c0,-91.39 -73.74,-364.98 -104.29,-487.24 -35.6,-142.5 -94.28,-289.2 -156.2,-407.6 -314.35,-601.08 -862.95,-1102.01 -1531.41,-1289.84 -146.6,-41.2 -387.91,-101.3 -527.24,-101.3 -77.25,0 -339.9,197.19 -169.08,409.48 175.03,217.52 717.25,12.25 1397.77,682.99 207.33,204.35 398.2,500.8 502.61,884.82 40.59,149.33 86.93,439.73 178.53,514.88 164.64,135.08 409.31,-41.92 409.31,-206.19z"/>
  <path class="fil1" d="M5705.95 3264.57c-102.94,21.68 -198.72,62.83 -225.48,156.68 -101.9,357.31 377.84,368.94 601.8,518.37 150.56,100.45 250.04,221.92 332.44,419.66 71.34,171.21 95.94,467.99 353.69,410.98 699.19,-154.66 -431.87,-1638.45 -1062.45,-1505.69z"/>
 </g>
</svg>
