<?xml version="1.0" encoding="UTF-8"?>
<!DOCTYPE svg PUBLIC "-//W3C//DTD SVG 1.1//EN" "http://www.w3.org/Graphics/SVG/1.1/DTD/svg11.dtd">
<!-- Creator: CorelDRAW 2018 (64 Bit Versão de avaliação) -->
<svg xmlns="http://www.w3.org/2000/svg" xml:space="preserve" width="65mm" height="95mm" version="1.1" style="shape-rendering:geometricPrecision; text-rendering:geometricPrecision; image-rendering:optimizeQuality; fill-rule:evenodd; clip-rule:evenodd"
viewBox="0 0 6500 9500"
 xmlns:xlink="http://www.w3.org/1999/xlink">
 <defs>
  <style type="text/css">
   <![CDATA[
    .str0 {stroke:#110239;stroke-width:20;stroke-miterlimit:22.9256}
    .fil0 {fill:#110239}
    .fil1 {fill:#900C3E}
    .fil2 {fill:#D0D1DE}
   ]]>
  </style>
 </defs>
 <g id="Camada_x0020_1">
  <metadata id="CorelCorpID_0Corel-Layer"/>
  <path class="fil0 str0" d="M1065.13 4596.08c296.61,-187.94 637.12,-499.06 1206.32,-349.09 358.15,94.4 703.98,487.55 836.91,768.9 442.06,935.7 -54.77,1804.03 -955.91,1929.73 192.44,157.01 383.79,476.08 651.07,700.95 245.2,206.31 480.24,385.34 841.13,542.42 2224.27,968.15 3204.61,-2107.88 1838.4,-4752.11 -347.69,-672.92 -730.49,-1234.81 -1135.18,-1626.38 -2123.56,-2054.72 -4031.38,-172.63 -3282.74,2785.58z"/>
  <path class="fil1" d="M2152.45 6945.62c-462.26,-715.01 -872.58,-1349.75 -1087.32,-2349.54 -748.64,-2958.21 1159.18,-4840.3 3282.74,-2785.58 404.69,391.57 787.49,953.46 1135.18,1626.38 1366.21,2644.23 385.87,5720.26 -1838.4,4752.11 -360.89,-157.08 -595.93,-336.11 -841.13,-542.42 -267.28,-224.87 -458.63,-543.94 -651.07,-700.95zm-988.63 -6217.11c-221.99,292.84 -365.66,327.53 -575.33,752.62 -237.59,683.95 -356.99,1086.08 -337.64,1888.93l9.03 370.9c197.6,1016.11 342.6,1747.09 796.48,2597.74 204.94,384.12 406.13,719.22 639.38,1033.45 328.5,442.58 525.65,574.44 825.68,910.72 142.71,85.07 247.77,184.25 388.35,277.85 2170.55,1444.9 2999.85,-444.96 3201.51,-612.95 29.77,-610.56 611.71,-1501.72 -33.03,-3570.66 -104.56,-335.51 -302.63,-699.34 -367.01,-1002.22 -226.67,-314.93 -386.78,-704.39 -600.88,-1018.17 -111.46,-163.36 -215.82,-316.97 -343.92,-455.8 -165,-178.79 -233.66,-232.79 -367.64,-425.32 -216,-156.94 -256.84,-235.94 -465.39,-415.49 -143.02,-123.11 -347.07,-209.15 -538.71,-324.32 -832.74,-435.05 -1437.69,-506.07 -2230.88,-7.28z"/>
  <path class="fil2" d="M1065.13 4596.08c214.74,999.79 625.06,1634.53 1087.32,2349.54 901.14,-125.7 1397.97,-994.03 955.91,-1929.73 -132.93,-281.35 -478.76,-674.5 -836.91,-768.9 -569.2,-149.97 -909.71,161.15 -1206.32,349.09z"/>
 </g>
</svg>
