<?xml version="1.0" encoding="UTF-8"?>
<!DOCTYPE svg PUBLIC "-//W3C//DTD SVG 1.1//EN" "http://www.w3.org/Graphics/SVG/1.1/DTD/svg11.dtd">
<!-- Creator: CorelDRAW 2018 (64 Bit Versão de avaliação) -->
<svg xmlns="http://www.w3.org/2000/svg" xml:space="preserve" width="100mm" height="100mm" version="1.1" style="shape-rendering:geometricPrecision; text-rendering:geometricPrecision; image-rendering:optimizeQuality; fill-rule:evenodd; clip-rule:evenodd"
viewBox="0 0 10000 10000"
 xmlns:xlink="http://www.w3.org/1999/xlink">
 <defs>
  <style type="text/css">
   <![CDATA[
    .fil0 {fill:white}
   ]]>
  </style>
 </defs>
 <g id="Camada_x0020_1">
  <metadata id="CorelCorpID_0Corel-Layer"/>
  <path class="fil0" d="M3365.29 2745.88l2075.64 -10.9 -1.85 962.2c-0.53,33.12 -3.9,152.21 -0.57,177.17 17.19,128.97 14.37,97.71 55.47,143.74l1248.75 18.02 2.1 2768.08c-1.76,191.34 -6.3,222.05 -206.33,222.05 -755.64,0 -2531.33,31.18 -3173.15,-11.65 -46.02,-188.48 -46.61,-4078.66 -0.06,-4268.71zm2434.56 90.15l811.27 839.74 -820.28 1.29 9.01 -841.03zm-4320.69 2271.67c125.01,1903.48 1725.31,3450.8 3789.96,3331.26 1894.51,-109.69 3449.67,-1741.24 3329.61,-3790.25 -111.81,-1908.2 -1756.23,-3467.62 -3824.83,-3328.13 -1872.45,126.27 -3428.11,1756.44 -3294.74,3787.12z"/>
  <path class="fil0" d="M4850.55 5642.25c-106.12,-72.65 -276.52,-300.37 -399.06,-306 -87.63,-4.02 -165.19,63.97 -187.98,142.6 -50.78,175.29 238.87,382.9 405.27,545.88 83.69,81.97 239.22,286.45 385.01,277.52 115.47,-7.08 623.54,-525.87 707.98,-633.08 131.39,-166.82 15.53,-360.81 -160.5,-328.8 -109.87,19.98 -273.8,219.58 -369.16,290 -14.68,-284.07 -4.67,-589.05 -4.55,-875.45 0.08,-219.56 72.71,-673.85 -200.73,-655.47 -259.47,17.44 -176.03,465.51 -176,690.75 0.03,284 0.47,568.05 -0.28,852.05z"/>
 </g>
</svg>
