<?xml version="1.0" encoding="UTF-8"?>
<!DOCTYPE svg PUBLIC "-//W3C//DTD SVG 1.1//EN" "http://www.w3.org/Graphics/SVG/1.1/DTD/svg11.dtd">
<!-- Creator: CorelDRAW 2018 (64 Bit Versão de avaliação) -->
<svg xmlns="http://www.w3.org/2000/svg" xml:space="preserve" width="100mm" height="100mm" version="1.1" style="shape-rendering:geometricPrecision; text-rendering:geometricPrecision; image-rendering:optimizeQuality; fill-rule:evenodd; clip-rule:evenodd"
viewBox="0 0 10000 10000"
 xmlns:xlink="http://www.w3.org/1999/xlink">
 <defs>
  <style type="text/css">
   <![CDATA[
    .str0 {stroke:#900C3E;stroke-width:20;stroke-miterlimit:22.9256}
    .fil1 {fill:#571845}
    .fil2 {fill:#900C3E}
    .fil0 {fill:#FF5733}
   ]]>
  </style>
 </defs>
 <g id="Camada_x0020_1">
  <metadata id="CorelCorpID_0Corel-Layer"/>
  <g id="_1799764289856">
   <path class="fil0" d="M3194.45 7567.86l0 -1068.31c0,-50.29 21.22,-66.21 41.09,-95.88l974.57 0c87.37,-0.01 258.11,-27.08 258.11,68.48l0 1109.41c0,42.05 -12.68,82.18 -54.79,82.18l-1150.5 0c-44.27,0 -68.48,-49.72 -68.48,-95.88zm1766.84 -123.26c0,-109.92 83.78,-191.75 164.35,-191.75l1561.39 0c64.92,0 111.89,42.81 140.49,92.73 90.42,157.83 -55.86,300.47 -205.44,286.82 -82.23,-7.51 -123.18,6.43 -223.07,4.82l-259.83 -0.87c-61.68,0 -80.58,-12.23 -121.21,-10.98 -147.73,4.56 -38.16,18.9 -252.41,0.95 -39.15,-3.27 -96.27,15.03 -273.82,0 -40.47,-3.42 -96.76,14.54 -201.95,10.83 -128.5,-4.53 -328.5,-7.4 -328.5,-192.55zm0 -794.39c0,-136.61 94.91,-205.45 232.83,-205.45l1424.43 0c65.24,0 123.81,13.5 161.44,44 146.99,119.11 45.72,339.5 -92.96,339.5l-1533.99 0c-119.2,0 -191.75,-91.87 -191.75,-178.05zm-1766.84 -1492.91l0 -1082.02c0,-46.15 24.21,-95.87 68.48,-95.87l1136.8 0c31.94,0 68.49,36.55 68.49,68.48l0 1136.8c0,32.93 -22.2,40.27 -41.09,68.48 -184.87,0 -1091.45,-25.05 -1191.59,13.63l-11.6 -23.7c-23.24,-47.75 -29.49,-41.68 -29.49,-85.8zm1931.19 -328.71l1561.39 0c210.02,0 221.35,369.8 0,369.8l-1561.39 0c-216.19,0 -214.21,-369.8 0,-369.8zm-164.35 -616.34c0,-218.75 249.72,-191.78 369.65,-191.75 185.63,0.05 1306.9,-20.1 1405.44,19.03 148.81,59.08 153.53,278.41 15.55,345.06 -84.69,40.91 -1225.59,19.41 -1405.42,19.41 -78.76,0 -221.63,9.2 -274.5,-15 -48.71,-22.29 -110.72,-91.54 -110.72,-176.75zm-2437.96 -1739.44l0 5889.44c0,46.29 55.58,68.49 95.87,68.49 1597.91,0 3195.83,0 4793.74,0 63.94,0 95.87,-31.94 95.87,-95.88l0 -5862.05c0,-28.43 -40.03,-68.48 -54.85,-68.48 -759.16,0 -479.14,-53.36 -638.81,278.78 -158.97,330.69 -469.35,433.43 -826.64,433.43l-1986.04 0c-323.01,0 -487.37,-81.11 -662.98,-254.61 -236.51,-233.67 -142.23,-457.6 -254.61,-457.6l-493.07 0c-31.94,0 -68.48,36.54 -68.48,68.48z"/>
   <path class="fil1" d="M3427.29 2322.15c0,318.18 213.18,506.76 493.07,506.76l2191.42 0c504.37,0 667.99,-636.16 276.99,-879.62 -323.52,-201.44 -720.75,43.87 -874.19,-165.01 -137.27,-186.89 -263.49,-270.22 -525.9,-270.22 -343.22,0 -478.29,306.77 -541.46,335.25 -162.27,73.18 -561.83,-58.71 -794.99,95.14 -107.53,70.95 -224.94,207.88 -224.94,377.7z"/>
   <path class="fil2 str0" d="M3707.6 4616.24c-53.63,0 -32.29,-42.05 -78.78,-112.98 -94.49,-144.18 -277.32,-76.48 -277.32,99.28 0,34.77 80.13,201.74 100.36,242.04 41.57,82.79 54.15,182.55 173.56,182.55 81.51,0 335.47,-230.77 409.1,-289.43 83.9,-66.84 357.9,-249.3 357.9,-354.3 0,-145.02 -143.39,-192.6 -243.53,-120.27 -19.91,14.38 -42.24,32.28 -60.87,48.71l-246.5 205.47c-23.5,20.5 -106.9,98.93 -133.92,98.93z"/>
   <g>
    <rect class="fil2 str0" x="3677.29" y="6683.07" width="261.65" height="758.77"/>
    <rect class="fil2 str0" x="3433.69" y="6931.63" width="758.75" height="261.63"/>
   </g>
  </g>
 </g>
</svg>
