<?xml version="1.0" encoding="UTF-8"?>
<!DOCTYPE svg PUBLIC "-//W3C//DTD SVG 1.1//EN" "http://www.w3.org/Graphics/SVG/1.1/DTD/svg11.dtd">
<!-- Creator: CorelDRAW 2018 (64 Bit Versão de avaliação) -->
<svg xmlns="http://www.w3.org/2000/svg" xml:space="preserve" width="100mm" height="100mm" version="1.1" style="shape-rendering:geometricPrecision; text-rendering:geometricPrecision; image-rendering:optimizeQuality; fill-rule:evenodd; clip-rule:evenodd"
viewBox="0 0 10000 10000"
 xmlns:xlink="http://www.w3.org/1999/xlink">
 <defs>
  <style type="text/css">
   <![CDATA[
    .fil0 {fill:white}
   ]]>
  </style>
 </defs>
 <g id="Camada_x0020_1">
  <metadata id="CorelCorpID_0Corel-Layer"/>
  <path class="fil0" d="M386.57 1811.73l0 414.22c196.41,416.39 284.39,3469.75 3398.12,5745.96 2038.94,1490.52 3542.53,1420.51 3932.14,1598.65l410.18 0c167.77,-78.58 465.44,-76.17 735.6,-394.67 173.87,-204.97 296.99,-466.16 311.44,-829.84 107.83,-2713.69 -562.97,-2121.21 -2023.85,-2636.96 -329.93,-116.47 -601.53,-138.76 -937.07,-1.1 -386.23,158.46 -406.69,369.31 -676.37,530.16 -306.72,-147.73 -825.98,-597.3 -1023.26,-794.52 -241.98,-241.92 -603.59,-685.36 -805.09,-1023.26 153.28,-219.97 353.84,-315.35 503.97,-631.21 142.17,-299.14 142.95,-653.87 29.49,-975.34 -213.36,-604.51 -204.2,-1331.55 -591.46,-1698.46 -477.52,-452.45 -1170.26,-346.02 -1956.66,-339.54 -399.46,3.29 -624.13,88.91 -870.06,279.6 -309.62,240.09 -266.83,402.18 -437.12,756.31z"/>
  <path class="fil0" d="M1511.56 1597.8c-341.64,107.08 -341.95,291.15 -282.63,679.36 110.52,723.35 351.84,1615.29 692.34,2242.4 991.37,1825.76 2212.31,3040.14 4140.03,3791.35 500.71,195.11 982.13,321.93 1548.66,415.44 969.45,159.98 764.49,-398.53 767.24,-1199.53 3.35,-974.26 -226.08,-710.98 -1054.08,-926.74 -945.17,-246.29 -698.56,-297.88 -1305.24,304.05 -376.81,373.86 -537.15,339.5 -1246.7,-206.43 -787.95,-606.25 -1368.15,-1204.59 -1884.65,-2080.21 -353.8,-599.79 499.07,-840.44 624.11,-1201.4 76.2,-219.91 -97.68,-558.56 -158.77,-776.99 -58.63,-209.65 -102.86,-639.23 -169,-811.28 -114.26,-297.32 -397.11,-257.89 -711.46,-256.73 -270.12,1 -732.85,-44.46 -959.85,26.71z"/>
  <path class="fil0" d="M9583.34 4041.65l0 -183.32c-167.08,-363.57 -39.32,-835.6 -745.2,-1840.14 -464.66,-661.26 -1218.28,-1218.5 -2040.78,-1475.58 -159.73,-49.93 -625.71,-129.32 -714.08,-168.82l-211.07 0c-208.79,142.79 -436.01,362.78 -188.42,668.05 228.29,281.46 1106.92,10.52 2158.55,1032.16 1230.06,1194.97 627.26,2469.15 1447.03,2264.54 163.93,-40.91 219.97,-170.08 293.97,-296.89z"/>
  <path class="fil0" d="M5795.88 2046.46c-46.87,25.41 -226.65,66.18 -204.21,363.84 46.68,619.4 1108.57,189.3 1524.87,1411.41 30.37,89.13 133.48,751.28 643.3,494.32 867.06,-437 -1053.31,-2763.41 -1963.96,-2269.57z"/>
 </g>
</svg>
