<?xml version="1.0" encoding="UTF-8"?>
<!DOCTYPE svg PUBLIC "-//W3C//DTD SVG 1.1//EN" "http://www.w3.org/Graphics/SVG/1.1/DTD/svg11.dtd">
<!-- Creator: CorelDRAW 2018 (64 Bit Versão de avaliação) -->
<svg xmlns="http://www.w3.org/2000/svg" xml:space="preserve" width="100mm" height="100mm" version="1.1" style="shape-rendering:geometricPrecision; text-rendering:geometricPrecision; image-rendering:optimizeQuality; fill-rule:evenodd; clip-rule:evenodd"
viewBox="0 0 10000 10000"
 xmlns:xlink="http://www.w3.org/1999/xlink">
 <defs>
  <style type="text/css">
   <![CDATA[
    .str0 {stroke:white;stroke-width:20;stroke-miterlimit:22.9256}
    .fil0 {fill:white}
   ]]>
  </style>
 </defs>
 <g id="Camada_x0020_1">
  <metadata id="CorelCorpID_0Corel-Layer"/>
  <path class="fil0 str0" d="M1032.46 2269.79l0 364.12c172.67,366.08 250.02,3050.26 2987.28,5051.26 1792.42,1310.31 3114.19,1248.77 3456.72,1405.37l360.57 0c147.48,-69.07 409.17,-66.97 646.66,-346.96 152.87,-180.17 261.09,-409.79 273.8,-729.52 94.79,-2385.59 -494.91,-1864.71 -1779.15,-2318.11 -290.04,-102.41 -528.82,-121.99 -823.8,-0.98 -339.52,139.3 -357.5,324.66 -594.59,466.07 -269.63,-129.87 -726.1,-525.1 -899.52,-698.46 -212.73,-212.69 -530.62,-602.5 -707.77,-899.53 134.76,-193.38 311.06,-277.23 443.06,-554.91 124.98,-262.96 125.66,-574.82 25.92,-857.42 -187.56,-531.41 -179.49,-1170.55 -519.95,-1493.09 -419.81,-397.76 -1028.78,-304.18 -1720.1,-298.48 -351.15,2.86 -548.68,78.15 -764.84,245.78 -272.21,211.06 -234.59,353.56 -384.29,664.86zm8084.83 1960.32l0 -161.16c-146.89,-319.62 -34.56,-734.58 -655.1,-1617.64 -408.49,-581.33 -1071,-1071.18 -1794.03,-1297.19 -140.42,-43.9 -550.08,-113.67 -627.77,-148.41l-185.54 0c-183.55,125.52 -383.29,318.92 -165.64,587.29 200.69,247.42 973.1,9.25 1897.58,907.35 1081.35,1050.5 551.41,2170.62 1272.08,1990.75 144.09,-35.94 193.36,-149.51 258.42,-260.99zm-3329.53 -1753.96c-41.22,22.33 -199.26,58.18 -179.52,319.85 41.04,544.5 974.53,166.4 1340.51,1240.77 26.68,78.35 117.31,660.44 565.51,434.54 762.2,-384.16 -925.95,-2429.3 -1726.5,-1995.16z"/>
 </g>
</svg>
