<?xml version="1.0" encoding="UTF-8"?>
<!DOCTYPE svg PUBLIC "-//W3C//DTD SVG 1.1//EN" "http://www.w3.org/Graphics/SVG/1.1/DTD/svg11.dtd">
<!-- Creator: CorelDRAW 2018 (64 Bit Versão de avaliação) -->
<svg xmlns="http://www.w3.org/2000/svg" xml:space="preserve" width="100mm" height="100mm" version="1.1" style="shape-rendering:geometricPrecision; text-rendering:geometricPrecision; image-rendering:optimizeQuality; fill-rule:evenodd; clip-rule:evenodd"
viewBox="0 0 10000 10000"
 xmlns:xlink="http://www.w3.org/1999/xlink">
 <defs>
  <style type="text/css">
   <![CDATA[
    .str0 {stroke:white;stroke-width:100;stroke-miterlimit:22.9256}
    .fil0 {fill:white}
   ]]>
  </style>
 </defs>
 <g id="Camada_x0020_1">
  <metadata id="CorelCorpID_0Corel-Layer"/>
  <g id="_1828104449984">
   <g id="_1353336099376">
    <path class="fil0 str0" d="M1848.33 8427.04l0 -3875.99 1979.27 0 0 3463.74c0,101.32 65.13,164.94 164.95,164.94l3463.75 0 0 329.88 -5628.59 0c13.64,-58.54 20.62,-35.18 20.62,-82.57zm-659.77 -102.98l0 -3773.01 329.89 0 0 3773.01c0,91.93 -83.51,185.55 -164.94,185.55 -92.06,0 -164.95,-108.77 -164.95,-185.55zm2968.93 -6906.88l4618.34 0 0 6432.68 -4618.34 0 0 -6432.68zm-2309.16 2474.09c316.13,0 611.64,0 907.16,0l94.29 137.12c3.63,4.86 13.96,18.63 17.58,23.36 59.95,77.81 95.62,97.08 114.94,169.41l20.61 0c-384.85,0 -769.72,0 -1154.58,0l0 -329.89zm1979.27 -2639.04l0 2968.93 -412.33 0 -155.11 -211.52c-151.16,-189.87 -273.69,-448.24 -422.19,-448.24l-1154.59 0c-230.86,0 -164.93,308.26 -164.93,659.76 -340.18,0 -659.77,-64.97 -659.77,164.94 0,437.12 -22.16,3978.86 12.97,4093.93 3.68,12.1 13.43,31.9 18.34,43.22 30.13,69.48 65.47,139.61 121.49,187.34 3.45,2.94 8.3,6.56 11.86,9.35 21.07,16.52 9.31,6.79 36.96,25.6l73.47 46.44c77.12,41.4 116.99,47.52 219.74,47.52l6267.74 0c230.87,0 164.94,-308.26 164.94,-659.77l1154.58 0c225.44,0 164.94,-300.63 164.94,-617.7 0,-957.3 17.01,-6243.82 -3.77,-6345.58 -25.64,-125.52 -105.6,-130.93 -263.66,-129.52l-4760.64 -0.3c-151.22,-1.08 -250.04,18.48 -250.04,165.6z"/>
    <path class="fil0 str0" d="M5435.77 3417.08c333.72,133.13 423.79,27.47 597.81,0 1.57,62.96 31.98,37.34 89.92,139.37 34.27,60.34 49.64,137.39 75.13,190.51 -356.32,238.59 -949.06,103.74 -932.8,-43.05 15.29,-137.95 111.45,-199.48 169.94,-286.83zm288.66 -762.85c237.24,0 354.59,352.32 96.27,467.83 -131.57,58.84 -294.27,-2.21 -333.14,-169.37 -14.6,-62.82 -7.15,-92.44 16.44,-146.8 42.58,-98.1 152.33,-151.66 220.43,-151.66zm-515.43 515.44c-141.58,94.79 -175.57,256.61 -247.43,309.26 -32.61,-122.14 -290.81,-479.57 -20.13,-947.93 249.99,-432.52 847.54,-601.4 1289.45,-298.03l231.46 223.16c2.79,3.51 6.47,8.33 9.14,11.92 2.66,3.6 6.22,8.53 8.75,12.18l23.27 37.82c54.63,96.46 135,336.56 127.85,485.06 -2.92,60.55 -30.12,204.3 -50.07,262.28 -26.95,78.31 -78.85,156.76 -94.01,213.54 -94.18,-69.01 -15.27,-65.57 -182.48,-252.27 -111.71,-124.73 -9.58,-44.04 -1.75,-304.45 14.99,-499.04 -585.13,-829.09 -996.58,-417.91 -142.7,142.62 -186.31,298.5 -152.25,497.06l54.78 168.31zm-721.62 -268.03c0,266.4 4.5,411.23 133.33,653.75 2.1,3.99 5,9.28 7.15,13.19l125.81 184.48c2.8,3.55 6.7,8.23 9.43,11.79l243.57 229.9c406.5,299.8 1007.36,310.47 1439.9,0.14 149.65,-107.38 144.91,-124.62 231.67,-221.91 370.82,-415.87 379.31,-1099.11 29.64,-1541.31l-143.93 -166.36c-3.22,-2.5 -8.21,-6.09 -11.47,-8.56l-283.72 -190.44c-144.67,-70.64 -296.84,-120.27 -503.01,-119.78 -512.43,1.24 -906.71,216.4 -1148.24,666.72 -61.2,114.1 -130.13,321.95 -130.13,488.39z"/>
    <polygon class="fil0 str0" points="5312.07,5210.81 8116.06,5210.81 8116.06,4880.92 5312.07,4880.92 "/>
    <polygon class="fil0 str0" points="5312.07,5870.57 8116.06,5870.57 8116.06,5540.68 8095.44,5540.68 5291.45,5540.68 5312.07,5540.68 "/>
    <polygon class="fil0 str0" points="5312.07,6530.33 8116.06,6530.33 8116.06,6200.46 5312.07,6200.46 "/>
    <polygon class="fil0 str0" points="7456.3,3891.27 8445.94,3891.27 8445.94,3561.4 7456.3,3561.4 "/>
    <polygon class="fil0 str0" points="7456.3,3231.52 8113.48,3231.52 8116.06,2901.64 7451.14,2901.64 "/>
    <polygon class="fil0 str0" points="8116.06,2076.94 8445.94,2076.94 8445.94,1747.05 8116.06,1747.05 "/>
    <polygon class="fil0 str0" points="5641.96,7190.09 5971.84,7190.09 5971.84,6860.21 5641.96,6860.21 "/>
    <polygon class="fil0 str0" points="6301.72,7190.09 6631.6,7190.09 6631.6,6860.21 6301.72,6860.21 "/>
    <polygon class="fil0 str0" points="6961.48,7190.09 7291.36,7190.09 7291.36,6860.21 6961.48,6860.21 "/>
   </g>
  </g>
 </g>
</svg>
