<?xml version="1.0" encoding="UTF-8"?>
<!DOCTYPE svg PUBLIC "-//W3C//DTD SVG 1.1//EN" "http://www.w3.org/Graphics/SVG/1.1/DTD/svg11.dtd">
<!-- Creator: CorelDRAW 2018 (64 Bit Versão de avaliação) -->
<svg xmlns="http://www.w3.org/2000/svg" xml:space="preserve" width="100mm" height="100mm" version="1.1" style="shape-rendering:geometricPrecision; text-rendering:geometricPrecision; image-rendering:optimizeQuality; fill-rule:evenodd; clip-rule:evenodd"
viewBox="0 0 10000 10000"
 xmlns:xlink="http://www.w3.org/1999/xlink">
 <defs>
  <style type="text/css">
   <![CDATA[
    .fil0 {fill:#D63362}
    .fil2 {fill:#EDA4B9}
    .fil1 {fill:white}
   ]]>
  </style>
 </defs>
 <g id="Camada_x0020_1">
  <metadata id="CorelCorpID_0Corel-Layer"/>
  <path class="fil0" d="M1825.17 1345.74c-120.96,23.89 -209.05,100.46 -254.41,187.84 -58.97,113.57 -38.74,278.75 -38.74,415.35l0 5398.73c0,213.48 -25.98,721.22 7.19,900.52 62.27,336.54 418.97,288.77 603.03,288.77l5398.73 0c213.31,0 721.31,25.96 900.45,-7.37 335.21,-62.35 288.76,-414.64 288.76,-602.92l0 -5398.73c0,-215.28 26.04,-718.57 -7.78,-900.99 -21.3,-114.89 -104.33,-206.67 -187.06,-249.53 -113.4,-58.77 -278.68,-38.77 -415.37,-38.77l-5398.74 0c-203.28,0 -732.98,-25.1 -896.06,7.1z"/>
  <polygon class="fil1" points="3532.37,6536.53 4117.86,6536.53 4172.01,6532.38 4171.89,3344.54 4114.05,3337.96 3531.05,3339.06 "/>
  <path class="fil1" d="M4811.15 6526.23c142.89,42.84 1642.21,10.3 1920.24,10.3l-0.79 -639.53 -1917.25 0.3 -2.2 628.93z"/>
  <polygon class="fil1" points="4811.35,5257.5 6727.25,5257.5 6731.39,4618.05 4849.43,4618.05 4811.35,4618.05 "/>
  <polygon class="fil1" points="6732.15,3969.14 6731.35,3337.51 4822.28,3339.65 4825.96,3969.14 "/>
  <path class="fil2" d="M6732.15 3969.14l-1906.19 0 -3.68 -629.49 -11.7 21.61c-4.33,18.96 -4.89,21.39 -6.01,41.95 -1.14,21.19 1.09,56.3 1.23,79.25l4.93 492.52c101.22,27.53 1459.66,6.39 1807.08,9.75 61.32,0.59 71.69,7.27 114.34,-15.59z"/>
 </g>
</svg>
