<?xml version="1.0" encoding="UTF-8"?>
<!DOCTYPE svg PUBLIC "-//W3C//DTD SVG 1.1//EN" "http://www.w3.org/Graphics/SVG/1.1/DTD/svg11.dtd">
<!-- Creator: CorelDRAW 2018 (64 Bit Versão de avaliação) -->
<svg xmlns="http://www.w3.org/2000/svg" xml:space="preserve" width="100mm" height="100mm" version="1.1" style="shape-rendering:geometricPrecision; text-rendering:geometricPrecision; image-rendering:optimizeQuality; fill-rule:evenodd; clip-rule:evenodd"
viewBox="0 0 10000 10000"
 xmlns:xlink="http://www.w3.org/1999/xlink">
 <defs>
  <style type="text/css">
   <![CDATA[
    .fil0 {fill:white}
   ]]>
  </style>
 </defs>
 <g id="Camada_x0020_1">
  <metadata id="CorelCorpID_0Corel-Layer"/>
  <path class="fil0" d="M2164.12 7162.2c25.15,-55.84 1363.82,-1376.8 1528.89,-1541.69l511.94 -505.41 793.13 603.88c91.96,-33.39 720.92,-569.83 807.19,-597.84l513.57 508.5c172.76,172.69 337.41,335.92 509.53,509.15 118.64,119.4 984.34,969.41 1011.11,1022.08l-5675.36 1.33zm4049.75 -2360.72c60.93,-58.81 141.36,-112.34 209.2,-164.61 185.79,-143.16 1380.85,-1075.05 1447.92,-1098.2l-1.16 2919.92c-57.61,-36.09 -168.06,-158.84 -219.48,-210.34 -176.12,-176.41 -1411.51,-1396.49 -1436.48,-1446.77zm-4081.3 -1267.67c43.99,11.75 1119.37,846.64 1248.19,947.43l410.27 320.24c-27.86,58.96 -717.28,727.04 -826,836.14 -71.91,72.15 -768.74,779.62 -833.17,824.09l0.71 -2927.9zm2865.51 1552.58l-711.41 -542.26c-237.19,-182.86 -466.1,-357.57 -702.5,-539.74 -147.28,-113.5 -1383.92,-1050.45 -1402.89,-1090.99l5646.17 2.1c-18.14,35.48 -1833.62,1417.4 -2121.11,1637.96 -90.69,69.57 -656.31,513.83 -708.26,532.93zm4761.45 274.3c148.11,-1902.84 -932.41,-3751.94 -2587.53,-4586.41 -1240.75,-625.56 -2633.57,-705.46 -3941.21,-201.32 -607.3,234.14 -1008.86,520.24 -1478.87,918.17 -36.52,30.93 -46.54,47.24 -81.26,79.95l-222.94 224.18c-293.18,321.47 -522.32,644.59 -735.62,1053.37 -625.15,1198.07 -696.54,2688.74 -197.46,3941.41 425.1,1066.95 1235.34,2002.43 2278.4,2517.83 1250.75,618.02 2607.63,701.69 3926.86,199.44 717.78,-273.27 1271.94,-690.78 1786.79,-1219.59 42.9,-44.07 95.04,-106.43 138.15,-159.96 677.55,-841.29 1028.11,-1654.7 1114.69,-2767.07z"/>
 </g>
</svg>
