<?xml version="1.0" encoding="UTF-8"?>
<!DOCTYPE svg PUBLIC "-//W3C//DTD SVG 1.1//EN" "http://www.w3.org/Graphics/SVG/1.1/DTD/svg11.dtd">
<!-- Creator: CorelDRAW 2018 (64 Bit Versão de avaliação) -->
<svg xmlns="http://www.w3.org/2000/svg" xml:space="preserve" width="100mm" height="100mm" version="1.1" style="shape-rendering:geometricPrecision; text-rendering:geometricPrecision; image-rendering:optimizeQuality; fill-rule:evenodd; clip-rule:evenodd"
viewBox="0 0 10000 10000"
 xmlns:xlink="http://www.w3.org/1999/xlink">
 <defs>
  <style type="text/css">
   <![CDATA[
    .fil0 {fill:white}
   ]]>
  </style>
 </defs>
 <g id="Camada_x0020_1">
  <metadata id="CorelCorpID_0Corel-Layer"/>
  <path class="fil0" d="M376.01 5461.31l0 151.8c161.79,214.14 192.75,201.75 557.46,368.83 221.52,101.47 407.53,182.72 646.83,306.73 343.28,177.92 974.54,489.78 1318.71,615.61 943.4,-732.29 2282.62,-1883.12 3246.23,-2673.79l893.97 -639.68 -721.59 728.88c-335.39,331.46 -2742.37,2727.94 -2834.07,2885.5 408.28,149.29 867.46,406.77 1273.47,592.05 445.32,203.24 855.63,399.16 1285.45,617.76 729.03,370.77 679.62,167.7 950.28,-520.32 241.73,-614.5 2599.37,-6632.46 2707.34,-6780.57l0 -126.59c-172.55,-173.85 -400.71,17.83 -621.97,125.12l-7596.47 3719.59c-259.2,128.2 -960.03,436.06 -1105.64,629.08z"/>
  <path class="fil0" d="M3507.21 9048.3c236.48,57.03 451.08,-162.65 650.12,-300.15 101.48,-70.09 199.5,-138.12 293.65,-202.85 148.21,-101.92 196.42,-112.07 283.06,-222.18l-1244.56 -578.06c-20,314.53 -43.46,1057.95 17.73,1303.24z"/>
 </g>
</svg>
