<?xml version="1.0" encoding="UTF-8"?>
<!DOCTYPE svg PUBLIC "-//W3C//DTD SVG 1.1//EN" "http://www.w3.org/Graphics/SVG/1.1/DTD/svg11.dtd">
<!-- Creator: CorelDRAW 2018 (64 Bit Versão de avaliação) -->
<svg xmlns="http://www.w3.org/2000/svg" xml:space="preserve" width="100mm" height="100mm" version="1.1" style="shape-rendering:geometricPrecision; text-rendering:geometricPrecision; image-rendering:optimizeQuality; fill-rule:evenodd; clip-rule:evenodd"
viewBox="0 0 10000 10000"
 xmlns:xlink="http://www.w3.org/1999/xlink">
 <defs>
  <style type="text/css">
   <![CDATA[
    .str0 {stroke:#571845;stroke-width:20;stroke-miterlimit:22.9256}
    .str1 {stroke:#C70039;stroke-width:20;stroke-miterlimit:22.9256}
    .str2 {stroke:#C70039;stroke-width:20;stroke-miterlimit:22.9256}
    .fil2 {fill:#571845}
    .fil0 {fill:#571845}
    .fil1 {fill:#C70039}
    .fil3 {fill:#C70039}
   ]]>
  </style>
 </defs>
 <g id="Camada_x0020_1">
  <metadata id="CorelCorpID_0Corel-Layer"/>
  <path class="fil0 str0" d="M5682.41 747.31c-108.13,284.05 -49.16,1765.35 -49.16,2193.86 0,759.85 0,1519.72 0,2279.57l-51.61 4.45 696.87 0 0 -4065.86c184.72,-50.15 571.09,-2.11 785.82,-16.61 293.76,-19.83 320.77,-344.01 131.36,-440.44 -122.56,-62.41 -571.64,-34.24 -769.9,-34.24 -209.04,0 -630.3,-68.22 -743.38,79.27zm-1538.22 4477.88l-306.2 -11.47 -2.47 2.72 -4.22 7.29c-55.27,59.97 -143.57,219.81 -170.75,319.09l0.1 0.03 -2.37 9.35 191.16 0 0 -327.01 294.75 0zm1489.06 360.33l-0.44 3232.44 -499.16 -0.95c-235.66,2.95 -538.8,-38.42 -531.85,248.33 6.79,281.07 345.38,227.38 593.81,227.31 255.81,-0.09 522.56,7.59 776.87,0.95 354.38,-9.24 304.6,-200.66 306.21,-522.48 5.27,-1042.89 -1.66,-2141.05 -1.84,-3185.6l-643.6 0z"/>
  <rect class="fil1 str1" x="3608.52" y="5583.2" width="2038.28" height="96.95"/>
  <rect class="fil2" x="3675.58" y="5552.2" width="202.28" height="43.81"/>
  <rect class="fil1" transform="matrix(1.24913 0.316394 -0.316394 1.24913 3672.2 5539.18)" width="11.57" height="37.21"/>
  <path class="fil1" d="M5159.66 8817.01l499.18 0.95 0.43 -3235.67c-320.52,0 -1685.81,18.99 -1980.92,7.98 1.98,-84.86 113.59,-295.61 178.98,-366.53l1308.06 -2264.63 0.05 2260.17 493.83 1.47c0,-759.86 0,-1519.72 0,-2279.58 0,-428.51 -58.97,-1909.81 49.16,-2193.87 -86.89,56.57 -108.83,119.09 -172.81,234.31l-2328.75 4036.46c-213.23,358.05 -403.77,706.52 -617.57,1066.91l-615.44 1069.97c-111.05,238.52 45.87,462.26 279.87,471.49 275.53,10.86 325.67,-220.71 442.91,-417.85 109.96,-184.91 210.41,-356.23 314.21,-541.11 97.38,-173.45 236.57,-377.97 306.39,-548.13l1848.08 -2.1 -5.66 2699.76z"/>
  <rect class="fil0" x="3564.61" y="5177.77" width="4374.54" height="437.3"/>
  <rect class="fil3 str2" transform="matrix(1.13987 0.627193 -0.627193 1.13987 3826.18 4500.41)" width="277.82" height="892.97"/>
 </g>
</svg>
