<?xml version="1.0" encoding="UTF-8"?>
<!DOCTYPE svg PUBLIC "-//W3C//DTD SVG 1.1//EN" "http://www.w3.org/Graphics/SVG/1.1/DTD/svg11.dtd">
<!-- Creator: CorelDRAW 2018 (64 Bit Versão de avaliação) -->
<svg xmlns="http://www.w3.org/2000/svg" xml:space="preserve" width="100mm" height="100mm" version="1.1" style="shape-rendering:geometricPrecision; text-rendering:geometricPrecision; image-rendering:optimizeQuality; fill-rule:evenodd; clip-rule:evenodd"
viewBox="0 0 10000 10000"
 xmlns:xlink="http://www.w3.org/1999/xlink">
 <defs>
  <style type="text/css">
   <![CDATA[
    .fil0 {fill:#571845}
    .fil1 {fill:#900C3E}
   ]]>
  </style>
 </defs>
 <g id="Camada_x0020_1">
  <metadata id="CorelCorpID_0Corel-Layer"/>
  <path class="fil0" d="M2161.54 4363.3c-13.83,20.65 -29.17,33.52 -48.05,52.08 -113.36,111.43 -215.62,288.34 -270.17,439.11 -68.68,189.86 -90.66,457.66 -90.66,718.75 -56.2,4.68 -142.57,81.25 -170.43,121.63 -144.92,210.03 -94.92,481.6 137.05,604.34 -9.18,19.13 -15.62,88.99 -21.5,120.36 -25.65,136.8 -45.74,219.12 -90.13,352.13 -74.31,222.69 -155.63,400.47 -275.83,600.33 -80.97,134.64 -200.06,303.87 -299.41,426.56 -24.28,29.99 -46.73,53.18 -64.13,86.07 40.42,60.36 309.86,227.39 413.64,270.6 161.33,67.18 159.14,95.06 315.8,-8.45 139.84,-92.39 239.05,-190.87 319.22,-339.99 142.33,-264.71 152.94,-570.49 152.94,-898.46l-33.38 -650.87c69.3,-18.51 158.55,-178.93 158.55,-275.37 0,-106.03 3.68,-166.39 -61.59,-263.85 -34.22,-51.1 -73.25,-87.36 -121.99,-119.99 0.81,-36.43 6.51,-29.39 8.38,-66.73 8.87,-176.98 17.9,-300.45 76.03,-483.04 33.18,-104.24 92.7,-232.88 156.27,-319.37 12.69,-17.25 22.78,-29.97 36.6,-46.84 14.07,-17.19 22.01,-29.76 37.55,-45.89 24.51,-25.44 53.51,-56.7 79.82,-78.73 108.93,-91.22 142.08,-83.62 320.58,-155.06l2050.41 -828.42c89.92,-35.85 174.54,-87.07 263.4,-87.07 154.29,0 233.4,221.83 97.06,322.36 -46.72,34.44 -1741.87,702.81 -1998.4,805.33 -43.22,17.27 -103.85,46.14 -151.4,57.22 19.36,26.42 219.02,82.76 255.53,94.94l1308.03 444.3c89.69,29.91 176.34,55.44 262.67,87.8 39.61,14.85 85.45,29.22 128.82,46.42 172.66,68.46 197.47,26.46 397.12,-40.25l1259.92 -434c750.92,-250.23 1529.9,-538.66 2278.08,-784.33 69.01,-22.66 180.34,-75.48 171.03,-162.39 -12.53,-116.88 -313.73,-191.82 -440.18,-233.99 -668.04,-222.74 -1350.05,-473.67 -2017.27,-694.68l-1011.67 -348.48c-52.04,-17.71 -471.26,-169.93 -514.31,-169.93 -87.54,0 -110.71,17.97 -193.13,48.86 -54.96,20.61 -106.16,33.11 -162.16,54.8 -108.33,41.95 -212.06,72.9 -323.76,110.15 -968.31,322.87 -1941.06,663.81 -2910.13,986.73 -114.1,38.02 -401.56,106.74 -439.88,211.7 -54.18,148.39 258.27,216.74 375.25,255.59 108.62,36.06 212.87,73.8 323.31,110.6 53.09,17.69 105.42,35.12 162.76,54.2 30.78,10.25 53.94,17.62 80.29,28.19 24.65,9.88 51.97,22.41 83.45,25.03z"/>
  <path class="fil1" d="M2687.24 5022.51l0 592.45c42.33,11.31 109.29,125.42 128.21,163.85 86.48,175.56 71.98,433.03 -36.29,595.63 -46.45,69.76 -83.6,68.68 9.69,207.01 55.41,82.17 264.75,174 354.92,212.49 90.91,38.82 170.01,74.63 264.58,110.92 158.48,60.82 412.57,137.84 584.14,175.21 508.72,110.8 1056.78,153.01 1583.34,96.72 387.49,-41.42 729.88,-101.82 1094.86,-223.56 222.19,-74.12 430.98,-149.13 628.25,-247.92 96.59,-48.38 203.66,-85.05 280.24,-162.02 70.36,-70.7 148.11,-157.2 148.11,-294.15l0 -1260.01c-53.82,1.2 -1251.27,427.26 -1413.35,480.85l-1100.5 377.05c-82.18,17.66 -202.72,-46.03 -313.86,-82.93 -104.49,-34.7 -214.73,-71.65 -319.22,-106.35 -104.87,-34.82 -202.53,-70.28 -310.82,-106.39l-317.08 -108.5c-214.92,-71.05 -418.51,-142.33 -629.98,-212.8 -83.14,-27.71 -592.99,-206.61 -635.24,-207.55z"/>
 </g>
</svg>
