<?xml version="1.0" encoding="UTF-8"?>
<!DOCTYPE svg PUBLIC "-//W3C//DTD SVG 1.1//EN" "http://www.w3.org/Graphics/SVG/1.1/DTD/svg11.dtd">
<!-- Creator: CorelDRAW 2018 (64 Bit Versão de avaliação) -->
<svg xmlns="http://www.w3.org/2000/svg" xml:space="preserve" width="100mm" height="100mm" version="1.1" style="shape-rendering:geometricPrecision; text-rendering:geometricPrecision; image-rendering:optimizeQuality; fill-rule:evenodd; clip-rule:evenodd"
viewBox="0 0 10000 10000"
 xmlns:xlink="http://www.w3.org/1999/xlink">
 <defs>
  <style type="text/css">
   <![CDATA[
    .fil0 {fill:white}
   ]]>
  </style>
 </defs>
 <g id="Camada_x0020_1">
  <metadata id="CorelCorpID_0Corel-Layer"/>
  <path class="fil0" d="M257.95 4905.74c0,803.15 71.61,1230.61 333.96,1965.83 22.2,62.26 42,94.65 71.36,152.99 31.59,62.78 44.06,105.25 74.27,168.81 154.54,325.16 425.98,746.56 674.97,1007.8 49.19,51.61 64.19,81.77 111.81,131.25 83.28,86.52 158.44,157.66 243.44,242.69 162.11,162.15 341.88,308.32 535.74,436.53 196.69,130.09 384,249.41 596.98,356.59 144.99,72.96 583,267.96 741.69,267.96 133.23,0 224.38,-121.55 224.38,-261.77l0 -878.78c-112.5,2.51 -181.53,37.39 -317.87,37.39 -577.83,0 -1058.9,-29.95 -1303.63,-603.48 -117.22,-274.72 -275.09,-544.1 -532.55,-701.47 -73.96,-45.21 -174.62,-125.99 -183.12,-228.23 238.4,-159.64 611.53,62.37 781.13,228.51 226.82,222.18 400.92,757.86 933.74,733.27 227.9,-10.53 399.06,-4.85 580.8,-105.81 110.38,-61.3 54.25,-254.76 212.83,-497.66 42.02,-64.37 107.14,-93.86 127.82,-171.33 -139.62,-11.62 -331.83,-48.49 -466.1,-76.13 -497.32,-102.33 -925.77,-317.94 -1248.36,-696.16 -134.37,-157.56 -222.57,-345.83 -293.41,-547.98 -245.28,-699.96 -241.87,-1527.24 186.33,-2146.65 157.86,-228.34 144.42,-99.81 78.3,-380.36 -71.7,-304.25 0.44,-1070.13 153.97,-1070.13 276.37,0 467.24,91.29 694.5,184.27 328.63,134.49 515.8,333.71 636.17,307.82 284.41,-61.14 535.71,-139.31 838.22,-136.84 141.84,1.15 220.39,-27.46 374.03,-18.83 334.77,18.86 693.04,55.42 1017.39,143.03 74.21,20.05 82.25,33.78 138.38,4.76 232.15,-120.02 248.43,-182.35 631.09,-342.65 240.14,-100.59 307.38,-141.56 643.73,-141.56 69.75,299.37 149.57,248.15 149.57,803.98 0,96.92 -10.77,163.79 -29.59,250.88 -13.55,62.65 -61.74,178.94 -57.28,213.66 8.98,69.94 827.93,797.51 322.95,2314.39 -184.08,552.95 -585.63,917.59 -1114.82,1128.88 -257,102.62 -628.03,199.21 -916.21,205.62 122.3,182.64 211.93,193.87 276.02,471.87 103.13,447.33 -17.88,1523.7 61.22,1808.52 30.99,111.58 119.73,168.97 242.38,168.97 121.47,0 585.68,-209.13 692.07,-261.48 156.29,-76.93 324.83,-160.68 464.55,-264.67l411.5 -299.01c179.62,-143.09 340.4,-304.95 502.98,-469.27 49.96,-50.49 63.23,-80.28 111.81,-131.26 264.4,-277.55 510.91,-662.11 678.2,-1004.56 280.84,-574.87 485.72,-1264.22 485.72,-1926.23 0,-637.18 -44.29,-1261.57 -277.75,-1835.07 -113.82,-279.62 -225.42,-526.6 -370.75,-788.49l-230.13 -349.48c-165.23,-234.22 -335.12,-437.34 -537.69,-640.24 -437.76,-438.47 -992.77,-802.46 -1567.05,-1031.9 -75.99,-30.36 -150.06,-57.62 -216.58,-82.58 -816.97,-306.56 -1856.71,-340.4 -2708.23,-133.39 -450.43,109.5 -843.2,277.58 -1246.7,492.16 -363.07,193.06 -712.83,466.22 -1001.86,755.71 -285.43,285.87 -557.61,624.35 -761.17,977.68 -71.96,124.91 -131.66,243.41 -200.22,379.39 -227.68,451.72 -454.93,1212.97 -454.93,1882.24z"/>
 </g>
</svg>
