<?xml version="1.0" encoding="UTF-8"?>
<!DOCTYPE svg PUBLIC "-//W3C//DTD SVG 1.1//EN" "http://www.w3.org/Graphics/SVG/1.1/DTD/svg11.dtd">
<!-- Creator: CorelDRAW 2018 (64 Bit Versão de avaliação) -->
<svg xmlns="http://www.w3.org/2000/svg" xml:space="preserve" width="100mm" height="100mm" version="1.1" style="shape-rendering:geometricPrecision; text-rendering:geometricPrecision; image-rendering:optimizeQuality; fill-rule:evenodd; clip-rule:evenodd"
viewBox="0 0 10000 10000"
 xmlns:xlink="http://www.w3.org/1999/xlink">
 <defs>
  <style type="text/css">
   <![CDATA[
    .fil0 {fill:white}
   ]]>
  </style>
 </defs>
 <g id="Camada_x0020_1">
  <metadata id="CorelCorpID_0Corel-Layer"/>
  <g id="_1818560915488">
   <path class="fil0" d="M2859.84 3847.19l967.83 5.23 -1.62 3101.57c-59.85,15.16 -874.36,13.39 -970.27,3.27l4.06 -3110.07zm1816.56 -3637.54l491.51 0c268.54,10.83 531.95,37.88 716.43,76.03 47.75,9.87 77.36,9.65 127.72,18.56 101.7,18.01 192.41,58.44 290.85,80.5 96.98,21.75 180.99,58.19 276.3,83.8 78.45,21.07 136.53,53.43 210.91,81.66 22.36,8.49 38.95,11.73 58.98,19.8l344.47 161.92c64.84,26.42 125.9,69.61 188.29,104.29l355.85 229.31c170.97,116 339.12,247.31 487.55,390.18l298.12 298.29c128.12,138.51 354.53,422.02 450.72,573.31l142.1 229.25c66.41,104.98 118.03,221.22 178.79,327.6l90.32 202.26c46.43,103.5 91.62,206.51 122.02,316.84 11.05,40.09 24.61,63.26 38,108.29l97.18 341.7c83.29,324.08 121.38,711.3 121.38,1048.88l0 0.17c0,445.67 -21.49,685.1 -94.59,1098.11l-61.59 230.99c-7.15,22.75 -13.11,33.99 -18.91,59.86 -35.36,157.75 -155.73,507.2 -232.47,645.27 -9.36,16.86 -15.3,23.6 -23.28,44.23 -38.98,100.73 -86.31,200.16 -145.38,293.49l-102.92 178.41c-54.95,85.01 -100.68,173.36 -163.88,252.49 -5.13,6.42 -9.58,12.26 -14.52,19.23 -120.91,170.34 -243.82,338.91 -388.51,489.23l-298.29 298.12c-138.51,128.12 -422.02,354.53 -573.31,450.72l-229.25 142.1c-104.97,66.41 -221.22,118.03 -327.59,178.79 -43.49,24.84 -64.41,23.77 -104.98,41.31 -19.55,8.46 -30.82,17.78 -50.81,27.97l-363.32 143.06c-65.18,17.96 -154.77,60.74 -219.03,73.55 -120.42,24.01 -227.63,72.03 -348.87,90 -355.47,52.69 -527.9,93.01 -930.96,93.01l-0.21 0c-465.82,0 -668.73,-18.6 -1098.08,-94.59 -39.32,-6.96 -81.66,-19.71 -117.18,-29.11l-450.05 -135.11c-47.33,-12.8 -63.85,-19.84 -107.01,-39.28l-599.6 -278.13c-33.08,-20.94 -60.46,-30.7 -95.98,-50.32l-75.65 -48.13c-2.01,-1.33 -4.76,-3.15 -6.78,-4.47l-271.72 -178.4c-59.9,-42.52 -114.63,-78.96 -171.12,-121.47 -28.5,-21.44 -52.07,-38.94 -83.74,-62.54l-532.49 -502.79c-142.68,-154.25 -262.45,-320.77 -387.63,-490.11l-63.09 -83.2c-20.68,-32.52 -35.2,-57.83 -56.15,-90.14l-85.95 -139.11c-12.99,-20.54 -13.07,-19.88 -25.08,-42.43 -19.92,-37.39 -28.66,-61.59 -50.82,-95.47 -25.13,-38.4 -35.47,-50.43 -52.61,-93.68 -19.29,-48.66 -26.32,-54.07 -50.28,-96.01 -24.84,-43.49 -23.77,-64.41 -41.31,-104.98 -8.46,-19.55 -17.78,-30.82 -27.97,-50.81 -69.41,-136.18 -134.93,-324.08 -179.31,-473.36 -46.09,-155.04 -103.79,-299.23 -127.3,-457.86 -79.54,-536.67 -93.01,-454.86 -93.01,-1088.56 0,-185.05 5.07,-411.57 30.36,-566.05 13.99,-85.45 30.06,-171.46 45.67,-246.92l47.67 -244.9c47.92,-181.13 98.09,-387.69 174.39,-557.06 16.84,-37.38 27.29,-66.87 42.78,-103.51l132.2 -306.66c65.21,-109.76 131.44,-258.7 208.8,-376.37l155.7 -238.15c1.41,-1.89 3.42,-4.53 4.8,-6.45l336.56 -428.66c30.75,-30.72 37.52,-48.42 67.12,-79.16l298.29 -298.12c30.76,-28.45 47.52,-35.34 78.98,-67.31 32.08,-32.62 46.94,-39.57 78.59,-67.7 32.91,-29.25 40.21,-40.98 77.6,-68.7l298.23 -219.4c69.75,-54.05 147.77,-90.38 221.84,-138.26 2.02,-1.32 4.77,-3.14 6.78,-4.47 2.01,-1.32 4.7,-3.23 6.69,-4.56l13.34 -9.17c8.01,-5.31 10.19,-6.72 20.51,-13.25 20.54,-12.99 19.88,-13.07 42.43,-25.08 37.4,-19.92 61.59,-28.66 95.47,-50.82 109.29,-71.51 232.07,-114.35 345.48,-172.17 98.74,-50.33 480.48,-196.46 582.34,-216.62 60.49,-11.97 64.19,-13.64 116.81,-29.48 200.57,-60.38 402.93,-89.19 608.38,-123.07 90.96,-14.99 199.44,-24.95 317.28,-30.45zm2656.83 4666.48c25.92,51.8 36.4,1901.64 17.64,2084.61l-969.76 -0.59 -2.08 -1799.16c31.14,-100.88 -32.85,-408.55 -191.75,-519.5 -78.67,-54.93 -100.45,-68.71 -203.3,-78.04 -85.01,-7.71 -129.7,-10.3 -224.93,2.37 -161.9,21.54 -384.99,281.91 -364.98,381.36 -51.39,224.9 -23.37,744.72 -23.37,1001.52 0,192.12 9.7,876.06 -2.25,1010.57l-969.23 -3.15 -5.76 -2526.58c17.74,-188.59 -8.52,-383.01 -8.52,-573.9l821.47 0c0,145.85 45.01,287.65 45.01,438.86 71.31,-16.61 19.08,-4.56 113.78,-111.27 45.83,-51.65 61.55,-71.71 116.97,-119.35l17.73 -16.03c1.77,-1.51 4.19,-3.78 6,-5.25 281.29,-229.17 680.23,-322.28 1027.07,-219.43 295.48,87.62 354.63,141.24 555.31,367.44 64.7,72.93 121.34,208.62 156.29,305.09 15.83,43.74 49.7,132.07 54.27,182.04l20.94 148.11c1.55,9.6 2.38,18.63 4.81,28 7.52,29.03 -2.07,8.76 8.64,22.28zm-4489.96 -1886.98c0,-88.09 19.24,-177.68 61.23,-242.6 2.83,-4.39 12.21,-17.55 13.78,-19.98 30.82,-47.78 89.69,-112.6 140.23,-141.1l85.08 -38.7c193.69,-76.98 399.51,-41.26 550.49,86.7 178.17,151 209.95,469.59 29.85,673.69 -53.03,60.09 -201.2,143.37 -306.76,143.37 -164.37,0 -207.24,19.53 -335.64,-58.21 -94.08,-56.95 -157.11,-122.71 -204.82,-222.8 -15.66,-32.86 -33.44,-132.64 -33.44,-180.37z"/>
   <path class="fil0" d="M2865.77 3866.89l945.26 0 0 3083.33 -945.26 0 0 -3083.33zm-9.99 3090.37c95.91,10.12 910.42,11.89 970.27,-3.27l1.62 -3101.57 -967.83 -5.23 -4.06 3110.07z"/>
   <path class="fil0" d="M6379.03 5160.99l2.08 1799.16 969.76 0.59c18.76,-182.97 8.28,-2032.81 -17.64,-2084.61 0,100.4 11.62,159.39 11.27,251.08l-0.01 1823.01 -945.26 0 1.54 -1745.08c-6.57,-65.6 3.05,-22.38 -21.74,-44.15z"/>
   <path class="fil0" d="M5394.07 4947.18c-27.82,26.16 -24.86,5.8 -30.26,101.15 -2.87,50.63 -11.26,54.37 -11.48,112.29l0.37 1789.6 -945.26 0c0,-799.32 -8.66,-1643.94 0.38,-2442.21 0.08,-7.05 0.64,-40.24 -0.1,-44.94 -8.25,-52.55 2.43,-12.36 -14.26,-33.53l5.76 2526.58 969.23 3.15c11.95,-134.51 2.25,-818.45 2.25,-1010.57 0,-256.8 -28.02,-776.62 23.37,-1001.52z"/>
  </g>
 </g>
</svg>
