<?xml version="1.0" encoding="UTF-8"?>
<!DOCTYPE svg PUBLIC "-//W3C//DTD SVG 1.1//EN" "http://www.w3.org/Graphics/SVG/1.1/DTD/svg11.dtd">
<!-- Creator: CorelDRAW 2018 (64 Bit Versão de avaliação) -->
<svg xmlns="http://www.w3.org/2000/svg" xml:space="preserve" width="100mm" height="100mm" version="1.1" style="shape-rendering:geometricPrecision; text-rendering:geometricPrecision; image-rendering:optimizeQuality; fill-rule:evenodd; clip-rule:evenodd"
viewBox="0 0 10000 10000"
 xmlns:xlink="http://www.w3.org/1999/xlink">
 <defs>
  <style type="text/css">
   <![CDATA[
    .fil0 {fill:#A3A3A3}
   ]]>
  </style>
 </defs>
 <g id="Camada_x0020_1">
  <metadata id="CorelCorpID_0Corel-Layer"/>
  <g id="_1961223364112">
   <path class="fil0" d="M1685.97 1690.47l0 4885.53c0,366.28 363.62,748.74 730.02,748.74l4960.4 0c304.59,0 711.31,-358.29 711.31,-823.61l0 -1928.01c0,-571.14 -823.62,-634.92 -823.62,56.16l0 1890.57 -4773.22 0 0 -4773.22 1984.16 0c506.4,0 624.94,-823.62 -93.59,-823.62l-1740.82 0c-330.98,0 -467.08,51.41 -663.51,197.55 -135.04,100.47 -291.13,344.31 -291.13,569.91z"/>
   <path class="fil0" d="M5673.01 529.92c0,455.46 472.13,411.81 692.59,411.81 374.37,0 748.74,0 1123.11,0 -54.63,81.57 -180.54,189.9 -257.39,266.74l-3509.72 3509.72c-197.03,197.03 -681.93,556.07 -356.12,908.32 92.96,100.5 183.74,125.88 323.37,125.88 205.25,0 413.94,-273.55 603.67,-463.28 321.39,-321.39 3681.2,-3703.32 3776.46,-3767.11 0,368.13 0,736.26 0,1104.4 0,189.29 -19.78,362.08 49.38,493.45 200.54,380.93 755.51,221.25 755.51,-156.52l0 -2452.12c0,-193.76 -180.61,-374.37 -374.37,-374.37l-2433.41 0c-203.02,0 -393.08,192.11 -393.08,393.08z"/>
  </g>
 </g>
</svg>
