<?xml version="1.0" encoding="UTF-8"?>
<!DOCTYPE svg PUBLIC "-//W3C//DTD SVG 1.1//EN" "http://www.w3.org/Graphics/SVG/1.1/DTD/svg11.dtd">
<!-- Creator: CorelDRAW 2018 (64 Bit Versão de avaliação) -->
<svg xmlns="http://www.w3.org/2000/svg" xml:space="preserve" width="100mm" height="100mm" version="1.1" style="shape-rendering:geometricPrecision; text-rendering:geometricPrecision; image-rendering:optimizeQuality; fill-rule:evenodd; clip-rule:evenodd"
viewBox="0 0 10000 10000"
 xmlns:xlink="http://www.w3.org/1999/xlink">
 <defs>
  <style type="text/css">
   <![CDATA[
    .str0 {stroke:#571845;stroke-width:20;stroke-miterlimit:22.9256}
    .str1 {stroke:#C70039;stroke-width:20;stroke-miterlimit:22.9256}
    .str2 {stroke:#C70039;stroke-width:20;stroke-miterlimit:22.9256}
    .fil0 {fill:#330D29}
    .fil3 {fill:#571845}
    .fil2 {fill:#C70039}
    .fil4 {fill:#C70039}
    .fil1 {fill:white}
   ]]>
  </style>
 </defs>
 <g id="Camada_x0020_1">
  <metadata id="CorelCorpID_0Corel-Layer"/>
  <circle class="fil0" cx="5035.98" cy="5041.26" r="4795.26"/>
  <g id="_1383604482336">
   <path class="fil1 str0" d="M5247.92 1690.21c-83.11,218.33 -37.78,1356.89 -37.78,1686.25 0,584.04 0,1168.09 0,1752.13l-39.67 3.42 535.63 0 0 -3125.11c141.98,-38.55 438.95,-1.62 604,-12.77 225.79,-15.24 246.55,-264.41 100.96,-338.53 -94.2,-47.97 -439.37,-26.32 -591.76,-26.32 -160.67,0 -484.46,-52.43 -571.38,60.93zm-1182.31 3441.8l-235.35 -8.82 -1.9 2.09 -3.24 5.61c-42.48,46.09 -110.35,168.95 -131.24,245.26l0.07 0.02 -1.82 7.19 146.93 0 0 -251.35 226.55 0zm1144.53 276.96l-0.34 2484.52 -383.67 -0.73c-181.13,2.27 -414.13,-29.53 -408.79,190.87 5.22,216.04 265.47,174.77 456.42,174.72 196.62,-0.07 401.65,5.83 597.12,0.73 272.38,-7.1 234.12,-154.23 235.36,-401.59 4.05,-801.59 -1.28,-1645.66 -1.42,-2448.52l-494.68 0z"/>
   <rect class="fil2 str1" x="3653.89" y="5407.19" width="1566.67" height="74.52"/>
   <rect class="fil3" x="3705.43" y="5383.36" width="155.47" height="33.67"/>
   <rect class="fil2" transform="matrix(0.960113 0.243187 -0.243187 0.960113 3702.83 5373.35)" width="11.57" height="37.21"/>
   <path class="fil2" d="M4846.13 7892.76l383.67 0.73 0.34 -2487.01c-246.36,0 -1295.76,14.6 -1522.58,6.14 1.52,-65.23 87.31,-227.21 137.56,-281.73l1005.41 -1740.64 0.04 1737.22 379.57 1.12c0,-584.04 0,-1168.09 0,-1752.13 0,-329.36 -45.33,-1467.92 37.78,-1686.25 -66.79,43.48 -83.65,91.53 -132.82,180.09l-1789.93 3102.52c-163.9,275.2 -310.35,543.04 -474.68,820.04l-473.04 822.4c-85.36,183.34 35.25,355.31 215.12,362.4 211.77,8.35 250.31,-169.64 340.43,-321.16 84.51,-142.13 161.72,-273.81 241.51,-415.92 74.84,-133.31 181.83,-290.51 235.49,-421.3l1420.47 -1.62 -4.34 2075.1z"/>
   <rect class="fil1" x="3620.14" y="5095.56" width="3362.37" height="336.12"/>
   <rect class="fil4 str2" transform="matrix(0.87613 0.482074 -0.482074 0.87613 3821.18 4574.93)" width="277.82" height="892.97"/>
  </g>
 </g>
</svg>
