<?xml version="1.0" encoding="UTF-8"?>
<!DOCTYPE svg PUBLIC "-//W3C//DTD SVG 1.1//EN" "http://www.w3.org/Graphics/SVG/1.1/DTD/svg11.dtd">
<!-- Creator: CorelDRAW 2018 (64 Bit Versão de avaliação) -->
<svg xmlns="http://www.w3.org/2000/svg" xml:space="preserve" width="210mm" height="297mm" version="1.1" style="shape-rendering:geometricPrecision; text-rendering:geometricPrecision; image-rendering:optimizeQuality; fill-rule:evenodd; clip-rule:evenodd"
viewBox="0 0 21000 29700"
 xmlns:xlink="http://www.w3.org/1999/xlink">
 <defs>
  <style type="text/css">
   <![CDATA[
    .str0 {stroke:#571845;stroke-width:20;stroke-miterlimit:22.9256}
    .str1 {stroke:#C70039;stroke-width:20;stroke-miterlimit:22.9256}
    .fil2 {fill:#571845}
    .fil0 {fill:#571845}
    .fil3 {fill:#737373}
    .fil4 {fill:#747474}
    .fil1 {fill:#C70039}
    .fil5 {fill:#C70039}
   ]]>
  </style>
 </defs>
 <g id="Camada_x0020_1">
  <metadata id="CorelCorpID_0Corel-Layer"/>
  <rect class="fil0 str0" x="64.3" y="18686.7" width="21505.74" height="330.39"/>
  <path class="fil0 str0" d="M1845.75 14247.64c-106.97,281 -48.63,1746.35 -48.63,2170.25 0,751.68 0,1503.36 0,2255.04l-481.91 41.54 -1303.95 -25.35c-64.68,70.16 -169.31,226.55 -171.27,310.5 234.48,70.31 1654.59,1.24 1950.51,1.19l6.19 3230.61 -493.8 -0.94c-233.12,2.92 -532.99,-38.01 -526.12,245.66 6.73,278.04 341.67,224.93 587.41,224.86 253.07,-0.08 516.94,7.51 768.52,0.95 350.56,-9.14 301.31,-198.51 302.92,-516.86 5.27,-1045.52 -1.83,-2147.2 -1.83,-3192.9 243.66,-66.16 1979.07,15.08 2372.85,15.03l15510.91 -49.52c325.86,-13.63 910.38,113.28 1131.48,9.46 95.55,-388.08 -250.58,-249.46 -850.4,-249.46l-15768.83 -28.01c-400.91,-0.01 -2147.33,74.65 -2394.36,7.57l0 -4042.03c182.71,-49.61 564.93,-2.08 777.36,-16.43 290.58,-19.62 317.32,-340.3 129.94,-435.7 -121.25,-61.74 -565.48,-33.88 -761.63,-33.88 -206.77,0 -623.5,-67.47 -735.36,78.42z"/>
  <path class="fil1" d="M1302.89 22230.48l493.8 0.94 0.43 -3200.84c-317.07,0 -1774.34,39.46 -1957.13,-30.96 1.96,-83.95 109.9,-253.57 174.58,-323.73l1293.98 -2240.25 0.05 2235.84 488.52 1.45c0,-751.68 0,-1503.36 0,-2255.04 0,-423.9 -58.34,-1889.25 48.63,-2170.25 -85.96,55.96 -107.66,117.81 -170.95,231.78l-2303.68 3993.02c-210.94,354.19 -399.43,698.91 -610.93,1055.42l-608.81 1058.45c-109.86,235.96 45.37,457.29 276.86,466.42 272.56,10.74 322.16,-218.34 438.14,-413.35 108.77,-182.92 208.14,-352.4 310.83,-535.29 96.33,-171.58 234.02,-373.9 303.09,-542.23l1828.18 -2.08 -5.59 2670.7z"/>
  <path class="fil1" d="M4291.16 16973.16c21.43,-68.51 310.08,-849.77 388.66,-910.94l351.08 909.02 -739.74 1.92zm-748.07 977.17l345.89 1.95 273.58 -681.83 997.92 2.71 197.89 520.95c73.24,197.28 35.85,158.18 463.48,158.17 -60.01,-194.19 -1111.86,-2654.53 -1145.07,-2690.08l-1133.69 2688.13z"/>
  <path class="fil1" d="M6665.75 16728.17l-22.04 -245.38 -299.37 -9.79 -1.87 1474.46 332.72 3.21c-0.01,-463.35 -88.67,-1149.01 356.56,-1238.02 319.89,-63.95 330.61,188.21 329.74,445.67 -0.9,264.62 -0.28,529.33 -0.28,793.97l337.3 0c-1.24,-469.1 -91.56,-1119.72 342.52,-1234.97 323.42,-85.87 343.66,186.06 342.58,441.27 -1.11,261.67 -0.3,523.47 -0.3,785.15l332.6 8.81c0.03,-285.41 46.81,-1152.64 -65.92,-1333.4 -226.78,-363.64 -803.49,-191.13 -932,94.27l-79.25 -115.33c-44.55,-69.51 -32.97,-60.57 -106.28,-105.81 -447.21,-275.95 -783.7,161.07 -866.71,235.89z"/>
  <polygon class="fil2" points="11166.69,17938.02 11513.95,17951.19 11514,16855.44 12541.92,16855.36 12555.8,16523.66 11515,16522.8 11513.92,15700.91 12698.92,15699.48 12699.02,15377.1 11170.9,15368.74 "/>
  <path class="fil2" d="M19657.77 16705.2c680.84,-163.9 832.9,870.89 238.37,994.11 -650.91,134.91 -886.13,-838.18 -238.37,-994.11zm584.31 1021.05l14.25 224.89 330.58 -2.29 -0.22 -1466.57 -306.82 -11.1 -23.99 217.59 -153.44 -146.65c-404.83,-299.94 -1147.13,-75.47 -1161.99,644.54 -12.92,626.54 500.6,897.11 949.77,771.51 178.54,-49.92 234.6,-128.01 351.86,-231.92z"/>
  <path class="fil2" d="M16360.29 17257.94c-78.52,-631.33 695.39,-774.73 848.14,-307.24l-848.14 307.24zm984.03 562.07c-35.97,-106.92 -87.08,-144.4 -126.61,-239.71 -185.73,67.36 -532.58,282.76 -779.5,-104.2 113.35,-76.67 982.94,-374.51 1153.42,-411.36 -140.97,-848.9 -1241.48,-828.83 -1510.57,-162.86 -340.37,842.35 706.42,1399.19 1263.26,918.13z"/>
  <path class="fil2" d="M13000.5 17257.94c-78.52,-631.33 695.39,-774.73 848.14,-307.24l-848.14 307.24zm984.03 562.07c-35.97,-106.92 -87.08,-144.4 -126.61,-239.71 -185.72,67.36 -532.57,282.76 -779.5,-104.2 114.67,-77.57 979.66,-373.22 1152.26,-411.36 -143.03,-852.92 -1241.51,-825.87 -1509.41,-162.86 -340.37,842.35 706.42,1399.19 1263.26,918.13z"/>
  <path class="fil3" d="M12679.93 21025.61l0 -1180.68c349.36,0 866.39,-7.29 866.8,594.11 0.37,523.32 -384.75,586.57 -866.8,586.57zm-213.85 207.1l432.91 -0.01c520.91,0 889.75,-288.43 867.4,-818.26 -22.01,-521.79 -383.72,-774.49 -920.73,-774.49l-379.46 0 -0.12 1592.76z"/>
  <polygon class="fil1" points="5826.23,17952.29 6159.16,17952.28 6158.63,15182.23 5835.91,15182.23 "/>
  <path class="fil3" d="M11086.62 20462.86c395.57,-120.97 539.15,487.18 183.25,597.12 -409.06,126.35 -609.88,-466.65 -183.25,-597.12zm372.48 -34.52c-181.1,-263.01 -808.97,-185.71 -814.46,328.17 -5.13,481.27 509.19,653.71 814.1,347.23l8.48 130.43 207.46 -8.8 -9.36 -1698 -193.42 -2.07 -12.8 903.04z"/>
  <path class="fil2" d="M18438.61 16776.26l-19.65 -295.97 -296.15 -4.69 -1.23 1465.26 332.52 13.15c0.14,-999.46 -71.51,-1026.02 569.39,-1226.8l13.29 -313.65c-291.3,36.38 -362.93,138 -511.91,285.44 -5.96,5.9 -24.12,23.71 -30.55,29.62 -43.03,39.57 -3.03,10.03 -55.71,47.64z"/>
  <path class="fil2" d="M14578.56 16802.08l-29.04 -315.62 -295.09 -13.99 -2.01 1475 332.8 3.19c-0.01,-215.82 -31.16,-696.23 37.11,-866.24 134.06,-333.86 404.84,-301.74 533.83,-366.12l11.96 -297.44c-268.24,2.71 -489.03,216.34 -589.56,381.22z"/>
  <path class="fil1" d="M9724.09 16800.31l-23.11 -327.64 -294.06 0.06 -2.19 1479.55 332.78 -4.54c-0.41,-507.97 -86.15,-864.58 225.66,-1105.64 129.06,-99.78 183.72,-64.19 334.45,-106.74l23.01 -320.4c-155.25,18.22 -256.75,65.63 -356.79,136.53 -52.49,37.2 -86.12,63.78 -127.58,110.84l-112.17 137.98z"/>
  <path class="fil2" d="M15517.85 16800.27l-23.35 -327.62 -293.93 0.05 -2.23 1479.58 332.85 -4.53c-0.41,-508.33 -86.16,-864.45 225.69,-1105.59 129.34,-100.01 183.65,-64.1 334.43,-106.8l23.01 -320.4c-155.21,18.08 -256.86,65.59 -356.89,136.47 -126.68,89.77 -136.32,127.88 -225.58,232.94 -3.06,3.6 -9.24,10.69 -14,15.9z"/>
  <path class="fil3" d="M18668.61 20485.53c405.06,-166.93 589.73,435.66 246.79,574.57 -419.47,169.91 -620.38,-420.61 -246.79,-574.57zm-176.37 626.56c330.93,310.71 823.12,86.73 812.55,-355.67 -5.47,-228.71 -125.61,-386.51 -299.67,-446.81 -241.17,-83.55 -389.75,49.55 -524.54,124.74l-42.66 -110.11c-1.44,-10.38 -6.01,-13.22 -10.3,-20.53l-152.73 8.15 9.07 1357.38 192.6 1.65 15.68 -558.8z"/>
  <polygon class="fil4" points="3870.78,19846.1 4600.78,19836.19 4591.71,19640.78 3656.3,19639.72 3656.3,21232.89 3869.45,21226.07 3885.55,20556.9 4511.95,20555.86 4511.95,20351.38 3878.64,20351.43 3870.78,20253.87 "/>
  <polygon class="fil1" points="8895.48,17952.28 9227.94,17952.29 9227.7,16472.73 8898.08,16472.73 "/>
  <polygon class="fil2" points="17605.67,17952.28 17938.59,17947.75 17938.32,16484.93 17608.05,16470.87 "/>
  <path class="fil3" d="M17534.07 20488.56c376.96,-187.12 559.02,402.9 259.91,560.62 -168.02,88.6 -355.28,-1.61 -411.28,-147.52 -31.77,-82.77 -31.36,-180.69 0.26,-263.5 38.61,-101.15 98.03,-123.25 151.11,-149.6zm607.3 400.23c154.98,-676.87 -835.6,-810.11 -972.4,-254.12 -168.18,683.53 836.63,847.08 972.4,254.12z"/>
  <path class="fil3" d="M5723.39 20481.36c389.67,-177.22 553.55,454.88 230.5,580.5 -386.72,150.38 -568.33,-426.85 -230.5,-580.5zm-376.1 380.98c92.59,577.79 1089.78,486.72 987.94,-181.81 -89.98,-590.69 -1098.19,-506.13 -987.94,181.81z"/>
  <path class="fil3" d="M19551.34 20796.87c-0.1,-382.4 370.55,-464.79 520.24,-199.08l-64.76 44.82c-8.91,4.64 -45.21,18.9 -56.53,23.14l-398.95 131.12zm760.09 -109c-113.37,-557.58 -782.56,-491.63 -932.6,-92.11 -189.84,505.48 394.67,840.34 785.1,551.84l-65.83 -137.63c-212.04,54.15 -334.53,152.45 -492.17,-80.01l705.5 -242.09z"/>
  <path class="fil3" d="M14043.71 20801.85c-9.11,-392.76 388.64,-462.62 518.4,-204.06 -61.7,59.49 -154.65,78.57 -253.02,114.06 -98.06,35.38 -171.38,68.85 -265.38,90zm758.68 -117.74c-137.03,-584.23 -772.95,-452.31 -923.47,-111.62 -221.64,501.66 355.56,869.91 774.1,576.12l-87.78 -135.35c-216.81,72.9 -337,123.66 -469.65,-82.87l706.8 -246.28z"/>
  <path class="fil3" d="M15966.6 20802.42c-32.88,-357.61 340.89,-488.63 520.91,-188.87l-520.91 188.87zm742.62 -125.27c-40.41,-481.96 -747.89,-536.6 -922.24,-74.13 -180.09,477.67 331.16,810.96 791.48,550.76l-93.1 -147.89c-170.01,93.52 -391.16,110.45 -470.73,-75.85l694.59 -252.89z"/>
  <path class="fil3" d="M8801.07 20805.07c-18.69,-370.38 330.48,-474.6 519.83,-213.91 -79.71,85.05 -388.86,178.29 -519.83,213.91zm756.65 -129.61c-123.78,-531.16 -767.93,-488.91 -929.13,-88.04 -95.13,236.57 8.88,467.24 159.28,576.19 220.49,159.72 409.14,80.78 621.84,0.64 -28.85,-69.76 -53.36,-109.01 -91.03,-158.92 -173.15,90.82 -370.92,115.06 -466.84,-74.62l705.88 -255.25z"/>
  <path class="fil3" d="M6667.97 21232.71c0,-300.65 -60.49,-722.41 230.7,-764.59 301.65,-43.69 221.05,307.04 221.05,764.59l207.18 0c0,-216.99 52.04,-708.29 -63.16,-847.12 -164.3,-198 -498.39,-76.01 -578.71,88.76 -4.11,-6.88 -5.45,-17.1 -7.47,-22.85l-23.29 -66.4c-31.3,-59.06 11.11,-18.33 -36.9,-49.33 -40.55,-26.19 -103.61,-14.94 -153.95,-14.94l-0.03 911.87 204.58 0.01z"/>
  <path class="fil3" d="M9869.03 21232.71c0,-300.65 -60.49,-722.41 230.7,-764.59 301.65,-43.69 221.05,307.04 221.05,764.59l207.18 0c0,-216.99 52.04,-708.29 -63.16,-847.12 -164.3,-198 -498.4,-76.01 -578.72,88.76 -4.11,-6.88 -5.44,-17.1 -7.47,-22.85 -2,-5.72 -4.89,-15.81 -7.49,-22.69 -41.1,-108.71 -17.39,-107.98 -206.64,-107.98l-0.03 911.87 204.58 0.01z"/>
  <polygon class="fil4" points="16826.5,21226.56 17031.99,21232.89 17035.05,19618.48 17016.63,19524.06 16827.33,19532.25 "/>
  <path class="fil4" d="M7448.65 20439.06c40.15,35.82 -19.03,47.03 167.25,47.03l-0.12 742.53 207.78 4.27 -0.03 -744.37 239.67 -2.38 9.25 -163.01 -244.88 -2.86 -15.39 -401.63 -194.2 6.43 -2.12 396.18 -162.36 11.79 -4.85 106.02z"/>
  <path class="fil3" d="M15763.42 20320.7l-226.87 0.69c-28.41,112.51 -186.9,494.35 -253.53,565.96l-267.86 -562.44 -239.82 1.8 516.92 929.79 471.16 -935.8z"/>
  <path class="fil3" d="M20616.67 21225.94c0,-795.02 29.27,-567.31 351.87,-760.39l0.32 -179.96c-194.92,32.02 -258.21,113.69 -360.78,225.31 -15.87,-217.62 -6.15,-190.07 -196.28,-190.07l0.03 913.2 204.84 -8.09z"/>
  <path class="fil3" d="M4955.3 21225.94c0,-795.02 29.26,-567.31 351.87,-760.39l0.32 -179.96c-194.92,32.02 -258.22,113.69 -360.79,225.31 -15.86,-217.62 -6.14,-190.07 -196.27,-190.07l0.03 913.2 204.84 -8.09z"/>
  <path class="fil2" d="M17707.77 15771.55c-242.67,91.04 -104.04,425.86 147.43,339.99 224.32,-76.6 113.72,-437.97 -147.43,-339.99z"/>
  <path class="fil1" d="M8992.78 15781.36c-85.85,35.74 -170.59,96.62 -98.94,247.53 38.66,81.44 165.82,127.49 272.57,70.83 196.31,-104.21 77.62,-422.93 -173.63,-318.36z"/>
  <polygon class="fil4" points="8118.48,20849.84 8505.2,20850.31 8513.48,20668.63 8100,20668.85 "/>
  <rect class="fil5 str1" x="-231.56" y="19031.49" width="2016.34" height="95.91"/>
 </g>
</svg>
