<?xml version="1.0" encoding="UTF-8"?>
<!DOCTYPE svg PUBLIC "-//W3C//DTD SVG 1.1//EN" "http://www.w3.org/Graphics/SVG/1.1/DTD/svg11.dtd">
<!-- Creator: CorelDRAW 2018 (64 Bit Versão de avaliação) -->
<svg xmlns="http://www.w3.org/2000/svg" xml:space="preserve" width="190mm" height="70mm" version="1.1" style="shape-rendering:geometricPrecision; text-rendering:geometricPrecision; image-rendering:optimizeQuality; fill-rule:evenodd; clip-rule:evenodd"
viewBox="0 0 19000 7000"
 xmlns:xlink="http://www.w3.org/1999/xlink">
 <defs>
  <style type="text/css">
   <![CDATA[
    .str1 {stroke:#C70039;stroke-width:20;stroke-miterlimit:22.9256}
    .str0 {stroke:white;stroke-width:20;stroke-miterlimit:22.9256}
    .fil4 {fill:#C2C2C2}
    .fil1 {fill:#C70039}
    .fil2 {fill:#C70039}
    .fil0 {fill:white}
    .fil3 {fill:white}
   ]]>
  </style>
 </defs>
 <g id="Camada_x0020_1">
  <metadata id="CorelCorpID_0Corel-Layer"/>
  <path class="fil0 str0" d="M3188.39 245.42c-83.11,218.33 -37.78,1356.89 -37.78,1686.25 0,584.04 0,1168.09 0,1752.13l-374.44 32.28 -1005.44 -37.68c-50.26,54.51 -143.11,208.15 -144.63,273.38 182.19,54.63 1289.44,-13.18 1519.36,-13.22l4.81 2510.14 -383.67 -0.73c-181.13,2.27 -414.13,-29.53 -408.79,190.87 5.23,216.04 265.47,174.77 456.41,174.72 196.63,-0.07 401.65,5.83 597.13,0.73 272.38,-7.1 234.11,-154.23 235.36,-401.59 4.1,-812.35 -1.42,-1668.34 -1.42,-2480.84 189.32,-51.4 1537.71,11.72 1843.67,11.68l12051.76 -38.47c253.19,-10.59 707.35,88.01 879.14,7.35 74.24,-301.54 -194.7,-193.83 -660.75,-193.83l-12252.15 -21.76c-311.5,-0.01 -1668.45,58 -1860.39,5.88l0 -3140.6c141.97,-38.55 438.95,-1.62 604,-12.77 225.78,-15.24 246.55,-264.41 100.96,-338.53 -94.21,-47.97 -439.37,-26.32 -591.77,-26.32 -160.66,0 -484.45,-52.43 -571.37,60.93z"/>
  <path class="fil1" d="M2766.6 6467.97l383.67 0.73 0.34 -2487.01c-246.36,0 -1295.76,14.6 -1522.58,6.14 1.52,-65.23 87.31,-227.21 137.56,-281.73l1005.41 -1740.64 0.04 1737.22 379.57 1.12c0,-584.04 0,-1168.09 0,-1752.13 0,-329.36 -45.33,-1467.92 37.78,-1686.25 -66.79,43.48 -83.65,91.53 -132.82,180.09l-1789.93 3102.52c-163.9,275.2 -310.35,543.04 -474.68,820.04l-473.04 822.4c-85.36,183.34 35.25,355.31 215.12,362.4 211.77,8.35 250.31,-169.64 340.43,-321.16 84.51,-142.13 161.72,-273.81 241.51,-415.92 74.84,-133.31 181.83,-290.51 235.49,-421.3l1420.47 -1.62 -4.34 2075.1z"/>
  <path class="fil2" d="M5088.44 2383.11c16.65,-53.23 240.93,-660.26 301.98,-707.79l272.79 706.29 -574.77 1.5zm-581.24 759.24l268.75 1.52 212.57 -529.77 775.37 2.1 153.76 404.77c56.9,153.29 27.85,122.91 360.12,122.9 -46.63,-150.88 -863.9,-2062.53 -889.71,-2090.15l-880.86 2088.63z"/>
  <path class="fil2" d="M6933.46 2192.75l-17.12 -190.65 -232.61 -7.61 -1.45 1145.63 258.52 2.5c-0.01,-360.02 -68.9,-892.77 277.04,-961.93 248.55,-49.68 256.88,146.24 256.2,346.28 -0.7,205.61 -0.21,411.29 -0.21,616.91l262.07 0c-0.96,-364.49 -71.14,-870.01 266.14,-959.56 251.29,-66.72 267.02,144.57 266.18,342.86 -0.87,203.32 -0.24,406.73 -0.24,610.05l258.43 6.85c0.02,-221.76 36.37,-895.59 -51.22,-1036.03 -176.2,-282.55 -624.3,-148.51 -724.15,73.24l-61.58 -89.61c-34.61,-54.01 -25.61,-47.06 -82.57,-82.21 -347.48,-214.41 -608.93,125.15 -673.43,183.28z"/>
  <polygon class="fil3" points="10430.63,3132.79 10700.45,3143.02 10700.49,2291.64 11499.16,2291.58 11509.95,2033.85 10701.26,2033.18 10700.42,1394.59 11621.15,1393.48 11621.23,1142.99 10433.9,1136.5 "/>
  <path class="fil0" d="M17028.08 2174.91c529,-127.35 647.15,676.66 185.21,772.4 -505.75,104.83 -688.51,-651.25 -185.21,-772.4zm454 793.34l11.07 174.73 256.86 -1.78 -0.17 -1139.5 -238.4 -8.62 -18.64 169.06 -119.22 -113.95c-314.55,-233.04 -891.3,-58.63 -902.85,500.8 -10.04,486.82 388.96,697.04 737.96,599.46 138.72,-38.79 182.28,-99.47 273.39,-180.2z"/>
  <path class="fil0" d="M14465.98 2604.38c-61.01,-490.54 540.31,-601.96 659,-238.72l-659 238.72zm764.58 436.72c-27.95,-83.08 -67.66,-112.2 -98.37,-186.25 -144.31,52.33 -413.81,219.7 -605.66,-80.97 88.07,-59.57 763.73,-290.98 896.19,-319.62 -109.53,-659.58 -964.62,-643.99 -1173.69,-126.54 -264.47,654.5 548.87,1087.15 981.53,713.38z"/>
  <path class="fil0" d="M11855.47 2604.38c-61,-490.54 540.31,-601.96 659,-238.72l-659 238.72zm764.58 436.72c-27.95,-83.08 -67.66,-112.2 -98.37,-186.25 -144.3,52.33 -413.8,219.7 -605.66,-80.97 89.09,-60.27 761.18,-289.98 895.29,-319.62 -111.14,-662.7 -964.64,-641.69 -1172.79,-126.54 -264.47,654.5 548.87,1087.15 981.53,713.38z"/>
  <path class="fil4" d="M11606.4 5531.8l0 -917.37c271.44,0 673.17,-5.66 673.49,461.62 0.28,406.61 -298.95,455.75 -673.49,455.75zm-166.16 160.92l336.36 -0.01c404.74,0 691.33,-224.11 673.96,-635.78 -17.1,-405.42 -298.15,-601.77 -715.39,-601.77l-294.84 0 -0.09 1237.56z"/>
  <polygon class="fil2" points="6281.17,3143.88 6539.85,3143.87 6539.44,991.58 6288.69,991.58 "/>
  <path class="fil4" d="M10368.42 5094.55c307.35,-93.99 418.91,378.54 142.38,463.96 -317.83,98.17 -473.87,-362.58 -142.38,-463.96zm289.41 -26.82c-140.71,-204.35 -628.56,-144.29 -632.83,254.99 -3.98,373.94 395.64,507.92 632.55,269.79l6.59 101.34 161.19 -6.84 -7.27 -1319.32 -150.29 -1.61 -9.94 701.65z"/>
  <path class="fil0" d="M16080.81 2230.12l-15.27 -229.97 -230.1 -3.64 -0.96 1138.49 258.36 10.21c0.11,-776.56 -55.56,-797.2 442.41,-953.2l10.33 -243.7c-226.34,28.26 -281.99,107.22 -397.75,221.78 -4.63,4.58 -18.74,18.42 -23.74,23.01 -33.43,30.75 -2.35,7.8 -43.28,37.02z"/>
  <path class="fil0" d="M13081.6 2250.18l-22.56 -245.23 -229.28 -10.87 -1.56 1146.05 258.58 2.48c-0.01,-167.69 -24.21,-540.96 28.83,-673.06 104.17,-259.4 314.56,-234.44 414.78,-284.47l9.29 -231.1c-208.41,2.1 -379.97,168.09 -458.08,296.2z"/>
  <path class="fil2" d="M9309.75 2248.8l-17.96 -254.57 -228.48 0.05 -1.7 1149.59 258.57 -3.53c-0.32,-394.68 -66.94,-671.76 175.33,-859.07 100.28,-77.52 142.75,-49.87 259.87,-82.93l17.87 -248.95c-120.62,14.16 -199.49,51 -277.22,106.09 -40.78,28.9 -66.91,49.55 -99.12,86.12l-87.16 107.2z"/>
  <path class="fil0" d="M13811.42 2248.77l-18.14 -254.55 -228.38 0.04 -1.74 1149.61 258.62 -3.52c-0.31,-394.97 -66.94,-671.67 175.36,-859.03 100.5,-77.7 142.7,-49.8 259.85,-82.98l17.88 -248.95c-120.6,14.05 -199.58,50.97 -277.3,106.04 -98.43,69.75 -105.92,99.36 -175.27,180.99 -2.38,2.8 -7.18,8.31 -10.88,12.35z"/>
  <path class="fil4" d="M16259.51 5112.17c314.73,-129.7 458.22,338.5 191.76,446.43 -325.93,132.02 -482.03,-326.81 -191.76,-446.43zm-137.03 486.83c257.13,241.41 639.55,67.38 631.34,-276.35 -4.25,-177.71 -97.6,-300.32 -232.84,-347.17 -187.39,-64.92 -302.83,38.5 -407.56,96.92l-33.15 -85.55c-1.12,-8.07 -4.67,-10.27 -8,-15.95l-118.67 6.33 7.05 1054.66 149.64 1.29 12.19 -434.18z"/>
  <polygon class="fil4" points="4761.81,4615.34 5329.01,4607.64 5321.96,4455.81 4595.16,4454.99 4595.16,5692.86 4760.78,5687.56 4773.29,5167.62 5259.99,5166.81 5259.99,5007.94 4767.92,5007.97 4761.81,4932.17 "/>
  <polygon class="fil2" points="8665.93,3143.87 8924.25,3143.88 8924.06,1994.28 8667.95,1994.28 "/>
  <polygon class="fil0" points="15433.63,3143.87 15692.3,3140.35 15692.09,2003.76 15435.47,1992.83 "/>
  <path class="fil4" d="M15377.99 5114.52c292.9,-145.39 434.35,313.05 201.95,435.6 -130.55,68.84 -276.05,-1.25 -319.56,-114.62 -24.68,-64.32 -24.37,-140.4 0.2,-204.74 30,-78.59 76.17,-95.76 117.41,-116.24zm471.87 310.98c120.41,-525.92 -649.25,-629.45 -755.54,-197.45 -130.68,531.09 650.05,658.17 755.54,197.45z"/>
  <path class="fil4" d="M6201.26 5108.93c302.77,-137.7 430.1,353.43 179.1,451.04 -300.48,116.84 -441.59,-331.66 -179.1,-451.04zm-292.22 296.01c71.94,448.94 846.74,378.18 767.61,-141.26 -69.91,-458.96 -853.27,-393.26 -767.61,141.26z"/>
  <path class="fil4" d="M16945.38 5354.07c-0.07,-297.11 287.92,-361.13 404.22,-154.68l-50.32 34.83c-6.92,3.6 -35.12,14.68 -43.92,17.98l-309.98 101.87zm590.58 -84.69c-88.08,-433.23 -608.04,-381.99 -724.61,-71.56 -147.51,392.75 306.65,652.93 610.01,428.77l-51.15 -106.94c-164.75,42.07 -259.93,118.45 -382.41,-62.17l548.16 -188.1z"/>
  <path class="fil4" d="M12666.03 5357.94c-7.07,-305.16 301.97,-359.44 402.79,-158.55 -47.94,46.23 -120.16,61.05 -196.59,88.63 -76.19,27.49 -133.16,53.49 -206.2,69.92zm589.49 -91.48c-106.47,-453.94 -600.57,-351.44 -717.53,-86.73 -172.21,389.79 276.27,675.91 601.47,447.64l-68.21 -105.16c-168.45,56.64 -261.84,96.08 -364.91,-64.39l549.18 -191.36z"/>
  <path class="fil4" d="M14160.09 5358.39c-25.55,-277.86 264.87,-379.66 404.74,-146.75l-404.74 146.75zm577.01 -97.34c-31.4,-374.47 -581.1,-416.93 -716.57,-57.59 -139.93,371.14 257.31,630.1 614.97,427.93l-72.34 -114.91c-132.09,72.66 -303.93,85.82 -365.75,-58.93l539.69 -196.5z"/>
  <path class="fil4" d="M8592.58 5360.45c-14.52,-287.78 256.78,-368.76 403.9,-166.21 -61.94,66.08 -302.14,138.53 -403.9,166.21zm587.9 -100.71c-96.17,-412.7 -596.67,-379.88 -721.92,-68.4 -73.91,183.81 6.9,363.03 123.76,447.69 171.32,124.1 317.9,62.76 483.16,0.49 -22.41,-54.2 -41.46,-84.7 -70.73,-123.47 -134.53,70.56 -288.2,89.4 -362.73,-57.98l548.46 -198.33z"/>
  <path class="fil4" d="M6935.19 5692.72c0,-233.6 -47,-561.31 179.25,-594.08 234.38,-33.95 171.75,238.57 171.75,594.08l160.98 0c0,-168.6 40.43,-550.34 -49.08,-658.2 -127.65,-153.85 -387.24,-59.06 -449.65,68.96 -3.19,-5.34 -4.23,-13.29 -5.8,-17.75l-18.1 -51.59c-24.32,-45.89 8.64,-14.25 -28.67,-38.33 -31.5,-20.35 -80.5,-11.61 -119.61,-11.61l-0.03 708.51 158.96 0.01z"/>
  <path class="fil4" d="M9422.37 5692.72c0,-233.6 -47,-561.31 179.25,-594.08 234.38,-33.95 171.75,238.57 171.75,594.08l160.98 0c0,-168.6 40.43,-550.34 -49.08,-658.2 -127.66,-153.85 -387.25,-59.06 -449.66,68.96 -3.19,-5.34 -4.22,-13.29 -5.8,-17.75 -1.55,-4.45 -3.8,-12.29 -5.82,-17.63 -31.93,-84.47 -13.51,-83.9 -160.56,-83.9l-0.02 708.51 158.96 0.01z"/>
  <polygon class="fil4" points="14828.22,5687.94 14987.88,5692.86 14990.26,4438.48 14975.95,4365.12 14828.87,4371.48 "/>
  <path class="fil4" d="M7541.77 5076.06c31.19,27.83 -14.79,36.54 129.95,36.54l-0.1 576.94 161.45 3.32 -0.03 -578.37 186.22 -1.85 7.19 -126.65 -190.27 -2.23 -11.96 -312.06 -150.89 5 -1.64 307.82 -126.16 9.17 -3.76 82.37z"/>
  <path class="fil4" d="M14002.22 4984.1l-176.27 0.53c-22.08,87.42 -145.22,384.11 -196.99,439.75l-208.12 -437.01 -186.34 1.4 401.64 722.43 366.08 -727.1z"/>
  <path class="fil4" d="M17773.13 5687.46c0,-617.72 22.74,-440.8 273.4,-590.82l0.25 -139.82c-151.45,24.88 -200.63,88.33 -280.32,175.06 -12.34,-169.09 -4.78,-147.68 -152.51,-147.68l0.02 709.54 159.16 -6.28z"/>
  <path class="fil4" d="M5604.47 5687.46c0,-617.72 22.73,-440.8 273.4,-590.82l0.25 -139.82c-151.45,24.88 -200.64,88.33 -280.33,175.06 -12.33,-169.09 -4.77,-147.68 -152.5,-147.68l0.02 709.54 159.16 -6.28z"/>
  <path class="fil0" d="M15512.96 1449.47c-188.56,70.74 -80.84,330.89 114.55,264.17 174.29,-59.52 88.36,-340.3 -114.55,-264.17z"/>
  <path class="fil2" d="M8741.53 1457.1c-66.7,27.76 -132.54,75.07 -76.87,192.32 30.04,63.28 128.84,99.06 211.78,55.04 152.53,-80.97 60.31,-328.61 -134.91,-247.36z"/>
  <polygon class="fil4" points="8062.21,5395.23 8362.69,5395.6 8369.12,5254.43 8047.86,5254.61 "/>
  <rect class="fil1 str1" x="1574.36" y="3982.4" width="1566.67" height="74.52"/>
  <rect class="fil3 str0" x="1779.47" y="3707.22" width="16734.41" height="276.96"/>
  <rect class="fil3" x="1625.9" y="3958.57" width="155.47" height="33.67"/>
  <rect class="fil1" transform="matrix(0.960113 0.243187 -0.243187 0.960113 1623.3 3948.56)" width="11.57" height="37.21"/>
 </g>
</svg>
