<?xml version="1.0" encoding="UTF-8"?>
<!DOCTYPE svg PUBLIC "-//W3C//DTD SVG 1.1//EN" "http://www.w3.org/Graphics/SVG/1.1/DTD/svg11.dtd">
<!-- Creator: CorelDRAW 2018 (64 Bit Versão de avaliação) -->
<svg xmlns="http://www.w3.org/2000/svg" xml:space="preserve" width="100mm" height="100mm" version="1.1" style="shape-rendering:geometricPrecision; text-rendering:geometricPrecision; image-rendering:optimizeQuality; fill-rule:evenodd; clip-rule:evenodd"
viewBox="0 0 10000 10000"
 xmlns:xlink="http://www.w3.org/1999/xlink">
 <defs>
  <style type="text/css">
   <![CDATA[
    .fil0 {fill:#004E61}
    .fil1 {fill:#E87C00}
   ]]>
  </style>
 </defs>
 <g id="Camada_x0020_1">
  <metadata id="CorelCorpID_0Corel-Layer"/>
  <g id="_1828113676784">
   <path class="fil0" d="M966.05 5577.64l0 1041.41c0,19.5 5.89,25.4 25.4,25.4 305.88,0 263.23,24.59 262.49,-101.57l-0.03 -948.3c21.73,25 21.39,39.1 33.99,67.61l301.89 663.31c101.84,218.54 103.04,335.88 349.93,335.88 198.32,0 229.41,-135.53 313.12,-321.88l133.18 -298.62c22.41,-52.06 49.41,-102.93 68.98,-151.15l122.57 -275.37c9.71,-17.36 6.11,-10.61 14.08,-19.78l-0.01 939.81c-0.45,137.39 -49.14,110.06 287.88,110.06l0 -1092.21c0,-78.15 -27.16,-120.59 -74.57,-154.03 -82.61,-58.28 -290.74,-78.74 -401.07,8.6 -41.36,32.73 -63.07,74.75 -84.36,127.31l-264.06 591.07c-23.3,50.01 -45.41,94.62 -66.13,145.53l-66.55 153.59c-32.76,-24 -232.23,-516.03 -262.23,-584.43 -47.65,-108.65 -130.13,-349.07 -209.56,-425.45 -112.21,-107.9 -349.14,-65.3 -415.11,-12.49 -49.81,39.87 -69.83,89.71 -69.83,175.7z"/>
   <path class="fil1" d="M6748.79 6458.18c-182.14,0 -431.8,38.91 -431.8,-143.93l0 -635.01c0,-107.55 173,-118.53 254,-118.53 113.81,0 403.01,-15.47 485.75,30.71 51.17,28.56 64.58,71.93 64.58,147.09l0 541.87c0,94.53 -17.23,108.51 -67.73,152.4l-183.67 -163.46c-31.43,-25.32 -93.63,-14.34 -163.46,-14.34 -59.27,0 -118.54,0 -177.8,0 38.28,33.28 70.38,67.67 111.32,100.34 12.16,9.7 104.06,95.76 108.81,102.86zm-736.6 -795.87l0 694.27c0,352.04 592.87,301.19 838.24,287.9 95.91,-5.19 69.88,-43.02 188.18,74.21 26.36,26.13 45.17,35.52 72.16,63.31 31.97,32.91 34.28,48.22 94.68,49.26 92.33,1.57 187.26,-0.55 279.94,-0.55l-129.5 -124.5c-29.37,-24.56 -40.11,-32.08 -67.28,-59.71 -23.16,-23.55 -50.94,-39.3 -65.69,-61.32 108.08,-25.18 160.87,-140.19 160.87,-262.47l0 -635c0,-115.19 -45.89,-182.92 -116.67,-230.46 -61.31,-41.19 -174.28,-82.81 -272.8,-82.81l-592.66 0c-156.36,0 -389.47,87.85 -389.47,287.87z"/>
   <path class="fil0" d="M6681.06 3909.71c0,26.2 -18.72,65.87 -25.59,92.95 -47.28,186.26 -59.08,203.87 -59.08,406.58 0,178.13 105.57,516.47 279.4,516.47 127.6,0 127.92,-135.98 139.04,-208.09 6.08,-39.41 13.36,-62.77 13.36,-105.18l16.93 0c7.35,31.55 67.6,148.25 86.07,176.4 35.56,54.16 82.18,97.69 127.72,143.22 22.99,22.99 43.69,46.83 68.1,67.36 25.68,21.59 51.11,37.91 75.77,59.7 43.83,38.73 89.61,106.44 150.34,120.59 -51.3,-76.61 -115.64,-80.67 -295.86,-381.47 -43.89,-73.25 -79.93,-141.75 -119.01,-219.66l-101.59 -237.07c-19.17,6.94 -6.96,1.19 -20.17,13.69 -6.05,5.73 -13.18,16.16 -18.69,23.65 -77.86,105.91 -91.49,113.76 -114.05,275.42 -5.3,37.96 -16.43,105.04 -16.43,144.44 -72.34,-1.61 -98.07,-88.79 -124.69,-154.71 -58.68,-145.34 -60.88,-397.15 -9.84,-547.09 50.63,-148.71 94.7,-191.58 9.72,-274.05 -28.12,-27.29 -34.31,-36.52 -56.53,-70.47 -31.9,-48.74 -61.52,-114.19 -82.21,-171.8 -89.82,-250.09 -68.56,-287.54 -245.61,-507.92 -41.03,-51.08 -91.97,-111.37 -91.97,-178.96 0,-53.95 47.27,-61.46 86.78,-53.85 80.86,15.59 266.41,108.47 317.49,157.57 48.08,46.21 28.2,33.33 108.45,43.95 196.48,26.03 170.78,-8.87 379.1,95.04 267.39,133.36 507.09,356.93 666.05,595.49 133.85,200.89 123.3,217.16 211.55,414.98l200.39 426.15c103.78,189.46 187.28,122.52 398.25,228.28 65.49,32.83 197.85,132.06 285.51,188.62 33.43,21.56 70.48,39.67 81.17,79.7 -186.07,0 -282.26,5.56 -445.56,70.92 -25.06,10.03 -30.4,14.75 -45.51,30.68 32.11,120.27 145.02,206.74 229.88,269.66 105.64,78.32 115.44,67.63 213.27,116.93 99.8,50.28 119.51,65.65 207.64,131.03 43.93,32.6 36.09,36.09 94.28,75.05 -4.79,-57.55 -120.41,-179.52 -171.33,-235.07 -51.35,-56.03 -161.71,-136.1 -232.2,-174.2 -50.11,-27.09 -133.27,-74.48 -146.81,-132.6 33.18,-2.76 78.3,-17.36 110.06,-25.41 85.01,-21.53 163.25,-24.59 230.4,-40.53 35.49,-8.43 76.35,-24.53 108.28,-27.19 -3.76,-45.15 -15.98,-42.98 -39.73,-70.34 -90.85,-104.7 -28.68,-54.32 -167.13,-163.07 -175.06,-137.49 -218.44,-170.72 -411.35,-257.51 -179.29,-80.67 -124.71,-30.32 -219.99,-220.28l-210.46 -458.41c-65.07,-163.22 -167.4,-310.06 -277.99,-441.68 -13.04,-15.51 -12.24,-17.73 -25.97,-33.3 -73.21,-83.01 -147.24,-147.89 -228.47,-220.26l-193.5 -145.17c-46.96,-31.25 -86.43,-55.46 -135.18,-84.96 -49.12,-29.72 -93.08,-49.03 -154.22,-65.91 -266.08,-73.45 -268.7,-6.13 -359.65,-89.08 -40.74,-37.17 -83.94,-57.77 -136.11,-84.03 -88.21,-44.39 -236.72,-108.9 -344.25,-53.53 -103.96,53.53 -114.59,186.09 -44.18,298.03 64.79,103.01 193.43,223.16 222.02,336.78 9.07,36.07 14.42,51.17 26.3,83.77 55.6,152.54 77,246.43 173.2,385.6 10.55,15.27 54.39,59.28 54.39,64.15z"/>
   <path class="fil0" d="M3099.65 6381.98c0,168.53 265.22,254 431.8,254l592.67 0c0,79.4 25.61,114.7 -25.62,160.64 -34.92,31.32 -102.68,42.56 -169.12,42.56l-821.26 0 0 186.27 889 0c119.05,0 300.33,-53.98 364.27,-143.74 23.19,-32.56 50.6,-71.97 50.6,-127.2l0 -999.07 -279.4 0 0 702.74c-70.07,0 -106.12,8.47 -177.81,8.47 -99.57,0 -401.05,5.89 -487.91,-11.63 -54.47,-10.98 -87.82,-44.62 -87.82,-106.91l0 -592.67 -279.4 0 0 626.54z"/>
   <path class="fil1" d="M4623.65 5628.44l0 211.67c0,157.65 228.23,237.07 389.22,245.79 94.34,5.11 418.14,6.07 462.82,19.77 104.29,31.98 79.3,87.75 79.3,259.38 0,67.57 -111.38,85.2 -177.69,84.78l-652.06 -0.13c-131.89,-0.43 -110.05,-35.02 -110.05,194.75l812.8 0c167.1,0 414.86,-88.4 414.86,-279.4l0 -203.2c0,-152.23 -238.24,-244.11 -397.59,-245.88 -106.83,-1.18 -215.11,0.11 -322.08,0.35 -248.31,0.57 -220.13,-62.79 -220.13,-262.48 0,-77.66 83.23,-93.13 160.87,-93.13l787.4 0 0 -186.27 -872.07 0c-80.25,0 -186.5,36.65 -235.64,69.16 -59.41,39.31 -119.96,104.3 -119.96,184.84z"/>
   <path class="fil1" d="M7544.66 6297.31c0,284.97 259.57,347.14 508,347.14l719.67 0c0,-242.21 47.66,-194.74 -237.07,-194.74l-533.7 0.3c-79.12,0.09 -169.04,-28.54 -169.04,-101.9l0 -973.67 -287.86 0 0 922.87z"/>
   <path class="fil1" d="M9026.33 6475.11l0 169.34 42.33 0 0 -118.54 42.33 118.54 42.34 0c6.59,-28.3 22.63,-87.41 42.33,-110.07l0 110.07 42.33 0 0 -194.74 -59.26 0c-6.48,27.78 -30.16,103.41 -50.8,118.54 -10.59,-45.42 -32.72,-77.24 -42.34,-118.54 -31.22,0 -59.26,-7.48 -59.26,25.4z"/>
   <path class="fil0" d="M6774.19 3249.31c18.67,35.29 40.24,55.29 65.32,87.08 26.8,33.98 35.03,69.75 53.21,107.65 101.93,-27.21 60.07,-203.2 -59.26,-203.2 -29.05,0 -32.98,5.72 -59.27,8.47z"/>
   <path class="fil1" d="M8856.99 6492.05l33.87 0 0 152.4 50.8 0 0 -152.4 50.8 0c-1.19,-53.27 4.84,-42.34 -135.47,-42.34 -36.19,0 -36.19,42.34 0,42.34z"/>
  </g>
 </g>
</svg>
