<?xml version="1.0" encoding="UTF-8"?>
<!DOCTYPE svg PUBLIC "-//W3C//DTD SVG 1.1//EN" "http://www.w3.org/Graphics/SVG/1.1/DTD/svg11.dtd">
<!-- Creator: CorelDRAW 2018 (64 Bit Versão de avaliação) -->
<svg xmlns="http://www.w3.org/2000/svg" xml:space="preserve" width="100mm" height="100mm" version="1.1" style="shape-rendering:geometricPrecision; text-rendering:geometricPrecision; image-rendering:optimizeQuality; fill-rule:evenodd; clip-rule:evenodd"
viewBox="0 0 10000 10000"
 xmlns:xlink="http://www.w3.org/1999/xlink">
 <defs>
  <style type="text/css">
   <![CDATA[
    .str0 {stroke:white;stroke-width:150;stroke-miterlimit:22.9256}
    .fil0 {fill:white}
   ]]>
  </style>
 </defs>
 <g id="Camada_x0020_1">
  <metadata id="CorelCorpID_0Corel-Layer"/>
  <g id="_1353422575760">
   <path class="fil0 str0" d="M8360.56 4013.18l847.69 425.88c0.88,506.13 -211.97,1756.7 -281.93,2402.59l-141.5 777.71 -424.26 -3606.18zm-7848.74 -885.3l0 -68.46 2280 -2245.45 1609.01 1643.61c577.11,-134.44 1226.87,-287.54 1785.43,-406.55 2116.27,-450.95 2078.64,-717.98 2240.42,128.28l435.66 1685.62c69.98,67.08 575.31,294.26 700.27,360.39 0,805.29 -189.73,1718.61 -276.88,2480.78 -114.63,1002.4 -61.06,2044.61 -713.05,2044.61l-7141.63 0c-581.71,0 -562.02,-1608.26 -649.05,-2391.44 -90.66,-815.72 -270.18,-1818.8 -270.18,-2699.62 187.7,-90.07 75.67,-64.54 353.55,-70.72 -145.23,-216.86 -264.42,-220.62 -353.55,-461.05zm353.55 814.6l7141.64 0c5.5,246.97 92.88,792.04 120.66,1010.69 47.4,373.2 91.47,675.04 91.47,1039.88l-2406.3 8.35c-402.5,100.34 -87.17,345.19 72.88,345.19l2404.12 0 158.35 1547.02c27.66,210.98 146.15,351.71 -46.7,468.15 -142.98,86.33 -6565.1,35.41 -7041.16,35.41 -52.68,-633.01 -212.12,-1369.34 -212.12,-2050.58l2050.57 0c271.55,0 325.57,-27.24 353.54,-282.84 -271.06,-152.27 -2040.58,-70.7 -2474.83,-70.7 0,-666.93 -212.12,-1408.38 -212.12,-2050.57zm5868.86 -353.55l-494.95 0c16.96,-203.85 0.43,-271.92 178.45,-249.91 88.58,10.95 273.53,191.26 316.5,249.91zm-1697.02 -141.42c119.01,59.01 124.26,65.05 212.14,141.42 -437.13,-37.26 -112.06,-28.57 -212.14,-141.42zm848.51 70.72c-267.52,-141.57 -785.75,-501.64 -1060.64,-565.68 -159.91,302.22 -141.41,242.58 -141.41,636.38 -833.48,0 -856.98,111.56 -919.22,-636.38l3167.16 -721.85c324.74,-76.86 737.78,-197.38 1146.11,-197.38 0,554.25 271.23,1035.1 282.84,1555.61l-919.23 0c-194.38,0 -867.94,-683.49 -1272.77,-777.8 -151.04,225.56 -212.02,403.17 -282.84,707.1zm-2474.82 -848.51c0,332.77 37.61,702.86 141.42,919.21 -518.36,0 -1038.67,-4.45 -1556.78,1.18 -510.5,5.56 -674.73,78.4 -1059.46,-496.14l1784.42 -1821.79 1273.27 1238.92c-151.84,81.8 -394.68,142.95 -582.87,158.62z"/>
   <path class="fil0 str0" d="M4683.67 6558.72c-460.11,0 -494.96,-34.84 -494.96,-494.97 0,-307.16 429.55,-461.75 693.9,-197.39 233.51,233.52 115.27,692.36 -198.94,692.36zm-848.52 -565.67c0,1235.64 1228.36,1110.44 1474.06,407.78 269.28,-770.09 -703.85,-1344.39 -1271.4,-770.97 -62.55,63.2 -202.66,253.09 -202.66,363.19z"/>
   <path class="fil0 str0" d="M1431.05 3093.97c0,647.13 841.65,-382.01 901.56,-441.92 164.26,-164.28 714.79,-567.18 595.57,-787.11 -157.62,-290.78 -631.13,327.58 -772.38,468.88 -104.04,104.08 -724.75,686.99 -724.75,760.15z"/>
   <path class="fil0 str0" d="M7299.91 2811.13c129.13,-64.02 88.54,-54.15 282.84,-70.71l0 212.13c-328.4,-27.33 -123.66,75.84 -282.84,-141.42zm212.13 494.96c172.4,0 637.54,-357.35 282.62,-777.59 -147.45,-174.61 -289.74,-141.62 -565.45,-141.62 -117.45,175.36 -285.56,281.9 -240.7,532.91 45.21,252.95 251.86,386.3 523.53,386.3z"/>
   <path class="fil0 str0" d="M2350.27 3093.97c0,598.04 689.43,-229.56 689.54,-229.68 229.9,-227.37 362.52,-233.87 371.09,-618.83 -377.98,8.41 -361.82,108.49 -583.63,335.59 -82.03,84 -477,441.8 -477,512.92z"/>
  </g>
 </g>
</svg>
