<?xml version="1.0" encoding="UTF-8"?>
<!DOCTYPE svg PUBLIC "-//W3C//DTD SVG 1.1//EN" "http://www.w3.org/Graphics/SVG/1.1/DTD/svg11.dtd">
<!-- Creator: CorelDRAW 2018 (64 Bit Versão de avaliação) -->
<svg xmlns="http://www.w3.org/2000/svg" xml:space="preserve" width="100mm" height="100mm" version="1.1" style="shape-rendering:geometricPrecision; text-rendering:geometricPrecision; image-rendering:optimizeQuality; fill-rule:evenodd; clip-rule:evenodd"
viewBox="0 0 10000 10000"
 xmlns:xlink="http://www.w3.org/1999/xlink">
 <defs>
  <style type="text/css">
   <![CDATA[
    .str0 {stroke:white;stroke-width:400;stroke-miterlimit:22.9256}
    .str1 {stroke:white;stroke-width:20;stroke-miterlimit:22.9256}
    .fil0 {fill:white}
   ]]>
  </style>
 </defs>
 <g id="Camada_x0020_1">
  <metadata id="CorelCorpID_0Corel-Layer"/>
  <path class="fil0 str0" d="M1657.39 524.42l4590.21 0 0 1772.22 2262.77 0 0 7188.68 -6852.98 0 0 -8960.9zm1972.21 3967.41l601.92 596.77 -999.72 1008.35 1006.22 997.62 -594.66 599.78 -1608.15 -1594.37 1594.39 -1608.15zm1617.44 -730.45l671.98 152.36 -1033.45 4557.76 -671.97 -152.36 1033.44 -4557.76zm1291.13 722.42l-601.91 596.77 999.71 1008.36 -1006.21 997.61 594.66 599.79 1608.14 -1594.38 -1594.39 -1608.15z"/>
  <polygon class="fil0 str1" points="6790.62,254.41 7726.07,1042.43 8661.51,1830.46 7725.47,1830.46 6789.43,1830.46 6790.03,1042.43 "/>
 </g>
</svg>
