<?xml version="1.0" encoding="UTF-8"?>
<!DOCTYPE svg PUBLIC "-//W3C//DTD SVG 1.1//EN" "http://www.w3.org/Graphics/SVG/1.1/DTD/svg11.dtd">
<!-- Creator: CorelDRAW 2018 (64 Bit Versão de avaliação) -->
<svg xmlns="http://www.w3.org/2000/svg" xml:space="preserve" width="100mm" height="100mm" version="1.1" style="shape-rendering:geometricPrecision; text-rendering:geometricPrecision; image-rendering:optimizeQuality; fill-rule:evenodd; clip-rule:evenodd"
viewBox="0 0 10000 10000"
 xmlns:xlink="http://www.w3.org/1999/xlink">
 <defs>
  <style type="text/css">
   <![CDATA[
    .str0 {stroke:#110239;stroke-width:20;stroke-miterlimit:22.9256}
    .fil1 {fill:#110239}
    .fil0 {fill:#C70039}
   ]]>
  </style>
 </defs>
 <g id="Camada_x0020_1">
  <metadata id="CorelCorpID_0Corel-Layer"/>
  <path class="fil0" d="M7757.08 2264.08l-5425.73 0c-204.39,0 -370.59,166.25 -370.59,370.61l0 4861.13c0,204.35 166.2,370.59 370.59,370.59l5425.74 -0.01c204.32,0 370.53,-166.24 370.53,-370.59l0 -4861.12c0.05,-204.34 -166.22,-370.61 -370.54,-370.61zm-1117.38 622.32c0,-75.57 61.26,-136.85 136.82,-136.85l136.85 0c75.6,0 136.81,61.26 136.81,136.85l0 155.09c0,75.58 -61.26,136.84 -136.81,136.84l-136.85 0c-75.56,0 -136.82,-61.26 -136.82,-136.84l0 -155.09zm-636.32 0c0,-75.57 61.3,-136.85 136.86,-136.85l136.81 0c75.56,0 136.85,61.26 136.85,136.85l0 155.09c0,75.58 -61.29,136.84 -136.85,136.84l-136.81 0c-75.56,0 -136.86,-61.26 -136.86,-136.84l0 -155.09zm1679.52 4535.27l-5277.43 0 0 -3832.28 5277.43 0 0 3832.28 0 0zm3.6 -4380.18c0,75.58 -61.26,136.84 -136.81,136.84l-136.85 0c-75.62,0 -136.84,-61.26 -136.84,-136.84l0 -155.09c0,-75.57 61.26,-136.85 136.84,-136.85l136.85 0c75.57,0 136.81,61.26 136.81,136.85l0 155.09z"/>
  <path class="fil1 str0" d="M3284.51 5650.05l991.96 461.29c25.65,11.88 52.95,17.9 81.17,17.9 36.77,0 72.6,-10.44 103.75,-30.26 55.78,-35.64 89.09,-96.39 89.09,-162.49l0 -5.07c0,-74.72 -43.79,-143.34 -111.58,-174.82l-620.4 -288.25 620.4 -288.3c67.79,-31.51 111.58,-100.11 111.58,-174.81l0 -5.01c0,-66.2 -33.32,-126.98 -89.09,-162.5 -30.83,-19.7 -66.76,-30.12 -103.86,-30.12 -27.98,0 -56.03,6.15 -81.14,17.81l-991.89 461.25c-67.73,31.51 -111.48,100.14 -111.48,174.81l0 13.78c-0.02,74.55 43.71,143.16 111.49,174.79z"/>
  <path class="fil1 str0" d="M4559.32 6589.62c36.18,49.52 94.38,79.09 155.67,79.09l4.97 0c84.16,0 157.89,-53.87 183.53,-133.92l653.43 -2024.69c18.75,-58.43 8.35,-122.93 -27.85,-172.54 -36.18,-49.53 -94.37,-79.1 -155.68,-79.1l-4.96 0.01c-84.19,0 -157.99,53.85 -183.64,133.91l-653.49 2024.84c-18.6,58.51 -8.13,122.92 28.02,172.4z"/>
  <path class="fil1 str0" d="M5537.89 5005.23c0,74.61 43.76,143.24 111.57,174.91l620.4 288.21 -620.4 288.22c-67.78,31.51 -111.57,100.14 -111.57,174.82l0 5.07c0,66.12 33.29,126.86 89.13,162.52 31.04,19.78 66.89,30.26 103.7,30.26 28.2,0 55.48,-6.02 81.3,-17.96l991.89 -461.28c67.73,-31.59 111.49,-100.19 111.49,-174.77l0 -13.79c0,-74.66 -43.76,-143.29 -111.56,-174.81l-991.89 -461.24c-25.02,-11.64 -53.03,-17.78 -81.01,-17.78 -37.03,0 -73.01,10.39 -103.84,30.06 -55.84,35.59 -89.16,96.35 -89.16,162.55l0 4.99 -0.05 0 0 0.02z"/>
  <g id="_1799914785936">
  </g>
  <g id="_1799914786096">
  </g>
  <g id="_1799914786544">
  </g>
  <g id="_1799914786288">
  </g>
  <g id="_1799914784688">
  </g>
  <g id="_1799914783280">
  </g>
  <g id="_1799914783728">
  </g>
  <g id="_1799914784240">
  </g>
  <g id="_1799914782576">
  </g>
  <g id="_1799914782960">
  </g>
  <g id="_1799914782864">
  </g>
  <g id="_1799914782000">
  </g>
  <g id="_1799914782736">
  </g>
  <g id="_1799914780016">
  </g>
  <g id="_1799914779728">
  </g>
  <g id="_1799914779632">
  </g>
  <g id="_1799914780496">
  </g>
  <g id="_1799914777360">
  </g>
  <g id="_1799914778000">
  </g>
  <g id="_1799914778960">
  </g>
  <g id="_1799914778160">
  </g>
  <g id="_1799914778352">
  </g>
  <g id="_1799914776240">
  </g>
  <g id="_1799914775760">
  </g>
  <g id="_1799914775536">
  </g>
  <g id="_1799914776752">
  </g>
  <g id="_1799914774192">
  </g>
  <g id="_1799914774832">
  </g>
  <g id="_1799914773840">
  </g>
  <g id="_1799914773456">
  </g>
 </g>
</svg>
