<?xml version="1.0" encoding="UTF-8"?>
<!DOCTYPE svg PUBLIC "-//W3C//DTD SVG 1.1//EN" "http://www.w3.org/Graphics/SVG/1.1/DTD/svg11.dtd">
<!-- Creator: CorelDRAW 2018 (64 Bit Versão de avaliação) -->
<svg xmlns="http://www.w3.org/2000/svg" xml:space="preserve" width="100mm" height="100mm" version="1.1" style="shape-rendering:geometricPrecision; text-rendering:geometricPrecision; image-rendering:optimizeQuality; fill-rule:evenodd; clip-rule:evenodd"
viewBox="0 0 10000 10000"
 xmlns:xlink="http://www.w3.org/1999/xlink">
 <defs>
  <style type="text/css">
   <![CDATA[
    .str0 {stroke:white;stroke-width:20;stroke-miterlimit:22.9256}
    .fil0 {fill:white}
   ]]>
  </style>
 </defs>
 <g id="Camada_x0020_1">
  <metadata id="CorelCorpID_0Corel-Layer"/>
  <path class="fil0 str0" d="M3637.26 1199.05c73.39,60.41 242.94,144.9 347.09,206.9 -14.35,80.87 -325.59,622.1 -378.97,674.01 -186.69,80.68 -2554.41,-96.54 -2845.45,66.99 -251.31,141.2 -249.97,353.68 -249.97,715.27l-0.39 4557.63c0.13,391.65 99.13,689.82 560.82,689.82l2415.35 -0.32c5.99,87.49 -195.67,392.42 -275.23,581.24l-1009.81 -1.76c-104.42,7.59 -180.35,-19.17 -150.09,350.09 12.74,156.02 98.74,112.54 260.3,112.54l4395.81 0.03c165.87,-0.77 229.21,43.1 246.28,-110.37 11.48,-103.01 7.3,-258.13 -30.54,-336.39 -329.86,-33.98 -769.2,-15.48 -1111.67,-14.81 -47.52,-131.84 -274.05,-489.18 -276.64,-580.18l2332.22 -0.07c219.96,0.03 396.78,-47.08 499.82,-162.93 179.91,-202.29 127.89,-727.59 127.95,-1012.31l0.29 -462.88c78.35,37.74 528.02,536.41 652.3,639.52 180.41,149.74 293.55,-15.48 395.63,-118.93 456.25,-462.49 218.15,-332.51 -444.37,-1046.44l-485.93 -485.49c-95.05,-84.51 -116.87,-75.36 -117.72,-224.78l0.16 -2615.92c0.05,-399.97 -233.9,-536.65 -628.13,-536.65l-3640 -1.04c42.33,-124.21 163.08,-328.85 242.01,-401.67 106.2,52.62 228.19,149.08 350.56,171.75l420.36 -715.66c-84.99,-98.86 -439.56,-289.34 -566.42,-368.4 -114.38,-71.28 -497.38,-314.16 -613.45,-329.34 -114.22,201.9 -403.12,610.21 -422.17,760.55zm-2561.29 5424.94l380.12 -1.47c43.73,-221.56 5.58,-2444.46 7.89,-3060.35l11.1 -129.86c2.19,-8.02 5.69,-15.33 8.09,-22.27l897.88 -55.27 6.27 3273.97 5527.37 -4.56c26.6,-102.12 35.76,-609.93 6.17,-711.07 -29.55,-101.03 -589.17,-619.3 -720.02,-740.34 -135.21,-125.07 -247.89,-244.2 -377.59,-377.54 -244.7,-251.63 -472.13,-489.37 -722.19,-734.12 -169.39,-165.77 -181.24,-156.69 -282.15,-446.73 -40.35,-115.98 -193.28,-455.69 -167.1,-532.48 5.77,-4.49 16.15,-16.46 19.54,-10l695.36 210.26c153.07,56.37 426.28,338.52 543.08,455.87 165.37,166.14 897.75,922.75 1021.93,1003.63l-1.52 -2095.12 -4049.23 2.37c-160.93,288.03 -335.89,585.16 -486.16,864.09 -141.27,4.32 -355.28,-131.43 -441.2,-219.28 19.12,-155.82 260.76,-468.19 329.52,-643.22l-2207.07 -1.7 -0.09 3975.19zm521.49 -2830.07c160.15,49.85 185.98,-37.07 202.25,129.07l-203.7 28.58 0.58 244.01 347.64 19.88c-12.52,127.19 13.47,115.4 -115.95,124.89 -52.61,3.85 -169.35,-3.44 -229.46,-3.67l-3.57 287.42c159.68,0.81 189.71,-31.16 202.24,106.63l-201 33.7 0.07 241.69 347.12 22.49c-17.58,247.97 -65.87,54.63 -346.26,138.02l1.98 262.55c135.4,17.14 146.7,-31.92 203.05,75.91 -60.71,102.14 -72.82,47.61 -201.11,72.71l-4.69 239.4c99.28,27.93 108.3,11.95 204.43,14.25 143.11,3.44 130.44,-10.84 141.33,116.32l-346.08 21.08 2.14 271.7c129.82,18.26 145.69,-28.03 204.46,73.58 -58.64,103.36 -72.75,56.48 -200.16,74.89l-3.41 228.05 648.07 7.82 11.88 -3140.98 -662.94 0.63 1.09 309.38zm4978.32 93.07c142.16,185.19 835.46,836.41 1050.52,1049.44l943.78 916.68c58.38,53.67 101.82,72.01 66.92,179.16 -118.81,9.98 -116.67,-40.17 -288.55,-200.03 -45.71,-42.52 -21.22,-21.11 -64.28,-70.33 -277.18,-316.74 -937.47,-929.89 -1272.65,-1262.71 -118.4,-117.57 -436.48,-452.53 -547.51,-521.54 -29.65,29.96 -80.74,71.88 -119.58,125.11 234.76,272.55 871.54,855.41 1135.32,1141.77 90.74,98.52 182.06,187.86 281.1,285.21 111.47,109.56 168.52,176.41 284.56,281.89 50.42,45.8 90.93,77.45 136.87,132.12 169.79,201.87 199.52,194.81 349.1,351.7l90.07 85.24 350.7 -333.61c-43.2,-109.19 -1026.66,-1056.57 -1131.84,-1163.27 -193.66,-196.54 -371.93,-371.34 -566.14,-566.24 -107.38,-107.76 -498.9,-527.63 -594.43,-573.12 -56.28,61.34 -81.38,67.33 -103.96,142.53zm-3464.05 -647.23l209.41 123.02 1005.02 -1741.1 -205.77 -138.46c-116.28,127.56 -393.82,670.03 -506.99,873.09 -165.31,296.67 -351.8,578.98 -501.67,883.45zm3124.66 763.69c107.76,-116.55 208.22,-222.26 348.76,-359.16 -171.85,-270.17 -411.25,-262.44 -759.03,-420.46 7.25,107.35 105.87,323.05 143.52,427.91 50.81,141.35 150.4,249.02 266.75,351.71zm2675.74 2688.26c54.54,70.23 252.82,258.64 356.57,344.32 103.82,-38.1 287.9,-259.05 373.99,-344.32 -39.72,-87.69 -267.87,-291.99 -347.02,-371.62 -92.41,36.12 -322.05,275.07 -383.54,371.62zm-4925.96 -5884.59l967.63 570.06c62.76,-53.14 103.94,-138.37 121.94,-213.95l-957.96 -562.83 -131.61 206.72zm-184.3 329.12l983.37 557.96c34.31,-52.87 78.93,-140.49 102.06,-195.09l-958.31 -562.99c-66.66,55.84 -94.62,119.28 -127.12,200.12zm602.97 6238.79c-239.5,104.72 -109.99,545.78 194.51,419.46 284.54,-118.04 109.65,-552.48 -194.51,-419.46z"/>
 </g>
</svg>
