<?xml version="1.0" encoding="UTF-8"?>
<!DOCTYPE svg PUBLIC "-//W3C//DTD SVG 1.1//EN" "http://www.w3.org/Graphics/SVG/1.1/DTD/svg11.dtd">
<!-- Creator: CorelDRAW 2018 (64 Bit Versão de avaliação) -->
<svg xmlns="http://www.w3.org/2000/svg" xml:space="preserve" width="100mm" height="100mm" version="1.1" style="shape-rendering:geometricPrecision; text-rendering:geometricPrecision; image-rendering:optimizeQuality; fill-rule:evenodd; clip-rule:evenodd"
viewBox="0 0 10000 10000"
 xmlns:xlink="http://www.w3.org/1999/xlink">
 <defs>
  <style type="text/css">
   <![CDATA[
    .fil3 {fill:white}
    .fil0 {fill:url(#id0)}
    .fil1 {fill:url(#id1)}
    .fil2 {fill:url(#id2)}
   ]]>
  </style>
  <linearGradient id="id0" gradientUnits="userSpaceOnUse" x1="-7973.18" y1="3973.91" x2="-5130.09" y2="5656.82">
   <stop offset="0" style="stop-opacity:1; stop-color:#909CA9"/>
   <stop offset="1" style="stop-opacity:1; stop-color:#EDEDEE"/>
  </linearGradient>
  <linearGradient id="id1" gradientUnits="userSpaceOnUse" x1="-7918.46" y1="35613.71" x2="-5628.94" y2="35613.71">
   <stop offset="0" style="stop-opacity:1; stop-color:#939FAB"/>
   <stop offset="1" style="stop-opacity:1; stop-color:#DCDEE1"/>
  </linearGradient>
  <radialGradient id="id2" gradientUnits="userSpaceOnUse" gradientTransform="matrix(-0.670458 -0.100746 -0.203684 1.34139 8582 -699)" cx="4718.06" cy="3439.82" r="2388.6" fx="4718.06" fy="3439.82">
   <stop offset="0" style="stop-opacity:1; stop-color:#EE352C"/>
   <stop offset="1" style="stop-opacity:1; stop-color:#A91D22"/>
  </radialGradient>
 </defs>
 <g id="Camada_x0020_1">
  <metadata id="CorelCorpID_0Corel-Layer"/>
  <g id="_2371313811776">
   <path class="fil0" d="M6620.59 3605.47l-971.7 317.3 -845.36 373.1 -236.5 62.44c-60.23,57.29 -123.39,115.32 -191.69,174.07 -74.92,64.63 -144.69,123.4 -198.31,165.99 -59.49,47.01 -147.63,135.14 -192.43,190.95 -66.84,83.73 -119.71,172.59 -142.48,240.91 -40.4,123.39 -20.56,248.24 57.29,363.56 99.89,146.89 298.93,296.71 531.01,398.81 118.26,52.15 317.29,118.98 467.12,156.44 248.98,63.16 730.79,131.47 995.92,141.76 53.61,2.2 125.59,2.2 128.52,0 5.89,-3.69 47.02,-82.26 94.76,-179.94 163.06,-332.72 280.57,-644.87 344.46,-911.47 38.19,-161.58 68.3,-376.78 88.12,-631.63 5.15,-71.24 7.35,-309.94 2.94,-390.74 -6.61,-132.2 -18.36,-239.43 -36.71,-344.46 -2.94,-15.42 -3.68,-29.38 -2.21,-30.11 2.93,-2.21 11.74,-5.14 131.46,-39.67l-24.22 -57.28 0 -0.02 0.01 0 0 -0.01zm-221.81 130.01c8.81,0 32.31,225.48 38.18,367.97 1.48,30.11 0.73,49.94 -0.73,49.94 -5.87,0 -124.13,-69.76 -208.58,-122.64 -73.45,-46.28 -212.99,-138.83 -235.02,-156.45 -7.36,-5.14 -6.63,-5.87 53.61,-26.44 102.08,-34.53 344.46,-112.38 352.54,-112.38zm-495.03 163.06c6.61,0 23.5,9.53 63.89,34.51 151.3,94.75 356.96,209.33 445.09,247.53 27.17,11.75 30.1,7.33 -32.32,49.94 -133.67,91.07 -300.4,180.67 -504.58,271.01 -35.99,16.16 -66.1,28.64 -66.83,28.64 -1.46,0 2.93,-18.35 8.8,-40.39 49.21,-182.89 77.13,-367.98 78.6,-516.34 0.74,-73.45 0.74,-73.45 7.35,-75.64 -1.48,0.74 -0.74,0.74 0,0.74zm-102.09 38.92c4.4,4.4 1.47,168.93 -4.41,213.73 -13.22,107.23 -33.79,207.11 -67.56,319.5 -8.08,27.15 -15.44,49.93 -16.89,51.4 -2.96,3.67 -103.58,-94.75 -136.63,-132.94 -57.29,-66.11 -102.08,-132.21 -135.13,-196.84 -16.9,-33.05 -43.33,-97.67 -41.13,-99.88 11.75,-8.08 398.81,-157.9 401.75,-154.97l0 0zm-480.34 188.75c0.73,0 1.46,0 2.21,0.73 1.46,1.47 6.61,13.23 11.02,26.44 23.49,63.9 76.37,157.91 121.92,218.14 49.94,66.11 115.31,136.61 169.65,182.88 17.63,14.69 33.78,28.64 35.98,30.85 4.41,4.41 5.88,3.66 -113.84,49.21 -138.8,52.88 -290.11,105.76 -463.44,161.57 -38.43,10.89 -83.59,27.82 -123.1,39.11 -6.62,2.21 -4.41,-1.47 14.68,-31.58 85.93,-134.41 216.66,-398.08 290.11,-584.63 12.49,-32.32 24.98,-64.63 27.18,-71.98 2.94,-10.29 6.61,-13.95 16.15,-19.1 5.14,-1.45 10.29,-2.93 12.49,-2.93l-1.01 1.29zm-383.38 730.78c2.19,1.48 -35.27,80.06 -71.99,152.04 -71.24,138.81 -149.09,275.43 -253.38,441.41 -17.63,28.64 -34.52,55.09 -36.72,58.03 -3.67,5.14 -5.15,3.66 -16.9,-19.1 -24.97,-49.21 -45.54,-112.38 -56.55,-170.4 -11.03,-57.3 -8.82,-157.17 3.67,-218.87 9.54,-45.53 8.82,-44.79 30.85,-55.82 94.01,-47.73 398.08,-190.22 401.02,-187.29l0 0zm1266.93 51.42l0 30.85c0,163.78 -17.62,388.53 -43.34,552.32 -4.41,28.64 -8.09,52.13 -8.81,52.88 0,0 -21.3,-5.87 -46.27,-13.23 -110.16,-34.52 -229.88,-85.2 -337.85,-144.68 -71.26,-38.93 -174.81,-102.83 -171.86,-105.78 0.72,-0.72 31.57,-16.88 67.55,-35.98 143.98,-74.91 282.04,-155.7 401.76,-235.76 44.81,-30.12 112.37,-78.58 127.07,-91.81l11.75 -8.81 0 0zm-1821.46 217.39c2.93,0 2.2,5.88 -2.21,32.32 -2.94,19.1 -6.61,54.35 -8.07,78.58 -5.89,107.24 11.75,186.56 64.63,295.26 14.69,30.11 26.45,55.09 25.71,55.81 -5.15,4.42 -491.35,146.91 -644.13,188.77 -45.53,12.48 -85.19,23.5 -88.14,24.22 -5.13,1.48 -5.87,0.75 -3.67,-11.75 16.89,-107.96 99.16,-248.98 213.73,-367.96 76.39,-79.32 137.35,-125.59 241.64,-185.09 74.91,-42.59 190.22,-106.48 199.04,-109.42 0,-0.74 0.73,-0.74 1.46,-0.74l0.01 0zm1145.76 204.92c0.73,-0.73 18.36,8.82 39.65,21.3 157.18,91.08 376.05,175.54 562.59,218.87l16.9 3.68 -23.5 13.21c-97.68,54.35 -418.64,188.02 -746.94,310.68 -47.75,17.62 -94.75,35.26 -103.57,38.92 -8.81,3.67 -16.89,5.88 -16.89,5.15 0,-0.75 13.22,-26.45 30.1,-58.03 91.81,-171.86 184.36,-381.18 231.37,-526.6 5.89,-13.96 9.55,-26.44 10.29,-27.18l0 0zm-116.78 38.19c0.75,0.75 -5.14,16.16 -12.49,33.79 -63.89,154.97 -147.63,323.9 -254.86,513.39 -27.17,48.48 -49.94,87.41 -50.68,87.41 -0.73,0 -22.77,-13.23 -49.2,-29.39 -155.72,-95.48 -293.79,-212.99 -384.12,-326.83l-13.23 -16.16 66.83 -18.37c239.44,-65.36 442.87,-135.87 644.86,-222.53 28.65,-11.76 52.16,-21.31 52.89,-21.31l0 0zm725.65 253.39c0,0 0.73,0.74 0,0 0.73,16.9 -36.73,168.2 -67.58,277.62 -25.7,91.81 -47.75,163.79 -88.13,290.85 -17.63,55.83 -33.04,102.09 -33.79,102.09 -0.73,0 -5.14,-0.73 -9.54,-2.19 -218.13,-39.67 -413.5,-94.76 -597.12,-168.2 -51.42,-20.57 -124.86,-53.62 -129.26,-57.29 -1.47,-1.48 42.6,-22.04 98.42,-46.28 334.18,-146.15 680.84,-312.14 799.82,-383.37 13.95,-8.82 24.97,-13.22 27.18,-13.22l0 -0.01zm-1675.3 57.29c1.46,1.47 -91.81,135.88 -222.55,318.76 -45.54,63.9 -98.42,138.81 -118.24,166.72 -19.84,27.91 -49.95,71.98 -66.84,98.42l-30.86 47.74 -33.05 -27.91c-38.93,-32.32 -106.49,-101.36 -136.61,-139.55 -63.16,-78.58 -105.75,-161.58 -122.65,-237.22 -8.08,-35.26 -8.08,-52.9 -0.74,-55.09 11.01,-2.93 207.12,-49.21 390.74,-91.82 102.09,-23.49 220.33,-51.4 262.93,-61.68 42.6,-10.3 77.13,-18.37 77.87,-18.37l0 0zm94 36l23.5 26.43c105.77,118.25 213.74,205.67 344.47,282.03 23.51,13.23 41.13,24.98 39.65,25.73 -5.13,3.66 -453.89,163.03 -661.74,235.01 -116.78,41.12 -213,74.17 -213.72,74.17 -0.73,0 -7.35,-4.4 -14.7,-9.54l-13.22 -9.55 21.3 -30.84c69.03,-99.89 155.72,-209.32 344.47,-437l129.99 -156.44 0 0zm586.11 419.36c0.72,-0.73 33.04,11.02 72.7,25.72 95.49,35.99 171.12,58.75 272.49,84.46 124.86,31.59 305.54,62.43 412.04,71.24 16.16,1.47 24.97,2.94 22.03,5.15 -5.15,2.94 -113.1,38.93 -192.43,63.9 -126.33,39.65 -511.92,153.49 -826.27,243.84 -58.02,16.89 -107.97,30.84 -110.9,31.57 -7.34,1.48 -31.59,-5.14 -31.59,-8.08 0,-1.46 17.63,-24.22 38.93,-49.2 105.76,-126.33 210.79,-267.34 298.2,-401.01 24.22,-36.74 44.8,-66.85 44.8,-67.58l0 -0.01zm-129.28 3.69c0.73,0.73 -51.41,84.45 -142.47,228.4 -38.94,60.96 -82.27,130 -97.7,154.24 -14.69,23.51 -36.72,60.23 -49.2,80.79l-21.3 37.47 -11.01 -2.94c-26.45,-7.35 -212.27,-72.72 -261.48,-92.55 -60.96,-24.24 -124.12,-53.61 -171.13,-78.58 -58.75,-31.59 -132.19,-78.6 -126.32,-80.06 1.46,-0.73 102.09,-27.92 223.27,-60.96 321.69,-87.41 500.16,-138.08 616.95,-174.8 21.31,-6.61 39.66,-11.76 40.39,-11.01l0 0zm914.41 214.45l0.73 0c2.94,7.35 -116.04,337.85 -159.39,442.14 -9.53,23.51 -13.19,29.39 -18.34,28.64 -12.49,-0.72 -185.08,-24.96 -290.12,-40.39 -182.87,-27.9 -489.88,-81.53 -567,-99.15l-17.62 -3.67 109.42 -24.98c235.03,-52.88 348.14,-81.52 462.71,-116.78 144.69,-44.06 287.92,-99.15 432.6,-166.71 22.77,-10.29 41.86,-18.37 47.01,-19.1l0 0z"/>
   <path class="fil1" d="M5618.78 1340.4c-16.16,-2.19 -276.9,91.82 -445.08,160.11 -226.96,92.56 -403.22,180.7 -511.92,257.06 -40.39,28.66 -91.08,79.33 -99.15,99.16 -2.93,7.34 -4.41,16.16 -4.41,24.97l98.42 93.27 234.29 74.92 557.46 99.89 637.5 109.44 6.62 -55.09c-2.2,0 -3.68,-0.73 -5.86,-0.73l-83.75 -13.23 -16.88 -30.11c-86.67,-152.77 -182.15,-342.26 -237.96,-470.06 -43.33,-99.15 -84.47,-213.72 -107.24,-295.98 -12.49,-49.94 -13.95,-52.88 -22.02,-53.61l0 -0.02 -0.02 0.01 0 0zm-11.76 37.47l0.75 0c0.73,0.72 3.66,21.3 6.61,45.52 12.47,102.84 35.26,201.98 71.24,309.22 27.17,80.79 27.17,76.39 -4.41,66.83 -74.91,-20.56 -410.56,-78.58 -653.66,-112.36 -38.93,-5.15 -71.98,-10.29 -71.98,-11.02 -2.94,-2.93 175.53,-96.22 254.12,-132.93 100.62,-46.28 376.78,-161.59 397.33,-165.26l0 0zm-708.02 329.03l28.66 9.54c155.69,52.89 547.15,127.81 763.1,145.43 24.22,2.21 44.8,4.42 45.52,4.42 0.73,0.73 -19.82,11.75 -46.26,24.22 -104.29,52.15 -218.87,116.05 -298.19,165.26 -23.5,14.68 -44.81,26.44 -47.74,26.44 -2.94,0 -18.35,-2.94 -34.51,-5.14l-29.38 -4.42 -73.44 -71.98c-129.26,-125.58 -230.62,-222.53 -269.55,-259.26l-38.2 -34.51 -0.01 0zm-29.37 22.77l103.56 129.27c56.55,71.24 113.84,141.01 126.34,156.43 12.47,15.43 22.76,27.92 22.03,28.65 -2.94,2.21 -149.82,-26.44 -227.69,-44.06 -80.05,-18.37 -113.1,-27.18 -162.31,-42.6l-40.4 -13.23 0 -10.29c0.73,-49.21 63.17,-122.65 168.93,-197.56l9.55 -6.61 -0.01 0zm879.88 176.27c2.95,0 6.61,6.61 15.42,26.44 24.97,55.08 102.84,203.45 121.92,232.08 5.89,9.56 16.16,10.29 -87.39,-6.6 -248.98,-40.41 -329.04,-53.61 -329.04,-55.08 0,-0.73 7.35,-5.88 16.89,-11.02 77.12,-42.59 154.97,-96.95 224.02,-154.97 16.89,-13.96 32.31,-27.18 35.24,-29.39 0.74,-1.47 2.21,-2.2 2.95,-1.47l-0.01 0.01z"/>
   <path class="fil2" d="M4567.76 1846.45c0,0 -16.15,25.71 -0.73,63.9 9.56,23.5 37.46,52.14 69.04,81.52 0,0 326.83,318.76 366.49,364.3 180.67,208.58 259.27,414.23 266.61,697.74 4.41,182.14 -30.12,342.25 -116.05,528.07 -152.77,333.45 -475.2,701.42 -972.43,1109.78l72.73 -24.24c47,-35.26 110.9,-72.71 260.73,-154.97 345.92,-189.51 735.19,-363.57 1212.59,-542.78 687.44,-258.53 1817.79,-561.13 2461.16,-659.54l66.85 -10.29 -10.29 -16.16c-58.75,-91.08 -99.15,-147.62 -147.64,-207.85 -141,-174.8 -312.12,-316.55 -521.45,-434.07 -287.91,-160.84 -660.29,-286.43 -1131.8,-379.7 -88.87,-17.64 -284.24,-51.42 -442.88,-75.66 -336.39,-52.13 -553.79,-88.13 -793.22,-129.26 -85.92,-14.69 -214.46,-36.72 -299.66,-55.08 -44.07,-9.56 -128.52,-29.39 -194.62,-52.15 -52.88,-20.58 -129.27,-41.14 -145.43,-103.57l0 0.01zm189.5 183.62c0.73,-0.73 12.48,3.66 27.91,8.81 27.91,9.54 63.89,20.56 106.5,32.32 31.97,8.8 65.04,18.06 96.78,26 44.07,11.01 80.79,21.29 81.52,21.29 5.15,5.15 79.33,242.36 104.3,333.44 9.54,34.53 16.9,63.9 16.16,63.9 -0.75,0.74 -8.82,-11.75 -18.36,-28.64 -85.94,-151.3 -221.81,-304.8 -378.99,-428.2 -20.56,-14.67 -35.98,-27.89 -35.98,-28.63l0.16 -0.29zm495.76 141.01c3.68,0 19.84,2.21 39.66,6.61 124.86,27.91 348.87,70.51 492.09,94.75 24.24,3.67 43.34,8.08 43.34,9.54 0,1.48 -8.82,6.61 -19.84,12.49 -24.23,12.48 -121.92,70.5 -154.23,92.54 -81.53,54.35 -154.97,113.1 -207.85,165.98 -21.3,21.31 -39.67,38.93 -39.67,38.93 0,0 -4.39,-12.48 -8.08,-27.91 -26.43,-102.09 -81.52,-253.39 -131.46,-359.88 -8.08,-16.89 -14.7,-32.32 -14.7,-33.78 0,1.47 0,0.74 0.75,0.74l-0.01 -0.01zm636.04 121.19c4.41,1.46 11.75,26.44 26.44,81.52 27.18,106.5 39.67,225.48 35.26,336.39 -1.47,30.84 -2.94,59.48 -4.41,63.17l-2.2 7.33 -38.19 -12.48c-78.59,-24.97 -206.38,-62.44 -315.81,-93.28 -62.44,-16.89 -113.1,-32.31 -113.1,-33.78 0,-4.41 91.07,-95.48 129.99,-130 74.17,-65.38 275.41,-221.08 282.03,-218.87l-0.01 0zm50.68 7.33c2.21,-2.19 304.07,49.95 441.42,76.39 102.09,19.83 250.45,50.68 259.26,54.36 4.4,1.46 -11.02,10.27 -60.23,32.31 -193.9,87.4 -337.86,165.98 -481.06,261.47 -37.46,24.97 -69.05,45.53 -69.78,45.53 -0.73,0 -1.46,-21.29 -1.46,-47 0,-139.54 -27.92,-280.56 -79.34,-399.54 -5.14,-11.75 -9.54,-22.77 -8.81,-23.51l0 -0.01zm780.73 154.25c2.21,2.2 -7.35,61.7 -16.16,96.95 -26.44,109.43 -97.68,271.76 -185.07,424.52 -15.44,27.17 -29.39,49.21 -30.87,49.94 -1.45,0.73 -21.28,-10.29 -44.06,-23.51 -85.19,-49.94 -182.14,-96.95 -287.91,-141.02 -29.36,-12.48 -55.08,-22.77 -55.81,-24.23 -5.15,-4.41 231.35,-160.85 356.21,-235.76 99.15,-60.22 260.73,-149.83 263.67,-146.89l0 0zm55.81 8.81c6.62,0 140.29,36.73 210.05,57.29 172.61,51.42 370.91,124.13 500.17,182.88l53.61 24.25 -37.44 8.8c-315.81,72.71 -586.1,156.45 -846.84,262.21 -21.3,8.81 -40.4,16.16 -41.85,16.16 -1.47,0 5.87,-16.89 15.42,-37.46 78.59,-166.72 129.27,-340.79 141.74,-489.16 0.75,-13.96 2.93,-24.97 5.14,-24.97l0 0zm-1330.83 305.54c2.2,-2.21 104.29,22.04 159.38,37.45 83.73,23.51 261.46,82.99 261.46,87.4 0,0.74 -19.83,17.63 -43.32,38.2 -96.22,80.06 -188.76,164.51 -299.67,271.74 -33.06,31.6 -60.96,57.3 -62.42,57.3 -1.47,0 -2.2,-4.42 -1.47,-10.29 16.89,-123.39 13.22,-282.03 -10.28,-442.88 -2.21,-20.57 -4.41,-38.19 -3.68,-38.92l0 0zm2145.36 2.21c1.45,1.46 -47.01,77.84 -77.86,121.17 -44.06,63.16 -108.71,146.91 -254.87,330.52 -77.1,96.94 -163.78,206.38 -192.41,243.1 -29.39,36.72 -53.62,67.56 -54.36,67.56 -0.73,0 -10.27,-13.21 -20.56,-29.37 -82.26,-123.39 -180.68,-231.36 -297.46,-328.3 -22.04,-18.37 -46.26,-38.2 -54.34,-44.08 -8.08,-5.87 -14.7,-11.75 -14.7,-12.48 0,-2.2 124.85,-55.82 219.61,-94.01 165.99,-67.57 392.18,-148.36 561.86,-200.51 88.87,-27.91 183.62,-55.08 185.09,-53.61l0 0.01zm56.55 14.68c2.93,-0.73 20.56,8.08 41.86,20.55 178.48,102.1 353.27,233.57 491.36,368.71 38.92,38.2 135.14,138.08 133.66,138.82 0,0 -33.79,2.93 -73.44,5.87 -309.21,23.51 -705.07,88.86 -1085.53,180.67 -25.7,5.87 -48.47,11.01 -49.94,11.01 -1.46,0 27.18,-28.63 63.17,-63.15 223.27,-215.2 325.37,-351.07 445.81,-593.45 16.89,-35.98 31.58,-66.83 33.05,-69.03 -0.74,0 -0.74,0 0,0l0 0zm-1635.64 167.46c10.29,2.2 105.76,47.01 177.74,82.99 66.1,33.04 165.26,85.93 170.4,90.34 0.73,0.73 -34.53,19.09 -77.85,40.39 -138.09,69.04 -256.33,134.4 -379.73,209.32 -35.25,21.3 -64.63,38.94 -65.36,38.94 -2.94,0 -2.21,-2.96 17.63,-38.94 66.1,-120.44 118.98,-264.4 149.1,-404.69 2.93,-11.01 5.87,-18.35 8.07,-18.35l0 0zm-95.49 17.62c2.21,2.21 -22.76,92.54 -38.18,141.75 -30.12,93.28 -80.8,210.06 -130,298.19 -11.76,20.56 -29.39,50.67 -38.93,67.56l-18.36 29.38 -41.13 -39.65c-47.74,-46.27 -86.67,-74.92 -136.6,-100.63 -19.85,-10.27 -35.26,-19.09 -35.26,-20.56 0,-5.87 125.59,-119.71 221.8,-201.97 69.04,-59.49 214.46,-176.27 216.66,-174.07zm583.91 240.17l36 23.5c82.24,53.62 179.18,124.86 253.38,187.29 41.85,34.51 122.63,107.23 138.81,124.86l8.8 9.55 -59.48 16.89c-336.39,93.27 -596.39,176.26 -899.72,287.91 -33.78,12.48 -62.43,22.76 -64.64,22.76 -4.39,0 -8.08,3.67 67.58,-66.11 193.9,-178.45 365.76,-375.3 493.56,-567l25.71 -39.65 0 0zm-153.51 38.2c1.47,1.46 -99.15,143.21 -159.38,223.26 -71.98,95.49 -199.78,255.59 -287.91,359.88 -36.71,43.34 -68.29,79.33 -69.76,80.07 -2.21,0.73 -2.95,-10.29 -2.95,-27.18 0,-88.88 -22.76,-183.62 -62.42,-264.41 -16.9,-33.78 -19.84,-41.86 -16.15,-45.53 13.95,-12.49 227.67,-134.41 362.81,-207.12 91.07,-48.47 233.54,-120.45 235.76,-118.98l0 0.01zm-928.36 227.68c2.21,0 19.1,8.8 38.2,19.09 47,25.71 88.87,54.35 126.32,85.2 1.46,1.47 -17.62,16.9 -42.59,35.25 -69.78,49.94 -175.54,130 -237.22,179.21 -64.65,51.42 -66.84,52.88 -59.5,41.87 48.48,-74.19 72.7,-116.05 98.42,-169.66 22.76,-47.73 45.53,-104.29 61.68,-153.5 5.88,-21.3 13.23,-37.46 14.69,-37.46l0 0zm247.52 193.89c3.66,-0.72 8.08,5.88 27.9,35.26 41.87,62.42 74.19,146.16 82.28,213.73l1.45 14.69 -100.61 38.93c-179.95,69.77 -345.93,138.81 -458.31,190.22 -31.58,14.69 -86.66,41.13 -122.65,58.76 -35.99,18.36 -65.37,32.31 -65.37,31.58 0,-0.73 22.77,-17.62 50.67,-38.2 219.62,-159.36 409.84,-334.17 552.32,-508.97 15.43,-18.37 29.39,-35.26 30.85,-35.99l1.47 -0.01zm-113.84 27.91c2.94,2.94 -80.78,97.68 -138.07,155.7 -141.75,144.7 -282.04,257.81 -456.11,367.98 -22.03,13.95 -41.86,26.43 -44.06,27.91 -5.15,2.94 1.46,-4.41 77.85,-87.41 48.47,-52.15 85.19,-96.21 127.06,-150.55 27.91,-35.99 33.05,-41.13 73.45,-69.79 107.97,-77.85 356.95,-246.78 359.89,-243.84l-0.01 0z"/>
  </g>
  <path class="fil3" d="M2237.09 6698.06c-13.55,0 -27.1,1.3 -40.53,1.3 -273.65,14.58 -458.22,135.01 -566.14,370.2 -92.3,212.71 -82.22,490.75 1.04,704.76 96.81,209.11 253.25,319.47 514.37,361.15 55.25,9.05 92.3,39.39 199.3,164.32l131.67 154.26 238.79 0 -158.78 -160.07c-87.77,-87.77 -158.77,-164.19 -158.77,-170.91 0,-6.7 33.58,-21.42 74.22,-33.8 133.99,-40.55 245.26,-144.06 323.09,-302.7 62.99,-127.39 72.03,-166.78 81.07,-325.27 23.62,-471.79 -225.12,-766.74 -639.34,-763.37l0.01 0.14 0 -0.01zm209.36 1233.74c-116.17,56.27 -284.86,67.5 -394.97,27.1 -113.85,-41.81 -224.08,-160.05 -273.66,-293.9 -55.11,-146.38 -47.24,-416.41 15.75,-538.01 101.33,-193.62 235.32,-282.68 431.13,-282.68 290.43,0 455.65,177.88 477.2,512.19 17.05,279.07 -76.41,488.43 -255.32,575.18l-0.13 0.12zm4125.11 -830.75c-100.16,0 -176.83,40.54 -228.48,120.42l-40.52 63.26 0 -164.45 -173.35 0 0 986.16 173.23 0 0 -315.21c0,-288.23 3.6,-321.92 43.87,-400.8 55.52,-108.16 151.02,-162.1 243.33,-136.29l61.95 18.07 0 -170.9 -80.03 0 0 -0.26zm-1018.43 -9.04c-33.95,0 -69.97,4.52 -105.84,12.4 -231.97,60.66 -362.72,282.67 -354.72,511.15 0,191.3 37.17,286.93 129.47,387.24 189.11,155.14 360.13,167.53 590.92,84.29 39.38,-16.78 82.23,-36.15 82.23,-36.15l0 -155.14 -82.23 42.59c-186.78,81.32 -327.47,81.32 -440.17,-14.46 -71.88,-73.19 -103.52,-160.97 -118.09,-261.12l698.96 0 0 -132.97c0,-271.06 -163.15,-442.22 -400.67,-437.83l0.14 0zm-282.69 432.42c0,0 25.83,-169.09 121.6,-235.44 46.09,-32.54 99,-48.28 150.76,-48.28 51.9,0 103.65,16.78 146.38,49.44 87.78,67.51 102.49,232.99 102.49,232.99l-521.22 0 0 1.29 -0.01 0zm-4179.19 -177.87c-187.93,-113.85 -271.31,-195.95 -261.12,-292.76 29.17,-267.84 360.13,-230.79 543.42,-129.46l1.3 -180.19c0,0 -101.33,-43.88 -246.55,-46.21 -222.79,-3.36 -366.84,69.7 -434.34,218.4 -99.14,219.43 -11.36,384.9 305.92,569.5 178.13,103.64 256.86,193.61 256.86,291.71 0,202.66 -244.34,273.39 -496.43,146.25 -51.88,-25.82 -95.77,-47.38 -98.09,-47.38 -9.05,57.45 -4.38,194.91 -4.38,194.91 0,0 77.45,32.54 193.61,54.98 288.09,57.44 550.26,-77.71 575.04,-297.14 21.56,-206 -52.93,-314.05 -335.22,-482.75l-0.01 0.14 -0.01 0zm7014.54 -256.87c-33.82,0 -69.7,4.64 -107.14,12.52 -231.69,60.66 -362.2,282.69 -353.29,511.16 0,191.04 37.05,285.78 129.33,385.94 189.11,155.29 360.14,167.8 592.1,84.43 39.24,-16.78 81.96,-35.87 81.96,-35.87l0 -155.41 -82.09 42.84c-187.16,81.06 -327.86,81.06 -440.15,-14.71 -72.29,-73.06 -103.66,-159.8 -118.25,-261.13l697.81 -0.01 0 -132.95c0,-269.76 -163.17,-441.06 -400.67,-436.53l0.39 -0.28 0 0zm-282.68 432.41c0,0 26.07,-168.83 121.72,-236.48 45.95,-32.64 98.87,-48.4 150.63,-48.4 51.63,0 103.66,16.78 146.39,49.56 87.78,67.52 102.5,234.16 102.5,234.16l-521.1 0 -0.15 1.17 0.01 -0.01zm-3177.41 -173.34c-187.93,-113.59 -271.07,-195.96 -261,-292.77 29.17,-267.97 360.14,-230.79 543.43,-129.46l1.29 -180.19c0,0 -101.33,-43.89 -246.55,-45.96 -222.79,-3.35 -366.84,69.71 -434.46,218.4 -99.01,219.43 -10.08,384.92 306.17,569.5 177.88,103.53 256.61,192.33 256.61,290.43 0,202.66 -244.22,274.56 -496.31,146.24 -51.63,-25.81 -95.51,-47.12 -98.1,-47.12 -9.04,57.44 -4.38,194.92 -4.38,194.92 0,0 76.54,31.37 192.32,54.98 288.36,57.57 550.65,-77.45 575.32,-296.88 21.42,-204.98 -52.93,-313.02 -334.33,-481.86l0 -0.23 -0.01 0zm4478.65 -250.03c-100.16,0 -177.73,40.65 -228.46,120.56l-40.55 62.98 0 -164.18 -173.34 0 0 985.9 173.22 0 0 -315.2c0,-288.11 3.48,-321.93 43.9,-400.67 55.5,-108.03 151,-162.11 243.3,-136.17l61.95 18.06 0 -171.27 -80.02 -0.01 0 0zm-5857.21 244.34l0 -628.11 -174.76 0 0 1391.23 734.98 0 0 -164.31 -560.21 0 0 -598.81 -0.01 0zm4041.72 195.81l-144.05 374.84 -138.52 -376.91 -140.69 -417.69 -178.89 0c115.92,328.64 242,662.94 369.16,987.07 55.12,1.28 110.36,0 165.47,0l194.53 -488.44 198.14 -498.51 -171.03 0.01c0,0 -75.52,198 -154.24,419.76l0.12 -0.13 0 0zm-3638.99 -1203.02c28.14,0 51.63,-9.02 70.99,-28.39 19.09,-19.11 29.17,-41.57 29.17,-69.7 0,-28.15 -10.08,-51.64 -29.17,-69.71 -19.36,-18.07 -41.7,-27.11 -69.71,-27.11 -28.38,0 -51.88,9.04 -70.99,28.14 -19.36,19.11 -28.14,42.61 -28.14,69.71 0,28.4 9.04,51.88 28.14,69.71 18.07,18.06 41.57,27.1 69.71,27.1l0 0.25zm-61.96 -160.05c16.78,-16.78 37.18,-24.53 63.25,-24.53 24.53,0 44.93,7.76 61.97,24.53 16.78,16.78 25.81,37.17 25.81,61.95 0,24.78 -9.03,46.22 -25.81,62.99 -17.04,16.77 -37.44,24.78 -61.97,24.78 -24.91,0 -45.18,-7.74 -61.96,-24.78 -16.78,-16.77 -25.81,-38.21 -25.81,-62.99 0,-24.78 7.74,-45.17 24.52,-61.95zm41.69 71l11.35 0c8.02,0 15.89,7.74 22.59,22.45l13.57 30.46 21.29 0 -16.77 -33.83c-6.84,-13.54 -13.55,-21.42 -21.43,-23.62 9.94,-2.33 17.81,-5.68 23.49,-12.4 5.67,-5.79 7.74,-13.68 7.74,-22.59 0,-10.32 -3.23,-18.05 -10.06,-23.74 -7.75,-6.45 -20.14,-9.93 -36.15,-9.93l-35.87 0 0 126.11 18.06 0 0 -52.93 2.19 0.02zm0 -58.61l15.75 0c11.36,0 19.37,2.32 23.75,5.67 4.26,3.36 5.42,7.76 5.42,15.75 0,14.59 -9.04,21.44 -25.81,21.44l-19.36 0 0 -42.86 0.25 0zm-2886.99 47.37c0,-43.89 -1.28,-76.54 -2.32,-95.77l1.04 0c4.51,22.7 10.06,39.62 14.58,50.85l167.79 374.84 28.15 0 167.79 -378.2c4.53,-10.31 9.05,-25.81 14.6,-47.37l1.28 0c-3.35,37.44 -4.51,69.96 -4.51,95.91l0 330.83 57.43 0 0 -491.79 -72.02 0 -154.24 342.05c-5.69,13.55 -13.56,33.83 -23.63,60.68l-2.33 0c-3.35,-13.3 -11.23,-33.57 -22.45,-58.35l-150.78 -345.56 -76.53 0.01 0 491.78 55.24 0 0 -329.67 0.91 -0.24 0 0zm571.69 0.92l49.58 0 0 306.29 -49.58 0 0 -306.29zm24.79 -112.31c10.33,0 19.11,-3.5 25.81,-10.32 6.85,-6.72 11.37,-15.5 11.37,-25.82 0,-10.07 -3.36,-19.11 -11.23,-25.81 -6.97,-6.85 -15.88,-10.34 -26.07,-10.34 -10.06,0 -19.1,3.49 -25.83,10.34 -6.82,6.7 -11.35,15.74 -11.35,25.81 0,11.23 3.49,19.1 11.35,25.82 7.76,6.82 15.76,10.32 25.83,10.32l0.12 0zm378.21 425.32l0 -53.96c-27.11,20.26 -56.29,30.34 -86.49,30.34 -36.13,0 -65.44,-12.39 -86.87,-36.13 -21.29,-23.49 -32.65,-56.17 -32.65,-96.82 0,-42.6 11.36,-76.43 34.85,-102.24 22.58,-24.78 51.89,-37.17 87.78,-37.17 29.3,0 57.42,9.05 83.39,27.12l0 -57.44c-23.62,-12.39 -50.6,-18.07 -81.07,-18.07 -56.29,0 -100.16,18.07 -132.95,52.94 -32.53,34.84 -49.31,82.22 -49.31,139.4 0,50.85 14.58,93.58 44.93,126.24 31.62,33.55 72.03,50.6 121.59,50.6 38.32,-1.06 69.69,-9.07 96.8,-24.81l0 0zm141.85 -163.29c0,-40.4 9.03,-73.05 25.81,-95.53 15.76,-20.25 34.85,-30.45 57.44,-30.45 19.11,0 32.66,3.48 42.59,11.36l0 -58.61c-7.74,-3.35 -18.97,-4.51 -33.55,-4.51 -20.27,0 -38.33,6.82 -54.21,19.36 -16.78,13.28 -30.2,33.56 -38.08,59.37l-1.28 0.01 0 -71.91 -56.15 0 0 351.1 56.28 0 0 -180.19 1.15 0zm323.08 187.16c52.93,0 95.53,-17.04 127.15,-50.85 31.48,-33.58 47.23,-78.74 47.23,-135.03 0,-57.42 -14.44,-101.32 -43.88,-133.99 -29.16,-32.64 -69.7,-48.41 -122.63,-48.41 -52.93,0 -95.52,15.76 -127.14,46.22 -33.82,33.57 -51.63,80.94 -51.63,141.74 0,52.92 14.45,96.81 44.92,129.47 31.49,33.81 73.19,50.72 125.98,50.72l0 0.13zm-80.02 -286.04c21.42,-22.59 49.57,-33.83 84.41,-33.83 36.16,0 63.26,11.24 83.39,33.83 20.26,23.62 30.34,57.32 30.34,102.36 0,42.85 -9.04,76.54 -28.15,99.13 -19.09,23.63 -47.23,36.14 -84.42,36.14 -36.13,0 -64.15,-12.53 -85.57,-36.14 -21.29,-23.75 -31.5,-56.28 -31.5,-99.13 -2.19,-42.59 9.04,-77.44 31.5,-102.36zm500.83 255.45c21.42,-19.09 32.79,-42.59 32.79,-72.03 0,-25.82 -9.05,-47.24 -25.82,-64.15 -13.69,-13.54 -34.85,-25.82 -65.44,-38.21 -27.12,-11.35 -43.89,-21.43 -52.93,-29.3 -9.03,-9.03 -14.58,-20.25 -14.58,-36.14 0,-14.58 5.68,-25.82 16.79,-34.85 11.35,-9.02 25.81,-13.41 45.18,-13.41 30.33,0 56.27,7.99 80.01,24.91l0 -56.29c-22.71,-11.34 -47.37,-16.76 -75.51,-16.76 -36.14,0 -66.6,9.94 -89.07,29.16 -23.62,19.12 -34.84,43.9 -34.84,73.06 0,25.81 7.74,47.25 22.44,62.98 12.4,13.43 33.58,27.12 63,39.37 28.14,12.4 47.25,23.62 57.43,32.65 10.07,9.05 14.59,20.27 14.59,33.58 0,32.77 -22.45,49.69 -66.35,49.69 -33.82,0 -64.14,-11.1 -91.26,-33.55l0 60.64c24.52,14.73 53.96,21.44 86.48,21.44 41.7,-2.19 74.35,-12.39 96.81,-32.66l0.28 -0.13 0 0zm267.97 -337.67c-52.93,0 -95.52,15.75 -127.15,46.21 -33.56,33.58 -51.63,80.95 -51.63,141.74 0,52.92 14.6,96.81 44.92,129.47 31.63,33.81 73.19,50.72 126.11,50.72 54.21,0 95.53,-17.03 127.14,-50.86 31.63,-33.56 47.37,-78.73 47.37,-135.02 0,-57.44 -14.71,-101.32 -43.89,-133.98 -30.44,-32.66 -70.99,-48.41 -122.62,-48.41l-0.25 0.13zm109.19 184.59c0,42.84 -9.03,76.54 -28.13,99.13 -19.11,23.62 -47.25,36.14 -84.43,36.14 -36.16,0 -64.16,-12.53 -85.59,-36.14 -21.29,-23.75 -31.49,-56.29 -31.49,-99.13 0,-45.18 11.24,-80.03 33.83,-103.53 21.29,-22.46 49.44,-33.82 84.42,-33.82 34.84,0 62.86,11.35 83.11,33.82 18.08,24.78 28.15,58.48 28.15,103.53l0.13 0zm152.07 175.67l56.15 0 0 -303.97 82.22 0 0 -47.26 -82.23 0.01 0 -54.22c0,-49.29 19.1,-74.08 58.6,-74.08 13.3,0 26.85,3.35 36.92,9.04l0 -50.72c-10.07,-4.52 -23.62,-5.55 -40.54,-5.55 -30.33,0 -55.11,9.04 -75.38,28.14 -23.63,22.45 -36.14,51.63 -36.14,91.14l0 57.57 -59.39 0 0 47.23 59.39 0 0 302.83 0.4 -0.16 0 0zm230.65 -95.78c0,68.68 30.35,103.66 92.3,103.66 22.46,0 39.37,-3.61 52.92,-11.62l0 -48.27c-10.32,7.75 -22.59,11.37 -36.14,11.37 -19.09,0 -32.52,-4.54 -40.4,-14.73 -8.01,-10.06 -12.52,-27.11 -12.52,-50.6l0 -198.13 89.05 -0.01 0 -47.25 -89.05 0 0 -103.51c-19.36,6.71 -38.33,12.4 -56.28,18.06l0 85.45 -60.67 0 0 47.25 60.67 0 0 208.21 0.12 0.12zm6040.9 647.2c-19.1,-18.06 -41.69,-27.1 -69.7,-27.1 -28.39,0 -51.9,9.04 -71,28.39 -19.1,18.98 -28.15,42.59 -28.15,69.71 0,28.15 9.05,51.64 28.01,69.7 19.11,18.07 42.59,27.12 71,27.12 28,0 51.63,-9.05 71,-28.15 18.97,-19.37 29.04,-41.69 29.04,-69.7 -1.04,-28.4 -11.23,-51.9 -30.33,-69.96l0.13 -0.01 0 0zm-9.03 132.96c-16.79,16.77 -37.18,24.52 -61.97,24.52 -24.51,0 -44.91,-7.75 -61.95,-24.52 -16.77,-17.04 -25.82,-38.34 -25.82,-63.25 0,-24.53 7.74,-44.91 24.78,-61.96 16.78,-16.76 37.06,-24.52 62.99,-24.52 24.53,0 44.93,7.76 61.97,24.52 16.77,17.05 25.8,37.43 25.8,61.96 0,26.08 -7.74,46.21 -25.8,63.25l0 0zm-50.61 -57.45c10.07,-2.32 18.08,-6.83 23.62,-12.38 5.69,-5.82 7.76,-13.7 7.76,-22.71 0,-10.07 -3.23,-18.08 -10.06,-23.62 -7.75,-6.46 -20.26,-9.95 -36.13,-9.95l-35.89 0 0 125.97 18.08 0 0 -52.92 11.21 0c7.76,0 15.5,7.74 22.46,22.46l13.42 30.33 21.44 0 -16.77 -33.82c-5.82,-14.72 -12.53,-21.44 -19.36,-23.63l0.22 0.27zm-12.39 -11.35l-19.36 0 0 -42.59 15.88 0c11.23,0 19.1,2.06 23.63,5.55 4.51,3.35 5.54,7.74 5.54,15.75 0,14.58 -9.03,21.3 -25.81,21.3l0.12 -0.01zm-3140.35 -981.39l15.75 0 0 -126.11 41.67 0 0 -15.75 -99.11 0 0 15.75 41.7 0 0 126.11 -0.01 0zm95.51 -94.74c0,-12.27 0,-22.34 -0.9,-28.01 1.03,6.71 3.35,11.24 4.39,14.59l48.41 108.16 7.75 0 48.52 -109.2c1.3,-3.36 2.34,-7.75 4.52,-13.55 -1.03,11.24 -1.03,20.25 -1.03,27.1l0 95.53 16.78 0 0 -141.74 -20.27 0 -43.87 97.84c-1.04,3.5 -4.54,10.33 -6.72,18.08l-1.3 0c-0.9,-4.53 -3.22,-9.04 -6.45,-16.77l-43.89 -99.14 -22.71 0 0 141.99 15.87 0 0 -94.74 0.9 -0.14 0 0z"/>
 </g>
</svg>
