<?xml version="1.0" encoding="UTF-8"?>
<!DOCTYPE svg PUBLIC "-//W3C//DTD SVG 1.1//EN" "http://www.w3.org/Graphics/SVG/1.1/DTD/svg11.dtd">
<!-- Creator: CorelDRAW 2018 (64 Bit Versão de avaliação) -->
<svg xmlns="http://www.w3.org/2000/svg" xml:space="preserve" width="100mm" height="100mm" version="1.1" style="shape-rendering:geometricPrecision; text-rendering:geometricPrecision; image-rendering:optimizeQuality; fill-rule:evenodd; clip-rule:evenodd"
viewBox="0 0 10000 10000"
 xmlns:xlink="http://www.w3.org/1999/xlink">
 <defs>
  <style type="text/css">
   <![CDATA[
    .fil0 {fill:white}
   ]]>
  </style>
 </defs>
 <g id="Camada_x0020_1">
  <metadata id="CorelCorpID_0Corel-Layer"/>
  <path class="fil0" d="M3683.45 4591.07c0,258.11 602.59,891.45 816.74,1103.69 238.5,236.36 985.93,705.95 1232.95,705.95 214.69,0 437.7,-383.96 546.28,-543.2 119.7,-175.56 241.15,-196.12 420.45,-109.61 64.59,31.18 120.03,51.34 178.42,80.1 57.97,28.55 108.6,57.17 171.98,86.54l523.29 252.27c250.8,125.41 283.14,95.43 283.14,326.23 0,521.27 -289.51,891.62 -759.57,1068.53 -508.81,191.51 -869.66,117.85 -1384.81,-69.03 -768.48,-278.78 -1165.69,-470.56 -1765.92,-1003.94 -509.35,-452.63 -893.98,-931.49 -1267.72,-1502.13 -70.3,-107.34 -120.14,-208.64 -177.11,-321.46 -291.58,-577.5 -331.8,-1277.7 68.47,-1815.18 173.28,-232.69 409.87,-422.97 735.69,-375.18 327.31,48.02 275.27,-45.77 525.48,583.74 44.7,112.47 313.88,706.44 313.88,812.52 0,297.51 -461.64,543.08 -461.64,720.16zm1431.38 5170.4l-197.41 0c-430.41,-8.52 -861.31,-73.53 -1277.56,-196.46 -177.43,-52.4 -355.68,-122.74 -510.9,-190.8 -276.67,-121.32 -682.73,-370.51 -683,-370.64 -70.89,-30.9 -449.94,116.8 -523.69,141.6l-1322.59 413.18c7.97,-95.77 105.12,-343.26 140.75,-450.15 74.17,-222.45 431.68,-1210.55 431.68,-1304.09l-338.3 -548.06c-100.55,-179.78 -196.2,-405.18 -268.44,-599.45 -234.35,-630.24 -279.61,-1085.69 -279.61,-1788.54 0,-652.84 226.73,-1407.99 442.9,-1846.85 133.12,-270.24 360.9,-660.36 549.97,-890.36 218.19,-265.43 422.93,-497.69 690.1,-713.29l321.96 -250.47c222.58,-161.24 463.01,-299.12 721.6,-423.28 698.46,-335.36 1316.28,-436.78 2166.88,-436.78 652.84,0 1407.99,226.73 1846.85,442.9 531.1,261.61 644.37,365.19 1041.68,675.63 245.82,192.08 500.91,481.07 696.37,725.49 189.68,237.19 405.25,603.21 539.35,882.51 335.36,698.46 436.78,1316.28 436.78,2166.88 0,938.03 -382.78,1879.79 -867.75,2566.86 -172.57,244.49 -217.33,269.72 -382.47,466.96 -129.57,154.76 -275.39,289.69 -432.75,416.68 -55.29,44.62 -104.45,89.13 -161.05,134.4 -781.63,625.07 -1773.75,955.57 -2781.35,976.13z"/>
 </g>
</svg>
